<?xml version="1.0" encoding="utf-8"?><svg xmlns="http://www.w3.org/2000/svg" xmlns:xlink="http://www.w3.org/1999/xlink" width="1031" height="656" preserveAspectRatio="xMidYMid" viewBox="0 0 1031 656" style="z-index:1;margin-right:-1.6px;display:block;background-repeat-y:initial;background-repeat-x:initial;background-color:rgb(241, 242, 243);animation-play-state:paused" ><g transform="translate(515.5,328) scale(1,1) translate(-515.5,-328)" style="transform:matrix(1, 0, 0, 1, 0, 0);animation-play-state:paused" ><defs style="animation-play-state:paused" ><linearGradient id="lg-0.592336010164005" x1="0" x2="0" y1="0" y2="1" style="animation-play-state:paused" ><stop stop-color="#2c8c14" offset="0" style="animation-play-state:paused" ></stop>

  
<stop stop-color="#8db189" offset="1" style="animation-play-state:paused" ></stop></linearGradient></defs>


<rect x="0" y="0" width="1031" height="656" fill="url(#lg-0.592336010164005)" style="animation-play-state:paused" ></rect>
<circle cx="0" cy="190.60769219337726" r="77.8269231721856" fill="#9db189" transform="matrix(1,0,0,1,0,0)" style="transform:matrix(1, 0, 0, 1, 0, 0);animation-play-state:paused" ></circle>
<circle cx="77.8269231721856" cy="218.21757094780446" r="64.5665375440105" fill="#9db189" transform="matrix(1,0,0,1,-0.005429744720458984,0)" style="transform:matrix(1, 0, 0, 1, -0.00542974, 0);animation-play-state:paused" ></circle>
<circle cx="142.3934607161961" cy="241.69442346358204" r="48.70933278732748" fill="#9db189" transform="matrix(1,0,0,1,-0.022117653861641884,0)" style="transform:matrix(1, 0, 0, 1, -0.0221177, 0);animation-play-state:paused" ></circle>
<circle cx="191.10279350352357" cy="220.1589779711245" r="84.54153888303901" fill="#9db189" transform="matrix(1,0,0,1,-0.05069183558225632,0)" style="transform:matrix(1, 0, 0, 1, -0.0506918, 0);animation-play-state:paused" ></circle>
<circle cx="275.6443323865626" cy="261.96826851213143" r="39.45899943009446" fill="#9db189" transform="matrix(1,0,0,1,-0.09182170033454895,0)" style="transform:matrix(1, 0, 0, 1, -0.0918217, 0);animation-play-state:paused" ></circle>
<circle cx="315.1033318166571" cy="264.86867643788645" r="41.01114964332726" fill="#9db189" transform="matrix(1,0,0,1,-0.14621886610984802,0)" style="transform:matrix(1, 0, 0, 1, -0.146219, 0);animation-play-state:paused" ></circle>
<circle cx="356.11448145998435" cy="252.1776096583497" r="85.76920063266915" fill="#9db189" transform="matrix(1,0,0,1,-0.21463720500469208,0)" style="transform:matrix(1, 0, 0, 1, -0.214637, 0);animation-play-state:paused" ></circle>
<circle cx="441.8836820926535" cy="269.66358678691455" r="83.6592259867249" fill="#9db189" transform="matrix(1,0,0,1,-0.2978716492652893,0)" style="transform:matrix(1, 0, 0, 1, -0.297872, 0);animation-play-state:paused" ></circle>
<circle cx="525.5429080793784" cy="283.2164967760894" r="33.51418970925798" fill="#9db189" transform="matrix(1,0,0,1,-0.3967548906803131,0)" style="transform:matrix(1, 0, 0, 1, -0.396755, 0);animation-play-state:paused" ></circle>
<circle cx="559.0570977886364" cy="274.8787159322942" r="89.9589691007267" fill="#9db189" transform="matrix(1,0,0,1,-0.5121519565582275,0)" style="transform:matrix(1, 0, 0, 1, -0.512152, 0);animation-play-state:paused" ></circle>
<circle cx="649.0160668893631" cy="269.8304826445012" r="45.589932650904245" fill="#9db189" transform="matrix(1,0,0,1,-0.6449503302574158,0)" style="transform:matrix(1, 0, 0, 1, -0.64495, 0);animation-play-state:paused" ></circle>
<circle cx="694.6059995402672" cy="257.9220338681826" r="62.547651369664266" fill="#9db189" transform="matrix(1,0,0,1,-0.7960466146469116,0)" style="transform:matrix(1, 0, 0, 1, -0.796047, 0);animation-play-state:paused" ></circle>
<circle cx="757.1536509099315" cy="241.3939212124788" r="75.74005721365151" fill="#9db189" transform="matrix(1,0,0,1,-0.9663257002830505,0)" style="transform:matrix(1, 0, 0, 1, -0.966326, 0);animation-play-state:paused" ></circle>
<circle cx="832.893708123583" cy="254.39305281471604" r="40.07215876102371" fill="#9db189" transform="matrix(1,0,0,1,-1.156632423400879,0)" style="transform:matrix(1, 0, 0, 1, -1.15663, 0);animation-play-state:paused" ></circle>
<circle cx="872.9658668846067" cy="211.14357195040287" r="87.55495311782974" fill="#9db189" transform="matrix(1,0,0,1,-1.3677335977554321,0)" style="transform:matrix(1, 0, 0, 1, -1.36773, 0);animation-play-state:paused" ></circle>
<circle cx="960.5208200024365" cy="189.17857404877697" r="91.53213153335884" fill="#9db189" transform="matrix(1,0,0,1,-1.600266933441162,0)" style="transform:matrix(1, 0, 0, 1, -1.60027, 0);animation-play-state:paused" ></circle>
<circle cx="1052.0529515357953" cy="184.62236731421063" r="79.56525928287427" fill="#9db189" transform="matrix(1,0,0,1,-1.8546782732009888,0)" style="transform:matrix(1, 0, 0, 1, -1.85468, 0);animation-play-state:paused" ></circle>
<circle cx="0" cy="246.29168903197106" r="83.09025914002412" fill="#96af83" transform="matrix(1,0,0,1,0,0)" style="transform:matrix(1, 0, 0, 1, 0, 0);animation-play-state:paused" ></circle>
<circle cx="83.09025914002412" cy="295.04012940899776" r="50.62677596295645" fill="#96af83" transform="matrix(1,0,0,1,-0.022117653861641884,0)" style="transform:matrix(1, 0, 0, 1, -0.0221177, 0);animation-play-state:paused" ></circle>
<circle cx="133.71703510298056" cy="275.0521904054193" r="79.83068743404938" fill="#96af83" transform="matrix(1,0,0,1,-0.09182170033454895,0)" style="transform:matrix(1, 0, 0, 1, -0.0918217, 0);animation-play-state:paused" ></circle>
<circle cx="213.54772253702993" cy="281.2755794412092" r="92.08253888770122" fill="#96af83" transform="matrix(1,0,0,1,-0.21463720500469208,0)" style="transform:matrix(1, 0, 0, 1, -0.214637, 0);animation-play-state:paused" ></circle>
<circle cx="305.63026142473115" cy="310.8716696485542" r="71.90434099386098" fill="#96af83" transform="matrix(1,0,0,1,-0.3967548906803131,0)" style="transform:matrix(1, 0, 0, 1, -0.396755, 0);animation-play-state:paused" ></circle>
<circle cx="377.53460241859216" cy="329.49417228675463" r="51.394252564653165" fill="#96af83" transform="matrix(1,0,0,1,-0.6449503302574158,0)" style="transform:matrix(1, 0, 0, 1, -0.64495, 0);animation-play-state:paused" ></circle>
<circle cx="428.92885498324534" cy="331.29769616601874" r="72.9557716657065" fill="#96af83" transform="matrix(1,0,0,1,-0.9663257002830505,0)" style="transform:matrix(1, 0, 0, 1, -0.966326, 0);animation-play-state:paused" ></circle>
<circle cx="501.88462664895184" cy="343.44416319289473" r="80.64008725605669" fill="#96af83" transform="matrix(1,0,0,1,-1.3677335977554321,0)" style="transform:matrix(1, 0, 0, 1, -1.36773, 0);animation-play-state:paused" ></circle>
<circle cx="582.5247139050085" cy="334.40903256918034" r="74.29030480527759" fill="#96af83" transform="matrix(1,0,0,1,-1.8546782732009888,0)" style="transform:matrix(1, 0, 0, 1, -1.85468, 0);animation-play-state:paused" ></circle>
<circle cx="656.8150187102862" cy="320.79121061293324" r="76.63216459954266" fill="#96af83" transform="matrix(1,0,0,1,-2.4294803142547607,0)" style="transform:matrix(1, 0, 0, 1, -2.42948, 0);animation-play-state:paused" ></circle>
<circle cx="733.4471833098288" cy="311.81863593681095" r="67.37294829486689" fill="#96af83" transform="matrix(1,0,0,1,-3.0886495113372803,0)" style="transform:matrix(1, 0, 0, 1, -3.08865, 0);animation-play-state:paused" ></circle>
<circle cx="800.8201316046957" cy="317.5105125811481" r="42.894305780374374" fill="#96af83" transform="matrix(1,0,0,1,-3.819972276687622,0)" style="transform:matrix(1, 0, 0, 1, -3.81997, 0);animation-play-state:paused" ></circle>
<circle cx="843.71443738507" cy="275.3576451742899" r="92.46021747952838" fill="#96af83" transform="matrix(1,0,0,1,-4.60075569152832,0)" style="transform:matrix(1, 0, 0, 1, -4.60076, 0);animation-play-state:paused" ></circle>
<circle cx="936.1746548645984" cy="284.8728254360244" r="62.42167219437827" fill="#96af83" transform="matrix(1,0,0,1,-5.399243354797363,0)" style="transform:matrix(1, 0, 0, 1, -5.39924, 0);animation-play-state:paused" ></circle>
<circle cx="998.5963270589767" cy="259.6397938629789" r="76.79401217050915" fill="#96af83" transform="matrix(1,0,0,1,-6.180027961730957,0)" style="transform:matrix(1, 0, 0, 1, -6.18003, 0);animation-play-state:paused" ></circle>
<circle cx="0" cy="318.83183737872514" r="74.30680218439574" fill="#8ead7c" transform="matrix(1,0,0,1,0,0)" style="transform:matrix(1, 0, 0, 1, 0, 0);animation-play-state:paused" ></circle>
<circle cx="74.30680218439574" cy="364.63042012844346" r="42.22832260046816" fill="#8ead7c" transform="matrix(1,0,0,1,-0.05069185048341751,0)" style="transform:matrix(1, 0, 0, 1, -0.0506918, 0);animation-play-state:paused" ></circle>
<circle cx="116.5351247848639" cy="370.5941775683924" r="40.276522783064095" fill="#8ead7c" transform="matrix(1,0,0,1,-0.21463724970817566,0)" style="transform:matrix(1, 0, 0, 1, -0.214637, 0);animation-play-state:paused" ></circle>
<circle cx="156.811647567928" cy="341.5962109219765" r="79.528540206789" fill="#8ead7c" transform="matrix(1,0,0,1,-0.5121520161628723,0)" style="transform:matrix(1, 0, 0, 1, -0.512152, 0);animation-play-state:paused" ></circle>
<circle cx="236.34018777471698" cy="366.76497138553964" r="63.45426621794722" fill="#8ead7c" transform="matrix(1,0,0,1,-0.9663259983062744,0)" style="transform:matrix(1, 0, 0, 1, -0.966326, 0);animation-play-state:paused" ></circle>
<circle cx="299.7944539926642" cy="374.4732519920706" r="66.76941057687593" fill="#8ead7c" transform="matrix(1,0,0,1,-1.6002674102783203,0)" style="transform:matrix(1, 0, 0, 1, -1.60027, 0);animation-play-state:paused" ></circle>
<circle cx="366.56386456954016" cy="375.79439472636886" r="92.8921059048412" fill="#8ead7c" transform="matrix(1,0,0,1,-2.429480791091919,0)" style="transform:matrix(1, 0, 0, 1, -2.42948, 0);animation-play-state:paused" ></circle>
<circle cx="459.4559704743814" cy="400.69794720843333" r="55.97099646347309" fill="#8ead7c" transform="matrix(1,0,0,1,-3.4464619159698486,0)" style="transform:matrix(1, 0, 0, 1, -3.44646, 0);animation-play-state:paused" ></circle>
<circle cx="515.4269669378544" cy="407.99292498111953" r="41.61553828888076" fill="#8ead7c" transform="matrix(1,0,0,1,-4.600757122039795,0)" style="transform:matrix(1, 0, 0, 1, -4.60076, 0);animation-play-state:paused" ></circle>
<circle cx="557.0425052267352" cy="402.849695880235" r="53.25833864312027" fill="#8ead7c" transform="matrix(1,0,0,1,-5.794002532958984,0)" style="transform:matrix(1, 0, 0, 1, -5.794, 0);animation-play-state:paused" ></circle>
<circle cx="610.3008438698555" cy="397.41578272742447" r="47.96163357911854" fill="#8ead7c" transform="matrix(1,0,0,1,-6.911351680755615,0)" style="transform:matrix(1, 0, 0, 1, -6.91135, 0);animation-play-state:paused" ></circle>
<circle cx="658.2624774489741" cy="394.9466971800677" r="39.278397493487915" fill="#8ead7c" transform="matrix(1,0,0,1,-7.868857383728027,0)" style="transform:matrix(1, 0, 0, 1, -7.86886, 0);animation-play-state:paused" ></circle>
<circle cx="697.540874942462" cy="392.769257729749" r="35.941779755032286" fill="#8ead7c" transform="matrix(1,0,0,1,-8.632266998291016,0)" style="transform:matrix(1, 0, 0, 1, -8.63227, 0);animation-play-state:paused" ></circle>
<circle cx="733.4826546974942" cy="367.0452808909213" r="80.71038851703024" fill="#8ead7c" transform="matrix(1,0,0,1,-9.203954696655273,0)" style="transform:matrix(1, 0, 0, 1, -9.20396, 0);animation-play-state:paused" ></circle>
<circle cx="814.1930432145244" cy="376.0318013714708" r="45.97698419659037" fill="#8ead7c" transform="matrix(1,0,0,1,-9.603245735168457,0)" style="transform:matrix(1, 0, 0, 1, -9.60325, 0);animation-play-state:paused" ></circle>
<circle cx="860.1700274111148" cy="341.01022411279064" r="83.49345442374356" fill="#8ead7c" transform="matrix(1,0,0,1,-9.853781700134277,0)" style="transform:matrix(1, 0, 0, 1, -9.85378, 0);animation-play-state:paused" ></circle>
<circle cx="943.6634818348583" cy="356.57000208599504" r="51.60054716143686" fill="#8ead7c" transform="matrix(1,0,0,1,-9.977882385253906,0)" style="transform:matrix(1, 0, 0, 1, -9.97788, 0);animation-play-state:paused" ></circle>
<circle cx="995.2640289962952" cy="307.95205061753256" r="89.58348060983302" fill="#8ead7c" transform="matrix(1,0,0,1,-9.994569778442383,0)" style="transform:matrix(1, 0, 0, 1, -9.99457, 0);animation-play-state:paused" ></circle>
<circle cx="0" cy="428.1990888786117" r="34.83409260115691" fill="#86ab77" transform="matrix(1,0,0,1,0,0)" style="transform:matrix(1, 0, 0, 1, 0, 0);animation-play-state:paused" ></circle>
<circle cx="34.83409260115691" cy="430.29076514026076" r="35.48915205464821" fill="#86ab77" transform="matrix(1,0,0,1,-0.09182170033454895,0)" style="transform:matrix(1, 0, 0, 1, -0.0918217, 0);animation-play-state:paused" ></circle>
<circle cx="70.32324465580513" cy="385.1489434016686" r="81.87893750693299" fill="#86ab77" transform="matrix(1,0,0,1,-0.3967548906803131,0)" style="transform:matrix(1, 0, 0, 1, -0.396755, 0);animation-play-state:paused" ></circle>
<circle cx="152.2021821627381" cy="393.0752521653862" r="90.96005527184913" fill="#86ab77" transform="matrix(1,0,0,1,-0.9663257002830505,0)" style="transform:matrix(1, 0, 0, 1, -0.966326, 0);animation-play-state:paused" ></circle>
<circle cx="243.1622374345872" cy="430.7676872341373" r="61.884725546598126" fill="#86ab77" transform="matrix(1,0,0,1,-1.8546782732009888,0)" style="transform:matrix(1, 0, 0, 1, -1.85468, 0);animation-play-state:paused" ></circle>
<circle cx="305.04696298118535" cy="435.3126344390252" r="70.80493744978962" fill="#86ab77" transform="matrix(1,0,0,1,-3.0886495113372803,0)" style="transform:matrix(1, 0, 0, 1, -3.08865, 0);animation-play-state:paused" ></circle>
<circle cx="375.851900430975" cy="457.933392273355" r="37.11911286465983" fill="#86ab77" transform="matrix(1,0,0,1,-4.60075569152832,0)" style="transform:matrix(1, 0, 0, 1, -4.60076, 0);animation-play-state:paused" ></circle>
<circle cx="412.9710132956348" cy="461.11327305836573" r="37.23424862295887" fill="#86ab77" transform="matrix(1,0,0,1,-6.180027961730957,0)" style="transform:matrix(1, 0, 0, 1, -6.18003, 0);animation-play-state:paused" ></circle>
<circle cx="450.2052619185937" cy="464.96537871862427" r="33.12348675674104" fill="#86ab77" transform="matrix(1,0,0,1,-7.57051944732666,0)" style="transform:matrix(1, 0, 0, 1, -7.57052, 0);animation-play-state:paused" ></circle>
<circle cx="483.32874867533474" cy="464.00692623373254" r="80.02562845455333" fill="#86ab77" transform="matrix(1,0,0,1,-8.632266998291016,0)" style="transform:matrix(1, 0, 0, 1, -8.63227, 0);animation-play-state:paused" ></circle>
<circle cx="563.354377129888" cy="463.5700987177237" r="57.72049688051157" fill="#86ab77" transform="matrix(1,0,0,1,-9.355050086975098,0)" style="transform:matrix(1, 0, 0, 1, -9.35505, 0);animation-play-state:paused" ></circle>
<circle cx="621.0748740103995" cy="448.06895154117416" r="89.237263967838" fill="#86ab77" transform="matrix(1,0,0,1,-9.785362243652344,0)" style="transform:matrix(1, 0, 0, 1, -9.78536, 0);animation-play-state:paused" ></circle>
<circle cx="710.3121379782375" cy="450.47359923032695" r="43.05797584119609" fill="#86ab77" transform="matrix(1,0,0,1,-9.977882385253906,0)" style="transform:matrix(1, 0, 0, 1, -9.97788, 0);animation-play-state:paused" ></circle>
<circle cx="753.3701138194336" cy="432.63322744353206" r="67.48280585976066" fill="#86ab77" transform="matrix(1,0,0,1,-9.977882385253906,0)" style="transform:matrix(1, 0, 0, 1, -9.97788, 0);animation-play-state:paused" ></circle>
<circle cx="820.8529196791943" cy="416.4704606342255" r="75.30760792039061" fill="#86ab77" transform="matrix(1,0,0,1,-9.78536319732666,0)" style="transform:matrix(1, 0, 0, 1, -9.78536, 0);animation-play-state:paused" ></circle>
<circle cx="896.160527599585" cy="407.17826646081915" r="70.89563467407226" fill="#86ab77" transform="matrix(1,0,0,1,-9.355049133300781,0)" style="transform:matrix(1, 0, 0, 1, -9.35505, 0);animation-play-state:paused" ></circle>
<circle cx="967.0561622736573" cy="400.80686608779246" r="65.82617976049681" fill="#86ab77" transform="matrix(1,0,0,1,-8.632266998291016,0)" style="transform:matrix(1, 0, 0, 1, -8.63227, 0);animation-play-state:paused" ></circle>
<circle cx="1032.8823420341541" cy="381.76796896858013" r="73.25918748642825" fill="#86ab77" transform="matrix(1,0,0,1,-7.57051944732666,0)" style="transform:matrix(1, 0, 0, 1, -7.57052, 0);animation-play-state:paused" ></circle>
<circle cx="0" cy="493.64515181957336" r="31.962373483688893" fill="#7ea971" transform="matrix(1,0,0,1,0,0)" style="transform:matrix(1, 0, 0, 1, 0, 0);animation-play-state:paused" ></circle>
<circle cx="31.962373483688893" cy="434.5895060129617" r="86.54119641129309" fill="#7ea971" transform="matrix(1,0,0,1,-0.14621886610984802,0)" style="transform:matrix(1, 0, 0, 1, -0.146219, 0);animation-play-state:paused" ></circle>
<circle cx="118.50356989498198" cy="462.44172629628684" r="75.26786845576663" fill="#7ea971" transform="matrix(1,0,0,1,-0.6449503302574158,0)" style="transform:matrix(1, 0, 0, 1, -0.64495, 0);animation-play-state:paused" ></circle>
<circle cx="193.7714383507486" cy="467.38616357322326" r="86.27467542633106" fill="#7ea971" transform="matrix(1,0,0,1,-1.600266933441162,0)" style="transform:matrix(1, 0, 0, 1, -1.60027, 0);animation-play-state:paused" ></circle>
<circle cx="280.04611377707965" cy="490.1339308854713" r="76.3842373226126" fill="#7ea971" transform="matrix(1,0,0,1,-3.0886495113372803,0)" style="transform:matrix(1, 0, 0, 1, -3.08865, 0);animation-play-state:paused" ></circle>
<circle cx="356.43035109969225" cy="513.8897244880616" r="48.908591775916655" fill="#7ea971" transform="matrix(1,0,0,1,-5,0)" style="transform:matrix(1, 0, 0, 1, -5, 0);animation-play-state:paused" ></circle>
<circle cx="405.3389428756089" cy="520.4553583449095" r="45.01940861671848" fill="#7ea971" transform="matrix(1,0,0,1,-6.911351203918457,0)" style="transform:matrix(1, 0, 0, 1, -6.91135, 0);animation-play-state:paused" ></circle>
<circle cx="450.35835149232736" cy="521.1581782842494" r="71.49751378350945" fill="#7ea971" transform="matrix(1,0,0,1,-8.39973258972168,0)" style="transform:matrix(1, 0, 0, 1, -8.39973, 0);animation-play-state:paused" ></circle>
<circle cx="521.8558652758368" cy="530.7416041193446" r="85.05307674157463" fill="#7ea971" transform="matrix(1,0,0,1,-9.355050086975098,0)" style="transform:matrix(1, 0, 0, 1, -9.35505, 0);animation-play-state:paused" ></circle>
<circle cx="606.9089420174114" cy="517.2638864739915" r="69.25349565554902" fill="#7ea971" transform="matrix(1,0,0,1,-9.853780746459961,0)" style="transform:matrix(1, 0, 0, 1, -9.85378, 0);animation-play-state:paused" ></circle>
<circle cx="676.1624376729604" cy="516.5564731326359" r="41.29329696596342" fill="#7ea971" transform="matrix(1,0,0,1,-10,0)" style="transform:matrix(1, 0, 0, 1, -10, 0);animation-play-state:paused" ></circle>
<circle cx="717.4557346389239" cy="506.1248822417129" r="55.03938453082752" fill="#7ea971" transform="matrix(1,0,0,1,-9.853780746459961,0)" style="transform:matrix(1, 0, 0, 1, -9.85378, 0);animation-play-state:paused" ></circle>
<circle cx="772.4951191697514" cy="504.7935482738092" r="45.47727699446936" fill="#7ea971" transform="matrix(1,0,0,1,-9.355049133300781,0)" style="transform:matrix(1, 0, 0, 1, -9.35505, 0);animation-play-state:paused" ></circle>
<circle cx="817.9723961642208" cy="472.49547667653934" r="84.51069189078957" fill="#7ea971" transform="matrix(1,0,0,1,-8.399733543395996,0)" style="transform:matrix(1, 0, 0, 1, -8.39973, 0);animation-play-state:paused" ></circle>
<circle cx="902.4830880550103" cy="491.3106922873517" r="45.16850730112638" fill="#7ea971" transform="matrix(1,0,0,1,-6.911350727081299,0)" style="transform:matrix(1, 0, 0, 1, -6.91135, 0);animation-play-state:paused" ></circle>
<circle cx="947.6515953561367" cy="484.135874096933" r="47.57967105404528" fill="#7ea971" transform="matrix(1,0,0,1,-5,0)" style="transform:matrix(1, 0, 0, 1, -5, 0);animation-play-state:paused" ></circle>
<circle cx="995.231266410182" cy="476.83193643246403" r="49.401159149430654" fill="#7ea971" transform="matrix(1,0,0,1,-3.088648796081543,0)" style="transform:matrix(1, 0, 0, 1, -3.08865, 0);animation-play-state:paused" ></circle>
<circle cx="1044.6324255596126" cy="461.5190296540359" r="57.220931311789386" fill="#7ea971" transform="matrix(1,0,0,1,-1.600266456604004,0)" style="transform:matrix(1, 0, 0, 1, -1.60027, 0);animation-play-state:paused" ></circle>
<circle cx="0" cy="532.9779773453878" r="50.851685545510165" fill="#75a76c" transform="matrix(1,0,0,1,0,0)" style="transform:matrix(1, 0, 0, 1, 0, 0);animation-play-state:paused" ></circle>
<circle cx="50.851685545510165" cy="557.9035995108331" r="33.37236262586306" fill="#75a76c" transform="matrix(1,0,0,1,-0.2146373838186264,0)" style="transform:matrix(1, 0, 0, 1, -0.214637, 0);animation-play-state:paused" ></circle>
<circle cx="84.22404817137323" cy="520.6522036198711" r="73.05993002399279" fill="#75a76c" transform="matrix(1,0,0,1,-0.9663266539573669,0)" style="transform:matrix(1, 0, 0, 1, -0.966327, 0);animation-play-state:paused" ></circle>
<circle cx="157.28397819536602" cy="541.8689920386827" r="62.51705900040094" fill="#75a76c" transform="matrix(1,0,0,1,-2.4294822216033936,0)" style="transform:matrix(1, 0, 0, 1, -2.42948, 0);animation-play-state:paused" ></circle>
<circle cx="219.80103719576695" cy="569.2978707655824" r="35.88657503671166" fill="#75a76c" transform="matrix(1,0,0,1,-4.600759983062744,0)" style="transform:matrix(1, 0, 0, 1, -4.60076, 0);animation-play-state:paused" ></circle>
<circle cx="255.6876122324786" cy="563.3599001199825" r="50.66146519503865" fill="#75a76c" transform="matrix(1,0,0,1,-6.911355018615723,0)" style="transform:matrix(1, 0, 0, 1, -6.91135, 0);animation-play-state:paused" ></circle>
<circle cx="306.3490774275173" cy="549.5502178712453" r="91.29716158050135" fill="#75a76c" transform="matrix(1,0,0,1,-8.632269859313965,0)" style="transform:matrix(1, 0, 0, 1, -8.63227, 0);animation-play-state:paused" ></circle>
<circle cx="397.6462390080186" cy="580.8268221981451" r="48.01694560344582" fill="#75a76c" transform="matrix(1,0,0,1,-9.603246688842773,0)" style="transform:matrix(1, 0, 0, 1, -9.60325, 0);animation-play-state:paused" ></circle>
<circle cx="445.66318461146443" cy="579.1580670449104" r="91.29635989965153" fill="#75a76c" transform="matrix(1,0,0,1,-9.977882385253906,0)" style="transform:matrix(1, 0, 0, 1, -9.97788, 0);animation-play-state:paused" ></circle>
<circle cx="536.959544511116" cy="591.8685453905113" r="42.66807133388019" fill="#75a76c" transform="matrix(1,0,0,1,-9.908177375793457,0)" style="transform:matrix(1, 0, 0, 1, -9.90818, 0);animation-play-state:paused" ></circle>
<circle cx="579.6276158449962" cy="584.7798442342474" r="61.76473576186462" fill="#75a76c" transform="matrix(1,0,0,1,-9.355046272277832,0)" style="transform:matrix(1, 0, 0, 1, -9.35505, 0);animation-play-state:paused" ></circle>
<circle cx="641.3923516068608" cy="576.324391365901" r="60.31460036145618" fill="#75a76c" transform="matrix(1,0,0,1,-8.14531421661377,0)" style="transform:matrix(1, 0, 0, 1, -8.14531, 0);animation-play-state:paused" ></circle>
<circle cx="701.706951968317" cy="572.4473621406006" r="49.72238638728343" fill="#75a76c" transform="matrix(1,0,0,1,-6.180017471313477,0)" style="transform:matrix(1, 0, 0, 1, -6.18002, 0);animation-play-state:paused" ></circle>
<circle cx="751.4293383556004" cy="576.6887719244792" r="31.52051844254796" fill="#75a76c" transform="matrix(1,0,0,1,-3.8199596405029297,0)" style="transform:matrix(1, 0, 0, 1, -3.81996, 0);animation-play-state:paused" ></circle>
<circle cx="782.9498567981484" cy="560.0212244205165" r="54.577392004499316" fill="#75a76c" transform="matrix(1,0,0,1,-1.8546695709228516,0)" style="transform:matrix(1, 0, 0, 1, -1.85467, 0);animation-play-state:paused" ></circle>
<circle cx="837.5272488026477" cy="540.1282189700967" r="71.86478583249323" fill="#75a76c" transform="matrix(1,0,0,1,-0.6449451446533203,0)" style="transform:matrix(1, 0, 0, 1, -0.644945, 0);animation-play-state:paused" ></circle>
<circle cx="909.3920346351409" cy="524.6572688501909" r="75.62600654609577" fill="#75a76c" transform="matrix(1,0,0,1,-0.09181976318359375,0)" style="transform:matrix(1, 0, 0, 1, -0.0918198, 0);animation-play-state:paused" ></circle>
<circle cx="985.0180411812366" cy="514.7010523851729" r="72.55420081515737" fill="#75a76c" transform="matrix(1,0,0,1,-0.022118574008345604,0)" style="transform:matrix(1, 0, 0, 1, -0.0221186, 0);animation-play-state:paused" ></circle>
<circle cx="1057.572241996394" cy="525.4285013838302" r="54.341784480069826" fill="#75a76c" transform="matrix(1,0,0,1,-0.3967595100402832,0)" style="transform:matrix(1, 0, 0, 1, -0.39676, 0);animation-play-state:paused" ></circle>
<circle cx="0" cy="545.7016731047943" r="91.91527241267148" fill="#6ba567" transform="matrix(1,0,0,1,0,0)" style="transform:matrix(1, 0, 0, 1, 0, 0);animation-play-state:paused" ></circle>
<circle cx="91.91527241267148" cy="624.7664591040967" r="31.675855468842204" fill="#6ba567" transform="matrix(1,0,0,1,-0.297871857881546,0)" style="transform:matrix(1, 0, 0, 1, -0.297872, 0);animation-play-state:paused" ></circle>
<circle cx="123.59112788151369" cy="614.407219152853" r="45.59112260545682" fill="#6ba567" transform="matrix(1,0,0,1,-1.3677345514297485,0)" style="transform:matrix(1, 0, 0, 1, -1.36773, 0);animation-play-state:paused" ></circle>
<circle cx="169.1822504869705" cy="618.7635318448843" r="46.18927598752287" fill="#6ba567" transform="matrix(1,0,0,1,-3.4464633464813232,0)" style="transform:matrix(1, 0, 0, 1, -3.44646, 0);animation-play-state:paused" ></circle>
<circle cx="215.37152647449338" cy="616.4876395956255" r="56.55528544490696" fill="#6ba567" transform="matrix(1,0,0,1,-6.1800312995910645,0)" style="transform:matrix(1, 0, 0, 1, -6.18003, 0);animation-play-state:paused" ></circle>
<circle cx="271.92681191940034" cy="626.3135019604605" r="52.357260186613324" fill="#6ba567" transform="matrix(1,0,0,1,-8.399735450744629,0)" style="transform:matrix(1, 0, 0, 1, -8.39974, 0);animation-play-state:paused" ></circle>
<circle cx="324.28407210601364" cy="617.4018746887965" r="86.71406986973068" fill="#6ba567" transform="matrix(1,0,0,1,-9.603246688842773,0)" style="transform:matrix(1, 0, 0, 1, -9.60325, 0);animation-play-state:paused" ></circle>
<circle cx="410.9981419757443" cy="636.6258544308504" r="79.64269910061043" fill="#6ba567" transform="matrix(1,0,0,1,-9.9945707321167,0)" style="transform:matrix(1, 0, 0, 1, -9.99457, 0);animation-play-state:paused" ></circle>
<circle cx="490.6408410763547" cy="652.3738521080837" r="62.6623251154076" fill="#6ba567" transform="matrix(1,0,0,1,-9.785361289978027,0)" style="transform:matrix(1, 0, 0, 1, -9.78536, 0);animation-play-state:paused" ></circle>
<circle cx="553.3031661917623" cy="648.2469928067995" r="88.10274400079584" fill="#6ba567" transform="matrix(1,0,0,1,-8.843363761901855,0)" style="transform:matrix(1, 0, 0, 1, -8.84336, 0);animation-play-state:paused" ></circle>
<circle cx="641.4059101925582" cy="629.218778676122" r="91.37590371614844" fill="#6ba567" transform="matrix(1,0,0,1,-6.911342620849609,0)" style="transform:matrix(1, 0, 0, 1, -6.91134, 0);animation-play-state:paused" ></circle>
<circle cx="732.7818139087066" cy="619.192271261206" r="72.77179124933056" fill="#6ba567" transform="matrix(1,0,0,1,-4.205990791320801,0)" style="transform:matrix(1, 0, 0, 1, -4.20599, 0);animation-play-state:paused" ></circle>
<circle cx="805.5536051580372" cy="630.0842802908561" r="38.38242676666807" fill="#6ba567" transform="matrix(1,0,0,1,-1.8546714782714844,0)" style="transform:matrix(1, 0, 0, 1, -1.85467, 0);animation-play-state:paused" ></circle>
<circle cx="843.9360319247053" cy="623.6949597734114" r="42.25391100568061" fill="#6ba567" transform="matrix(1,0,0,1,-0.5121488571166992,0)" style="transform:matrix(1, 0, 0, 1, -0.512149, 0);animation-play-state:paused" ></circle>
<circle cx="886.1899429303859" cy="591.2481058681424" r="75.03935580478992" fill="#6ba567" transform="matrix(1,0,0,1,-0.022116661071777344,0)" style="transform:matrix(1, 0, 0, 1, -0.0221167, 0);animation-play-state:paused" ></circle>
<circle cx="961.2292987351758" cy="601.4781276611668" r="52.54688826907503" fill="#6ba567" transform="matrix(1,0,0,1,-0.14622078835964203,0)" style="transform:matrix(1, 0, 0, 1, -0.146221, 0);animation-play-state:paused" ></circle>
<circle cx="1013.7761870042508" cy="552.8489923546719" r="88.93050652768638" fill="#6ba567" transform="matrix(1,0,0,1,-0.9663317203521729,0)" style="transform:matrix(1, 0, 0, 1, -0.966332, 0);animation-play-state:paused" ></circle>
<circle cx="0" cy="656.5724947638292" r="51.18958769680898" fill="#60a363" transform="matrix(1,0,0,1,0,0)" style="transform:matrix(1, 0, 0, 1, 0, 0);animation-play-state:paused" ></circle>
<circle cx="51.18958769680898" cy="648.8511377265238" r="63.977024775938474" fill="#60a363" transform="matrix(1,0,0,1,-0.3967548906803131,0)" style="transform:matrix(1, 0, 0, 1, -0.396755, 0);animation-play-state:paused" ></circle>
<circle cx="115.16661247274746" cy="667.4039421963624" r="54.2928065507227" fill="#60a363" transform="matrix(1,0,0,1,-1.8546782732009888,0)" style="transform:matrix(1, 0, 0, 1, -1.85468, 0);animation-play-state:paused" ></circle>
<circle cx="169.45941902347016" cy="684.2488477867226" r="41.89951487974124" fill="#60a363" transform="matrix(1,0,0,1,-4.60075569152832,0)" style="transform:matrix(1, 0, 0, 1, -4.60076, 0);animation-play-state:paused" ></circle>
<circle cx="211.3589339032114" cy="665.9006524946411" r="73.587600823104" fill="#60a363" transform="matrix(1,0,0,1,-7.57051944732666,0)" style="transform:matrix(1, 0, 0, 1, -7.57052, 0);animation-play-state:paused" ></circle>
<circle cx="284.9465347263154" cy="685.0747468665381" r="61.34863327743163" fill="#60a363" transform="matrix(1,0,0,1,-9.355050086975098,0)" style="transform:matrix(1, 0, 0, 1, -9.35505, 0);animation-play-state:paused" ></circle>
<circle cx="346.29516800374705" cy="688.3275415249633" r="75.33350832548007" fill="#60a363" transform="matrix(1,0,0,1,-9.977882385253906,0)" style="transform:matrix(1, 0, 0, 1, -9.97788, 0);animation-play-state:paused" ></circle>
<circle cx="421.6286763292271" cy="707.5006656760305" r="48.04810308727103" fill="#60a363" transform="matrix(1,0,0,1,-9.78536319732666,0)" style="transform:matrix(1, 0, 0, 1, -9.78536, 0);animation-play-state:paused" ></circle>
<circle cx="469.67677941649816" cy="710.6682819096314" r="68.73335955471481" fill="#60a363" transform="matrix(1,0,0,1,-8.632266998291016,0)" style="transform:matrix(1, 0, 0, 1, -8.63227, 0);animation-play-state:paused" ></circle>
<circle cx="538.410138971213" cy="713.3649899678984" r="86.91012577992302" fill="#60a363" transform="matrix(1,0,0,1,-6.180026531219482,0)" style="transform:matrix(1, 0, 0, 1, -6.18003, 0);animation-play-state:paused" ></circle>
<circle cx="625.3202647511359" cy="696.3337337850064" r="84.75181591135315" fill="#60a363" transform="matrix(1,0,0,1,-3.088648796081543,0)" style="transform:matrix(1, 0, 0, 1, -3.08865, 0);animation-play-state:paused" ></circle>
<circle cx="710.072080662489" cy="695.0202446442727" r="50.735541662946375" fill="#60a363" transform="matrix(1,0,0,1,-0.9663257598876953,0)" style="transform:matrix(1, 0, 0, 1, -0.966326, 0);animation-play-state:paused" ></circle>
<circle cx="760.8076223254354" cy="667.8362732115012" r="87.8468461841657" fill="#60a363" transform="matrix(1,0,0,1,-0.09182167053222656,0)" style="transform:matrix(1, 0, 0, 1, -0.0918217, 0);animation-play-state:paused" ></circle>
<circle cx="848.6544685096011" cy="646.2420989958762" r="92.52764474166575" fill="#60a363" transform="matrix(1,0,0,1,-0.09182170033454895,0)" style="transform:matrix(1, 0, 0, 1, -0.0918217, 0);animation-play-state:paused" ></circle>
<circle cx="941.1821132512669" cy="682.6853645645178" r="35.6382810871623" fill="#60a363" transform="matrix(1,0,0,1,-0.9663257002830505,0)" style="transform:matrix(1, 0, 0, 1, -0.966326, 0);animation-play-state:paused" ></circle>
<circle cx="976.8203943384292" cy="633.3357679938135" r="78.83965991029353" fill="#60a363" transform="matrix(1,0,0,1,-3.0886495113372803,0)" style="transform:matrix(1, 0, 0, 1, -3.08865, 0);animation-play-state:paused" ></circle>
<circle cx="1055.6600542487226" cy="637.4842848151081" r="64.03326022126879" fill="#60a363" transform="matrix(1,0,0,1,-6.180027961730957,0)" style="transform:matrix(1, 0, 0, 1, -6.18003, 0);animation-play-state:paused" ></circle></g></svg>