<?xml version="1.0" standalone="no"?>
<!DOCTYPE svg PUBLIC "-//W3C//DTD SVG 20010904//EN"
 "http://www.w3.org/TR/2001/REC-SVG-20010904/DTD/svg10.dtd">
<svg version="1.0" xmlns="http://www.w3.org/2000/svg"
 width="741.000000pt" height="705.000000pt" viewBox="0 0 741.000000 705.000000"
 preserveAspectRatio="xMidYMid meet">

<g transform="translate(0.000000,705.000000) scale(0.100000,-0.100000)"
fill="#000000" stroke="none">
<path d="M3338 5265 c-5 -5 -8 -41 -8 -82 l0 -73 166 0 166 0 34 -34 34 -34 0
-816 0 -815 46 19 c58 25 63 25 74 -5 11 -28 12 -29 62 -15 34 10 37 13 32 39
-6 27 -4 29 35 36 46 8 47 9 56 120 10 126 44 415 54 470 6 28 33 141 60 252
28 111 51 206 51 212 0 5 4 20 9 33 l9 24 523 -76 524 -75 48 -112 c95 -221
126 -406 107 -633 -7 -80 -15 -151 -20 -159 -5 -9 -35 36 -92 135 -149 261
-155 274 -138 284 58 33 145 108 148 128 5 30 -14 52 -45 52 -34 0 -411 -268
-419 -298 -7 -26 19 -62 46 -62 9 0 51 25 93 55 l76 54 34 -57 c142 -244 267
-471 267 -485 0 -15 -52 -231 -91 -379 l-10 -38 -118 0 -118 0 -32 263 c-17
144 -36 287 -41 316 -29 163 -158 278 -323 289 l-72 4 -2 82 c-1 55 -8 99 -23
138 -44 117 -169 214 -291 225 -50 5 -58 3 -68 -15 -21 -40 -61 -282 -84 -509
l-23 -233 57 0 c31 0 71 -3 88 -6 29 -6 31 -9 26 -35 -6 -26 -4 -29 37 -39 26
-8 44 -8 46 -2 1 5 9 17 16 27 13 18 15 18 69 -4 64 -26 207 -108 207 -119 0
-4 -7 -16 -15 -26 -14 -18 -12 -23 17 -53 l32 -33 24 23 24 22 35 -40 c44 -51
106 -144 123 -185 13 -32 9 -41 -24 -53 -4 -1 -2 -22 5 -45 11 -39 15 -43 43
-40 29 3 31 0 44 -47 7 -27 16 -94 19 -147 l6 -96 -29 -4 c-18 -2 -30 -10 -32
-20 -3 -17 14 -18 245 -18 l248 0 13 66 c10 52 20 73 47 101 31 32 33 37 19
48 -26 18 18 95 132 234 2 2 13 -4 24 -14 20 -18 21 -18 45 5 22 20 23 25 10
43 -13 19 -11 23 37 55 69 47 175 95 193 88 8 -3 15 -12 15 -21 0 -16 12 -18
48 -9 18 5 22 13 20 33 -3 24 0 26 52 34 30 4 92 4 138 1 82 -6 82 -6 82 -34
0 -21 6 -29 25 -34 30 -8 45 -1 45 20 0 8 8 14 17 14 23 0 172 -74 208 -103
26 -22 28 -27 16 -41 -12 -14 -11 -20 9 -41 22 -23 25 -24 42 -8 17 15 20 15
43 -7 14 -13 39 -45 57 -71 28 -41 38 -49 65 -49 l31 0 6 88 c11 144 14 154
90 239 l69 78 -2 110 c-2 126 -12 177 -48 258 l-26 58 22 22 c29 31 30 108 1
137 -17 17 -33 20 -111 20 -74 0 -98 4 -124 20 l-32 20 -33 -25 c-19 -14 -35
-25 -37 -25 -2 0 -3 17 -1 38 l3 37 -55 12 c-62 13 -490 17 -490 5 0 -4 20
-28 45 -52 41 -40 55 -47 138 -67 l92 -21 -110 -1 -110 0 -65 74 -65 75 -202
0 -202 0 -6 48 c-3 26 -20 99 -36 162 -17 63 -32 125 -36 137 -4 18 6 30 58
68 35 26 94 65 132 87 64 38 68 40 91 24 28 -18 31 -30 51 -181 12 -97 17
-113 40 -132 69 -61 163 8 131 95 -94 250 -126 302 -201 321 -60 15 -87 4
-226 -89 l-123 -82 -32 64 c-18 34 -33 66 -34 70 0 3 27 4 59 1 57 -5 62 -4
90 25 24 24 31 39 31 70 0 45 -27 87 -62 95 -24 6 -463 75 -1008 158 -348 53
-372 53 -403 6 -8 -12 -39 -128 -70 -257 -75 -313 -94 -405 -109 -530 -12 -97
-13 -67 -18 415 l-5 520 -24 53 c-27 59 -75 106 -138 134 -34 15 -77 20 -210
25 -93 3 -171 2 -175 -2z m1092 -565 c69 -10 253 -37 410 -60 157 -22 296 -42
310 -45 22 -5 70 -61 70 -83 0 -4 -147 14 -327 40 -181 26 -402 57 -493 68
-91 12 -166 23 -168 25 -2 2 -1 22 3 45 7 39 8 40 38 35 18 -3 88 -14 157 -25z
m1446 -984 c7 -31 -1 -46 -26 -46 -32 0 -50 -11 -50 -32 0 -19 4 -20 55 -13
50 6 55 5 55 -13 0 -13 -10 -22 -32 -28 -23 -7 -33 -16 -33 -29 0 -20 22 -25
69 -14 39 8 27 -20 -13 -31 -41 -11 -51 -26 -30 -47 7 -7 21 -8 42 -2 44 13
44 13 56 -22 16 -46 16 -47 -41 -58 -72 -15 -156 -56 -195 -94 l-33 -31 0 236
0 237 28 4 c15 2 53 5 84 6 53 1 58 -1 64 -23z m389 -142 c50 -92 92 -171 94
-176 2 -6 -9 -7 -29 -3 -18 4 -91 7 -162 7 l-130 0 -14 34 c-16 39 -12 54 15
54 10 0 24 7 31 16 22 25 -7 46 -47 35 -24 -7 -33 -6 -37 5 -3 8 0 17 7 19 61
22 68 26 65 43 -4 18 -35 22 -76 8 -20 -7 -23 -5 -20 10 2 14 18 22 53 29 41
9 51 15 53 34 4 26 11 25 -112 9 -11 -2 -21 6 -27 20 l-8 22 127 0 127 0 90
-166z m465 -159 l0 -225 -80 0 -80 0 0 225 0 225 80 0 80 0 0 -225z m108 199
c43 -30 52 -65 52 -194 0 -92 -4 -130 -16 -156 -15 -32 -57 -64 -84 -64 -7 0
-10 72 -10 215 0 199 1 215 18 215 10 0 28 -7 40 -16z"/>
<path d="M1400 3602 c0 -5 8 -16 18 -25 17 -15 57 -17 375 -17 l357 0 -12 25
-11 25 -364 0 c-199 0 -363 -4 -363 -8z"/>
<path d="M1075 3495 c-71 -13 -131 -24 -132 -24 -3 -1 43 -101 48 -106 3 -3
55 9 227 50 17 4 22 12 22 39 0 19 -7 42 -16 50 -8 9 -16 16 -17 15 -1 -1 -60
-12 -132 -24z"/>
<path d="M1680 3315 l145 -145 258 2 257 3 -30 64 -30 63 37 -4 c21 -3 124
-17 229 -33 182 -27 192 -29 207 -54 48 -83 297 -544 297 -551 0 -5 -26 -12
-57 -15 -32 -4 -66 -9 -75 -11 -14 -4 -32 25 -90 141 l-73 145 -350 -2 -350
-3 0 -290 0 -290 360 -3 360 -2 50 97 50 98 225 37 c124 21 230 36 236 34 6
-3 14 -29 18 -59 3 -31 9 -62 12 -70 4 -11 -4 -17 -25 -22 -17 -4 -31 -8 -31
-9 0 -10 41 -118 54 -144 15 -29 18 -30 41 -20 14 6 27 9 28 7 2 -2 21 -30 43
-62 21 -32 44 -65 49 -73 7 -11 5 -19 -9 -29 -26 -19 -17 -35 55 -95 l63 -52
18 22 17 21 80 -38 c55 -26 79 -43 77 -53 -2 -8 -5 -21 -7 -29 -4 -14 64 -41
143 -55 35 -6 37 -5 40 21 l3 28 92 3 92 3 3 -28 c3 -25 6 -28 37 -25 19 2 59
11 90 21 53 16 56 19 53 47 -2 27 3 32 74 68 70 36 78 38 89 23 20 -27 38 -20
104 39 l62 57 -22 23 -22 23 30 38 c16 21 38 53 49 71 20 35 26 37 54 22 16
-9 22 -5 36 21 27 52 55 142 47 150 -5 4 -17 9 -28 11 -11 2 -19 10 -17 18 2
8 6 48 10 89 7 74 8 76 36 79 l29 4 -7 71 c-9 108 -13 117 -45 111 -26 -6 -29
-2 -53 63 -14 37 -28 75 -32 84 -5 11 1 19 19 27 24 11 25 13 11 40 -8 16 -34
52 -57 81 l-41 53 -21 -20 -20 -21 -67 62 c-64 59 -67 63 -53 84 14 21 13 24
-24 45 -21 13 -60 33 -86 45 l-48 23 -10 -29 -10 -29 -60 19 c-34 11 -72 19
-85 19 -21 0 -24 5 -24 35 l0 35 -95 0 -95 0 0 -34 c0 -32 -2 -34 -45 -41 -25
-3 -63 -12 -83 -19 -36 -13 -37 -13 -52 15 l-15 28 -71 -34 c-88 -42 -103 -58
-81 -83 15 -16 11 -22 -52 -79 l-68 -62 -21 21 -20 21 -47 -64 c-69 -93 -70
-96 -40 -115 23 -15 23 -18 11 -42 -7 -15 -21 -51 -31 -80 -16 -50 -19 -54
-46 -50 -27 4 -29 2 -39 -44 -5 -27 -10 -57 -10 -67 0 -15 -12 -21 -57 -29
-43 -8 -61 -7 -70 1 -11 11 -293 521 -293 530 0 2 118 -13 263 -34 144 -21
264 -39 267 -39 7 1 73 90 69 94 -2 1 -125 20 -274 40 -148 21 -412 58 -585
83 -173 25 -331 47 -351 50 -26 4 -40 12 -48 29 l-11 24 -332 0 -333 0 145
-145z m2501 -235 c84 -16 177 -66 239 -130 181 -184 173 -476 -18 -650 -290
-267 -763 -60 -762 335 1 123 44 228 130 315 113 113 256 159 411 130z"/>
<path d="M3955 2988 c-47 -17 -74 -35 -126 -87 -69 -69 -99 -127 -113 -219 -6
-43 -6 -43 21 -40 25 3 29 8 35 50 20 143 163 268 309 272 32 0 59 4 59 8 0 3
3 13 6 22 9 24 -114 20 -191 -6z"/>
<path d="M4058 2810 c-45 -8 -103 -51 -124 -93 -21 -40 -22 -123 -1 -162 29
-58 103 -105 162 -105 59 0 132 47 162 103 19 38 19 127 -1 166 -34 64 -120
104 -198 91z m81 -105 c76 -39 43 -155 -44 -155 -89 0 -118 116 -40 158 27 15
51 15 84 -3z"/>
<path d="M4390 2489 c-32 -67 -115 -142 -181 -164 -58 -19 -169 -22 -214 -5
-22 8 -30 8 -37 -2 -15 -24 -8 -36 25 -47 176 -54 372 29 452 194 28 56 27 75
-4 75 -11 0 -26 -18 -41 -51z"/>
<path d="M663 3203 c-394 -458 -384 -445 -377 -467 4 -12 8 -23 11 -26 2 -2
55 23 117 55 l113 60 196 228 196 228 -31 64 c-18 36 -35 65 -39 65 -4 0 -88
-93 -186 -207z"/>
<path d="M1270 3323 c-79 -13 -147 -26 -149 -29 -3 -2 7 -29 21 -58 l26 -53
99 19 c54 10 122 23 151 29 l52 10 0 43 c0 44 -14 67 -39 65 -9 -1 -81 -12
-161 -26z"/>
<path d="M6998 3207 c-127 -144 -114 -120 -122 -239 l-7 -108 189 0 189 0 7
38 c3 20 6 58 6 85 l0 47 -135 0 -135 0 0 25 0 25 125 0 c142 0 142 0 95 72
-29 44 -75 81 -131 105 -25 11 -30 8 -81 -50z"/>
<path d="M830 3023 c-102 -119 -247 -288 -323 -376 -122 -140 -138 -163 -132
-186 4 -14 10 -30 15 -34 4 -5 53 14 108 42 l100 52 239 277 c131 152 243 283
247 291 8 13 -51 152 -63 150 -3 0 -89 -98 -191 -216z"/>
<path d="M1465 3137 c-99 -16 -181 -31 -183 -33 -2 -1 11 -30 28 -64 26 -52
35 -61 53 -57 12 3 91 16 175 28 l152 24 0 55 c0 54 -12 81 -34 79 -6 -1 -92
-15 -191 -32z"/>
<path d="M6068 3163 c-22 -3 -28 -10 -28 -28 0 -19 -7 -26 -27 -31 -16 -3 -47
-11 -71 -18 -41 -13 -43 -13 -55 11 l-13 23 -63 -31 c-66 -33 -81 -50 -62 -73
9 -10 -2 -24 -47 -64 -55 -48 -60 -50 -76 -34 -16 16 -19 15 -46 -18 -16 -19
-38 -52 -50 -72 l-20 -37 21 -6 c13 -5 19 -13 16 -23 -3 -10 -13 -43 -23 -75
-18 -54 -21 -58 -46 -53 -26 5 -27 3 -33 -42 -3 -26 -8 -64 -10 -84 -5 -35 -3
-38 20 -38 27 0 29 -6 40 -97 5 -46 3 -52 -16 -58 -25 -8 -22 -36 12 -115 19
-44 23 -48 41 -39 23 12 21 14 72 -59 34 -50 36 -55 22 -71 -15 -17 -14 -20
11 -46 16 -15 43 -39 61 -53 31 -23 34 -24 51 -8 17 16 22 15 80 -16 52 -28
61 -37 59 -58 -3 -21 3 -27 35 -37 21 -7 56 -16 77 -19 35 -6 40 -4 45 17 6
23 11 24 80 24 69 1 74 -1 80 -22 6 -27 13 -28 89 -8 75 20 77 21 66 49 -8 21
-3 26 62 57 64 31 70 32 79 16 6 -9 14 -17 19 -17 4 0 34 23 65 51 52 49 55
53 39 70 -15 17 -13 22 27 83 38 58 45 64 62 54 26 -13 36 0 62 77 20 57 18
65 -17 77 -13 5 6 153 20 154 6 1 17 2 22 3 11 1 12 92 1 131 -6 20 -12 24
-34 22 -17 -2 -27 1 -27 10 0 7 -11 39 -24 71 -24 57 -24 57 -4 72 21 14 21
14 -5 57 -49 81 -61 92 -84 77 -19 -11 -27 -7 -77 35 -46 40 -54 51 -46 66 6
10 10 21 10 23 0 7 -66 45 -107 62 -32 14 -34 13 -45 -9 -10 -23 -12 -24 -47
-12 -20 7 -53 16 -75 20 -33 6 -38 10 -34 31 4 20 0 23 -40 29 -25 3 -50 5
-56 5 -6 -1 -23 -4 -38 -6z m112 -304 c126 -20 243 -109 298 -227 56 -120 37
-290 -44 -392 -151 -191 -415 -210 -583 -42 -182 182 -142 485 81 616 36 21
119 47 178 55 3 1 34 -4 70 -10z"/>
<path d="M6019 2786 c-118 -42 -211 -157 -221 -271 -3 -37 -1 -40 22 -40 22 0
26 5 32 48 7 52 42 119 80 154 50 46 109 68 183 68 39 0 82 -3 98 -8 23 -6 29
-4 36 15 7 20 4 25 -23 35 -42 16 -162 15 -207 -1z"/>
<path d="M6053 2612 c-99 -54 -111 -199 -21 -263 32 -23 93 -35 132 -25 42 10
95 64 107 109 34 129 -102 241 -218 179z m122 -87 c14 -13 25 -36 25 -50 0
-34 -42 -75 -76 -75 -37 0 -74 36 -74 72 0 36 40 78 75 78 14 0 37 -11 50 -25z"/>
<path d="M5822 2381 c-22 -13 28 -100 88 -154 93 -84 232 -106 341 -54 81 37
91 48 73 72 -12 16 -17 17 -32 7 -71 -52 -199 -67 -274 -34 -60 26 -120 82
-143 132 -18 40 -29 47 -53 31z"/>
<path d="M1857 3063 c-4 -3 -7 -213 -7 -465 l0 -458 415 0 415 0 20 40 c11 21
20 42 20 45 0 3 -171 5 -380 5 l-380 0 0 395 0 395 370 0 c204 0 370 3 370 6
0 3 -5 14 -10 25 -10 18 -26 19 -419 19 -224 0 -411 -3 -414 -7z"/>
<path d="M1029 2867 c-86 -100 -243 -283 -350 -406 -264 -304 -241 -272 -227
-312 6 -19 14 -38 18 -42 4 -5 39 7 78 27 76 38 43 3 539 579 l172 200 -35 69
c-19 37 -35 68 -37 68 -1 0 -72 -82 -158 -183z"/>
<path d="M1588 2922 c-86 -15 -159 -30 -163 -33 -3 -4 19 -57 49 -118 31 -61
56 -115 56 -119 0 -5 -19 -16 -42 -26 -51 -20 -46 -25 -108 107 -25 53 -48 96
-52 97 -6 0 -154 -169 -456 -520 -73 -85 -170 -197 -215 -249 -116 -133 -110
-123 -91 -170 9 -23 20 -41 25 -41 8 0 406 204 741 381 l188 99 115 0 115 0 0
310 c0 171 -1 310 -2 309 -2 0 -74 -13 -160 -27z"/>
</g>
</svg>
