<?xml version="1.0" standalone="no"?>
<!DOCTYPE svg PUBLIC "-//W3C//DTD SVG 20010904//EN"
 "http://www.w3.org/TR/2001/REC-SVG-20010904/DTD/svg10.dtd">
<svg version="1.0" xmlns="http://www.w3.org/2000/svg"
 width="281.000000pt" height="158.000000pt" viewBox="0 0 281.000000 158.000000"
 preserveAspectRatio="xMidYMid meet">

<g transform="translate(0.000000,158.000000) scale(0.100000,-0.100000)"
fill="#000000" stroke="none">
<path d="M1302 1303 c-7 -3 -17 -15 -22 -28 -6 -17 -22 -25 -71 -35 -67 -14
-204 -76 -256 -116 l-33 -25 0 -174 0 -175 -297 -2 -298 -3 0 -30 0 -30 136
-3 c121 -2 138 -5 154 -22 23 -25 47 -25 70 0 16 18 31 20 127 20 108 0 109 0
163 -36 l55 -37 0 -88 0 -89 -356 0 c-280 0 -355 -3 -351 -12 6 -19 2178 -19
2184 -1 4 10 -73 13 -349 15 l-353 3 -3 85 -2 85 58 38 c59 37 59 37 168 37
98 0 110 -2 122 -20 16 -26 57 -26 75 0 12 17 27 20 148 22 l134 3 3 33 3 32
-295 0 -296 0 0 170 c0 170 0 171 -25 194 -41 38 -154 93 -244 119 -54 16 -87
31 -94 43 -6 10 -15 22 -21 26 -12 9 -214 9 -234 1z m222 -75 c19 -87 36 -203
32 -214 -4 -11 -35 -14 -139 -14 -74 0 -136 2 -139 5 -2 3 4 59 15 125 l20
120 103 0 c99 0 104 -1 108 -22z m-257 -30 c-3 -13 -11 -54 -17 -93 -7 -38
-18 -80 -26 -92 -10 -16 -14 -56 -14 -138 0 -107 1 -115 19 -115 46 0 51 -8
51 -91 l0 -79 135 0 135 0 0 73 c0 80 9 97 52 97 l28 0 0 119 c0 90 -3 120
-13 124 -9 3 -19 37 -26 84 -7 43 -15 91 -18 107 -6 29 -6 29 34 23 52 -9 175
-60 235 -98 l48 -31 0 -170 0 -169 -42 3 -43 3 -3 68 -3 67 -69 0 -70 0 0 -64
c0 -56 3 -66 20 -71 18 -6 20 -15 20 -86 0 -46 -4 -79 -10 -79 -6 0 -10 32
-10 76 l0 75 -52 -3 -53 -3 -5 -90 -5 -90 -40 -7 c-50 -9 -156 -9 -215 0 l-45
7 -5 90 -5 90 -50 0 -50 0 -3 -72 c-2 -40 -7 -73 -13 -73 -6 0 -9 31 -7 78 3
69 5 78 26 87 19 9 22 17 22 72 l0 63 -75 0 -75 0 0 -70 0 -70 -40 0 -40 0 0
169 0 170 28 19 c65 46 223 111 271 112 19 0 22 -4 18 -22z m241 -425 l-3
-128 -84 -3 c-61 -2 -87 1 -92 10 -10 15 -12 232 -2 241 3 4 46 7 95 7 l89 0
-3 -127z m-208 61 c0 -21 -4 -25 -22 -22 -15 2 -24 11 -26 26 -3 18 1 22 22
22 21 0 26 -5 26 -26z m280 0 c0 -21 -4 -25 -22 -22 -15 2 -24 11 -26 26 -3
18 1 22 22 22 21 0 26 -5 26 -26z m-550 -169 c0 -19 -11 -19 -36 0 -18 14 -18
14 9 15 17 0 27 -5 27 -15z m814 0 c-25 -19 -44 -19 -44 0 0 10 10 15 32 15
30 0 31 -1 12 -15z m-694 -171 c0 -41 -4 -63 -10 -59 -5 3 -10 33 -10 66 0 33
4 59 10 59 6 0 10 -29 10 -66z m550 0 c0 -41 -4 -63 -10 -59 -18 11 -12 125 7
125 2 0 3 -30 3 -66z m-235 23 c22 2 55 6 73 8 l33 4 -3 -47 -3 -47 -150 0
-150 0 -3 33 c-6 56 -2 58 84 51 44 -3 97 -4 119 -2z"/>
<path d="M1340 755 c0 -50 4 -85 10 -85 6 0 10 35 10 85 0 50 -4 85 -10 85 -6
0 -10 -35 -10 -85z"/>
<path d="M1377 834 c-4 -4 -7 -42 -7 -85 l0 -78 30 1 30 1 0 84 c0 103 -19
113 -22 11 l-2 -73 -3 65 c-4 63 -12 87 -26 74z"/>
<path d="M1440 755 c0 -50 4 -85 10 -85 6 0 10 35 10 85 0 50 -4 85 -10 85 -6
0 -10 -35 -10 -85z"/>
<path d="M1470 755 c0 -50 4 -85 10 -85 6 0 10 35 10 85 0 50 -4 85 -10 85 -6
0 -10 -35 -10 -85z"/>
<path d="M485 543 c-82 -42 -144 -78 -136 -81 8 -2 78 29 157 69 l144 74 140
-73 c77 -41 148 -72 157 -70 18 4 -276 158 -299 157 -7 0 -80 -34 -163 -76z"/>
<path d="M2035 549 c-76 -38 -144 -74 -149 -79 -24 -24 23 -6 156 61 l142 71
148 -73 c81 -40 150 -70 154 -67 6 7 -288 159 -303 157 -5 0 -71 -32 -148 -70z"/>
<path d="M553 532 c-51 -31 -93 -60 -93 -64 0 -19 34 -4 109 47 l80 56 83 -56
c78 -52 108 -65 108 -47 0 6 -167 111 -189 119 -3 1 -48 -24 -98 -55z"/>
<path d="M2090 533 c-99 -63 -111 -73 -87 -73 10 0 52 23 94 52 43 28 82 51
88 51 6 0 45 -23 88 -51 42 -29 84 -52 94 -52 11 0 13 3 8 9 -15 15 -186 121
-194 120 -3 -1 -44 -26 -91 -56z"/>
<path d="M607 512 c-42 -43 -45 -52 -17 -52 13 0 26 12 37 35 9 19 20 35 23
35 3 0 14 -16 23 -35 11 -23 24 -35 37 -35 11 0 20 4 20 8 0 9 -72 82 -81 82
-3 0 -22 -17 -42 -38z"/>
<path d="M2136 505 c-34 -41 -35 -45 -16 -45 13 0 28 13 41 35 12 19 22 35 24
35 2 0 12 -16 24 -35 11 -19 27 -35 36 -35 8 0 15 3 15 6 0 14 -63 84 -75 84
-7 0 -29 -20 -49 -45z"/>
</g>
</svg>
