<?xml version="1.0" standalone="no"?>
<!DOCTYPE svg PUBLIC "-//W3C//DTD SVG 20010904//EN"
 "http://www.w3.org/TR/2001/REC-SVG-20010904/DTD/svg10.dtd">
<svg version="1.0" xmlns="http://www.w3.org/2000/svg"
 width="139.000000pt" height="119.000000pt" viewBox="0 0 139.000000 119.000000"
 preserveAspectRatio="xMidYMid meet">

<g transform="translate(0.000000,119.000000) scale(0.100000,-0.100000)"
fill="#000000" stroke="none">
<path d="M741 747 c-6 -8 -14 -46 -17 -86 -4 -39 -11 -74 -15 -77 -5 -3 -9
-43 -9 -89 0 -46 -3 -86 -7 -88 -5 -3 -7 34 -5 81 2 53 -3 112 -12 151 -10 44
-12 69 -5 77 18 22 -12 29 -134 32 -78 3 -128 0 -147 -8 -32 -13 -38 -25 -16
-33 8 -3 12 -16 10 -29 -14 -99 -13 -98 -44 -98 -20 0 -31 -6 -35 -20 -3 -11
-19 -29 -36 -40 -16 -12 -29 -28 -29 -36 0 -19 49 -18 56 1 6 15 64 55 80 55
5 0 -5 -9 -22 -19 -93 -57 -110 -171 -37 -252 61 -68 153 -75 220 -16 45 39
63 76 63 129 0 27 3 38 9 30 7 -12 3 -49 -10 -102 -6 -22 71 -27 86 -6 8 10
33 16 81 18 l69 3 20 -40 c24 -49 80 -80 125 -70 36 8 87 57 92 88 2 12 5 20
8 17 10 -10 70 42 70 61 0 18 -6 20 -45 18 -29 -2 -50 2 -62 13 -10 8 -27 20
-38 26 -11 6 -15 12 -9 12 6 0 23 -9 37 -20 14 -11 28 -20 31 -20 3 0 6 27 6
61 0 60 0 60 -37 76 -21 9 -89 21 -151 28 -62 7 -115 15 -118 17 -2 3 -5 41
-6 86 -2 45 -4 82 -4 82 -1 0 -6 -6 -13 -13z m-261 -103 l0 -65 -37 3 c-37 3
-38 4 -35 38 6 79 12 90 43 90 l29 0 0 -66z m160 9 c7 -32 14 -61 17 -65 2 -5
-1 -8 -6 -8 -6 0 -11 9 -11 20 0 29 -15 25 -41 -12 l-23 -31 27 7 c20 5 27 3
27 -8 0 -7 7 -19 15 -26 16 -14 21 -80 5 -80 -5 0 -17 16 -26 36 -16 34 -61
75 -96 87 -15 5 -18 18 -18 72 l0 65 59 0 60 0 11 -57z m-113 -126 c24 -13 73
-74 73 -90 0 -6 -10 5 -23 24 -12 18 -38 44 -56 56 -36 24 -31 31 6 10z m511
-6 c8 -4 12 -21 10 -36 l-3 -28 -17 36 c-18 37 -15 44 10 28z m-194 -87 c-19
-19 -34 -40 -34 -45 0 -5 -5 -9 -11 -9 -14 0 16 49 45 72 35 29 35 20 0 -18z
m-353 -3 c33 -33 35 -50 14 -90 -16 -32 -33 -41 -76 -41 -67 0 -97 97 -43 139
37 29 70 26 105 -8z m396 -2 c-11 -6 -25 -25 -33 -43 -7 -17 -13 -24 -14 -15
0 20 37 69 53 69 7 0 4 -5 -6 -11z m115 -56 c38 -34 7 -103 -46 -103 -40 0
-63 32 -56 80 6 41 67 55 102 23z"/>
<path d="M408 419 c-22 -12 -24 -62 -4 -79 21 -16 56 -9 72 15 28 42 -24 91
-68 64z"/>
<path d="M927 363 c-12 -12 -7 -50 8 -63 32 -27 82 23 55 55 -13 15 -51 20
-63 8z"/>
</g>
</svg>
