<?xml version="1.0" standalone="no"?>
<!DOCTYPE svg PUBLIC "-//W3C//DTD SVG 20010904//EN"
 "http://www.w3.org/TR/2001/REC-SVG-20010904/DTD/svg10.dtd">
<svg version="1.0" xmlns="http://www.w3.org/2000/svg"
 width="151.000000pt" height="80.000000pt" viewBox="0 0 151.000000 80.000000"
 preserveAspectRatio="xMidYMid meet">

<g transform="translate(0.000000,80.000000) scale(0.100000,-0.100000)"
fill="#000000" stroke="none">
<path d="M600 730 l21 -30 170 0 c94 0 190 -5 215 -11 41 -11 48 -10 66 9 11
11 18 24 14 30 -14 22 -104 32 -301 32 l-206 0 21 -30z"/>
<path d="M1238 683 c-32 -2 -58 -7 -58 -11 0 -4 -20 -6 -45 -4 -43 4 -45 3
-45 -23 0 -26 2 -27 38 -22 20 3 62 8 93 11 30 2 76 7 100 11 l45 7 19 -41
c24 -55 55 -57 55 -3 0 78 -5 82 -79 80 -36 -1 -92 -3 -123 -5z"/>
<path d="M592 667 c9 -7 24 -17 34 -22 13 -9 18 -29 21 -90 l4 -80 -39 -17
c-33 -15 -70 -18 -255 -18 l-216 0 -26 -37 c-31 -47 -33 -100 -4 -137 l20 -26
484 0 484 0 20 26 c23 29 28 91 10 127 -10 22 -10 22 6 2 12 -15 15 -36 13
-78 -2 -49 0 -61 16 -73 29 -21 52 -17 75 12 37 47 19 156 -26 167 -15 3 -12
6 10 17 26 13 28 17 22 49 -3 20 -12 41 -19 46 -7 6 -17 24 -23 40 -8 26 -15
30 -52 33 -24 2 -61 -4 -82 -12 -53 -21 -61 -20 -21 4 22 13 32 27 32 43 0 21
-6 25 -46 31 -26 3 -140 6 -253 6 -164 -1 -203 -3 -189 -13z m223 -28 c4 -6 9
-46 12 -90 l6 -79 -75 0 -75 0 -7 68 c-4 37 -9 77 -13 90 -5 21 -3 22 70 22
43 0 79 -5 82 -11z m83 -26 c3 -32 4 -33 55 -35 l52 -1 -55 -6 c-49 -5 -55 -9
-58 -31 -7 -45 -37 -67 -37 -27 -1 12 -4 48 -8 80 l-7 58 27 -3 c23 -2 29 -8
31 -35z m296 -79 c4 -9 5 -18 4 -18 -2 -1 -22 -14 -45 -29 -52 -33 -57 -33
-72 -1 -14 31 -15 29 29 48 46 20 76 20 84 0z m-234 -14 c0 -13 -7 -20 -20
-20 -13 0 -20 7 -20 20 0 13 7 20 20 20 13 0 20 -7 20 -20z m-2 -52 c-3 -7
-11 -13 -18 -13 -7 0 -15 6 -17 13 -3 7 4 12 17 12 13 0 20 -5 18 -12z m-678
-58 c0 -5 -25 -10 -55 -10 -30 0 -55 5 -55 10 0 6 25 10 55 10 30 0 55 -4 55
-10z m150 0 c0 -6 -28 -10 -65 -10 -37 0 -65 4 -65 10 0 6 28 10 65 10 37 0
65 -4 65 -10z m180 0 c0 -6 -33 -10 -80 -10 -47 0 -80 4 -80 10 0 6 33 10 80
10 47 0 80 -4 80 -10z m170 0 c0 -6 -32 -10 -76 -10 -47 0 -73 4 -69 10 3 6
37 10 76 10 39 0 69 -4 69 -10z m190 0 c0 -6 -35 -10 -85 -10 -50 0 -85 4 -85
10 0 6 35 10 85 10 50 0 85 -4 85 -10z m110 0 c0 -5 -20 -10 -45 -10 -25 0
-45 5 -45 10 0 6 20 10 45 10 25 0 45 -4 45 -10z m-922 -22 c20 -20 14 -28
-18 -28 -28 0 -30 2 -20 20 12 23 21 25 38 8z m92 -18 c0 -5 -13 -10 -30 -10
-16 0 -30 5 -30 10 0 6 14 10 30 10 17 0 30 -4 30 -10z m150 0 c0 -6 -28 -10
-65 -10 -37 0 -65 4 -65 10 0 6 28 10 65 10 37 0 65 -4 65 -10z m185 0 c-3 -5
-42 -10 -86 -10 -46 0 -79 4 -79 10 0 6 35 10 86 10 54 0 83 -4 79 -10z m165
0 c0 -6 -32 -10 -76 -10 -47 0 -73 4 -69 10 3 6 37 10 76 10 39 0 69 -4 69
-10z m185 0 c-3 -5 -42 -10 -86 -10 -51 0 -78 4 -74 10 3 6 42 10 86 10 51 0
78 -4 74 -10z m125 0 c0 -5 -25 -10 -56 -10 -34 0 -53 4 -49 10 3 6 28 10 56
10 27 0 49 -4 49 -10z m55 0 c3 -5 -3 -10 -14 -10 -12 0 -21 5 -21 10 0 6 6
10 14 10 8 0 18 -4 21 -10z m125 -40 c0 -27 -4 -50 -10 -50 -5 0 -10 23 -10
50 0 28 5 50 10 50 6 0 10 -22 10 -50z m-1087 -27 c-7 -2 -21 -2 -30 0 -10 3
-4 5 12 5 17 0 24 -2 18 -5z m170 0 c-18 -2 -48 -2 -65 0 -18 2 -4 4 32 4 36
0 50 -2 33 -4z m175 0 c-21 -2 -57 -2 -80 0 -24 2 -7 4 37 4 44 0 63 -2 43 -4z
m170 0 c-21 -2 -55 -2 -75 0 -21 2 -4 4 37 4 41 0 58 -2 38 -4z m185 0 c-24
-2 -62 -2 -85 0 -24 2 -5 4 42 4 47 0 66 -2 43 -4z m165 0 c-21 -2 -55 -2 -75
0 -21 2 -4 4 37 4 41 0 58 -2 38 -4z m100 -10 c-5 -25 -25 -27 -38 -4 -10 19
-8 21 15 21 19 0 26 -5 23 -17z m-48 -23 c0 -6 -165 -10 -455 -10 -272 0 -455
4 -455 9 0 6 183 10 455 10 290 0 455 -3 455 -9z"/>
</g>
</svg>
