<svg xmlns="http://www.w3.org/2000/svg" viewBox="0 0 430.93 334.58"><defs><style>.cls-1{fill:#d5e5ef;}.cls-2{fill:#142728;}.cls-3{fill:#1f373a;}.cls-4{fill:#4ea8a8;}.cls-5{fill:#dd5900;}.cls-6{fill:#cc5200;}.cls-7{fill:#ead1b7;}.cls-8{fill:#c69c7f;}.cls-9{fill:#ddb897;}.cls-10{fill:#d1dadb;}.cls-11{fill:#fff;}.cls-12{fill:#284549;}.cls-13{fill:#3a7377;}.cls-14{fill:#398e8e;}.cls-15{fill:#ef8e2e;}.cls-16{fill:#e1e5e5;}.cls-17{fill:none;}</style></defs><g id="Layer_2" data-name="Layer 2"><g id="Objects"><path class="cls-1" d="M7.8,124.76c-23.67,55.8,9.54,125.53,59,160.54,41.26,29.19,94.3,35.84,144.84,35.61,43.52-.2,87.16-4.84,129.22-16,27.16-7.22,54.83-18,73.14-39.31s23.91-55.75,5.87-77.32c-15.47-18.48-44.33-24.23-54.72-46-5.46-11.44-4.39-24.75-5.09-37.41s-4.31-26.72-15.27-33.11c-9.05-5.28-20.59-3.77-30.33-7.66-14.2-5.66-21.4-21.05-31.28-32.7C263.94,8.67,232.42-.63,202.64.2,202.64.2,65.16-10.44,7.8,124.76Z"/><path class="cls-2" d="M347.7,260.7a44.87,44.87,0,0,1,18.82,5.62,41.85,41.85,0,0,0-70.24,8.2,41.62,41.62,0,0,0-3.91,13.85c11.07-4.53,19.1-15.14,29.56-21.42A44.64,44.64,0,0,1,347.7,260.7Z"/><path class="cls-3" d="M366.52,266.32a44.25,44.25,0,0,0-44.59.63c-10.46,6.28-18.49,16.89-29.56,21.42-.14,1.42-.23,2.86-.23,4.32a41.89,41.89,0,1,0,74.38-26.37Z"/><path class="cls-3" d="M81.84,285.73A41.22,41.22,0,0,0,81,294a40.63,40.63,0,1,0,79.18-12.83Z"/><path class="cls-2" d="M121.64,253.32a40.64,40.64,0,0,0-39.8,32.41l78.35-4.61A40.64,40.64,0,0,0,121.64,253.32Z"/><path class="cls-4" d="M295.22,189.94s-12.53,3.94-13.21,15.33-2.51,30,6.6,38.09l5,4.26s6.77-11.11,5.55-35C299.17,212.58,298.17,198.85,295.22,189.94Z"/><path class="cls-5" d="M113.45,199.28c7.89,5.65,76.93,1.86,104.42.1-12.41-18.46-51.67-19.85-51.67-19.85H106.25C106.84,187.34,108.65,195.83,113.45,199.28Z"/><path class="cls-6" d="M113.45,199.28c-4.8-3.45-6.61-11.94-7.2-19.75h-1.09a4.44,4.44,0,0,0-4.33,5.43L105,203.17a4.45,4.45,0,0,0,4.33,3.46h8.47l101.55-4.83a24.49,24.49,0,0,0-1.44-2.42C190.38,201.14,121.34,204.93,113.45,199.28Z"/><path class="cls-7" d="M222.35,96.06c-.24-.75-.45-1.44-.66-2.08C221.91,94.68,222.14,95.38,222.35,96.06Z"/><path class="cls-7" d="M223.07,98.34c-.22-.69-.46-1.47-.72-2.28Q222.68,97.13,223.07,98.34Z"/><path class="cls-7" d="M221.52,93.41c-.36-1.12-.65-2-.89-2.82C220.9,91.45,221.2,92.41,221.52,93.41Z"/><path class="cls-7" d="M221.69,94l-.17-.57C221.57,93.6,221.63,93.78,221.69,94Z"/><path class="cls-7" d="M223.81,100.69c-.11-.32-.26-.83-.46-1.47C223.49,99.7,223.65,100.18,223.81,100.69Z"/><path class="cls-7" d="M223.35,99.22c-.1-.29-.19-.6-.28-.88C223.17,98.65,223.26,99,223.35,99.22Z"/><path class="cls-7" d="M223.93,101.07l-.12-.38Z"/><path class="cls-7" d="M223.93,101.09v0Z"/><path class="cls-7" d="M220.63,90.59l-.06-.18Z"/><path class="cls-7" d="M220.17,89.14l-.09-.29Z"/><path class="cls-8" d="M227.14,108.74a45.67,45.67,0,0,1-3.21-7.65,46.76,46.76,0,0,0-11.42,7.14,42.54,42.54,0,0,0,3,6.59,46.83,46.83,0,0,0,6.52-2.54A21.5,21.5,0,0,0,227.14,108.74Z"/><path class="cls-7" d="M219.76,87.83l0-.17Z"/><path class="cls-7" d="M219.71,87.66Z"/><path class="cls-9" d="M283.57,149.53l-1.47-3.18a5.55,5.55,0,0,0-6-3.14l-7.66,1.61s-28.3-11.37-41.28-36.08a21.5,21.5,0,0,1-5.16,3.54,46.83,46.83,0,0,1-6.52,2.54c5.78,10.73,21.17,31.17,55.89,34.85l2.29.65c2.3,1.76.24,5.65.24,5.65s5.9-1.37,9-3.66A2.28,2.28,0,0,0,283.57,149.53Z"/><path class="cls-7" d="M219.77,87.86v0Z"/><path class="cls-7" d="M220.27,89.46l-.1-.32C220.2,89.24,220.24,89.34,220.27,89.46Z"/><path class="cls-7" d="M220.57,90.41c-.11-.36-.21-.67-.3-1Z"/><path class="cls-7" d="M220.08,88.85c-.13-.43-.24-.77-.31-1C219.83,88.07,219.94,88.39,220.08,88.85Z"/><path class="cls-5" d="M228.2,103.93a73.74,73.74,0,0,0-4.65-12.34c-1.11-2.3-3.31-6.83-5.14-8.61s-3.38-.8-5.94-.63c0,0-6.1.49-6.5,8.64-.38,7.69,2.74,15.08,5.74,22.17a1.11,1.11,0,0,0,.24.39c.4.36,1,0,1.47-.3a8.06,8.06,0,0,1,2.88-.79c3.73-.65,7.13-2.49,10.46-4.3l1.56-.77a1.39,1.39,0,0,0,.64-1.83Z"/><path class="cls-8" d="M277.18,148.08a3.85,3.85,0,0,1,.72,1.13,6.07,6.07,0,0,1,.39,1.32,6.35,6.35,0,0,1,.09.79c0,.26,0,.51,0,.79a5.16,5.16,0,0,1-.32,1.58,3.29,3.29,0,0,1-.78,1.2,2.21,2.21,0,0,1-.85.51,1.13,1.13,0,0,1-.37.06,2.27,2.27,0,0,0,.93-.83,4.92,4.92,0,0,0,.71-2.54c0-.25,0-.52,0-.77l0-.71a8.54,8.54,0,0,0-.51-2.53Z"/><path class="cls-8" d="M280,147a4.52,4.52,0,0,1,.87,1,5,5,0,0,1,.59,1.27,4.22,4.22,0,0,1,.15,1.63,6.77,6.77,0,0,1-.33,1.56,4.27,4.27,0,0,1-.66,1.24,2.59,2.59,0,0,1-.72.68,1.16,1.16,0,0,1-.33.16,3.26,3.26,0,0,0,.73-1,5.72,5.72,0,0,0,.4-1.21,10.38,10.38,0,0,0,.23-1.46,5.66,5.66,0,0,0-.4-2.66C280.21,147.47,280,147,280,147Z"/><path class="cls-3" d="M205.69,155.82a283.65,283.65,0,0,1,60.05,28.83s11,4.41,4.66,16.86c-4.2,8.28-13.84,34.67-19,42.42H234.51c5.46-19.77,8.25-38,26.76-51-17.27.61-36.56-4.19-49.29-8.23-11.39-3.62-18.9-8.06-19.73-20-.3-4.36-.63-14.74,1.59-19.87l.6-5.06"/><path class="cls-9" d="M231.34,257.89l5.07-14h11.44l-3.65,9.54s5.3,12.43-12.86,11.14Z"/><path class="cls-5" d="M246.22,271.87c1.89.22,3.76.63,5.65.91a39.07,39.07,0,0,0,24.81-4.8,1.86,1.86,0,0,0-.22-.27,18.36,18.36,0,0,0-9-4.18,34.15,34.15,0,0,1-6.3-1.37,28.69,28.69,0,0,1-7.78-4.57c-1.46-1.33-1.82-2.43-3-4-3.48-4.56-6.26-2.44-6.78,2.69s-3.41,4.78-8,5.46-4.22-3.84-4.22-3.84a2.1,2.1,0,0,0-2.93.13,4.47,4.47,0,0,0-1.09,3,33.64,33.64,0,0,1-.09,4.38,10.24,10.24,0,0,1-1.25,3.18,23.46,23.46,0,0,0,7.61,2.61C237.76,271.86,242,271.38,246.22,271.87Z"/><path class="cls-10" d="M226,268.59c-.46.84-1,1.65-1.41,2.48a1,1,0,0,0-.16.72.88.88,0,0,0,.39.44,21.75,21.75,0,0,0,6.88,3.3c.34-1.5.63-3,.88-4.54A23.42,23.42,0,0,1,226,268.59Z"/><path class="cls-10" d="M246.22,271.87c-2.46-.29-4.94-.24-7.42-.29v5.19a74.9,74.9,0,0,0,7.92.14c0-1.66-.07-3.32-.1-5Z"/><path class="cls-11" d="M233.59,271.2l-1-.21c-.25,1.52-.54,3-.88,4.54a36.31,36.31,0,0,0,7.12,1.24v-5.19A37.93,37.93,0,0,1,233.59,271.2Z"/><path class="cls-10" d="M253.81,273q0,1.84,0,3.69l5.57-.26,2.2-.12c-.12-1.11-.23-2.22-.34-3.34A38,38,0,0,1,253.81,273Z"/><path class="cls-11" d="M253.81,273c-.65-.06-1.3-.1-1.94-.19-1.76-.26-3.49-.62-5.25-.85,0,1.66.07,3.32.1,5l1.15,0c2-.06,4-.14,6-.22Q253.86,274.82,253.81,273Z"/><path class="cls-10" d="M276.68,268a39.29,39.29,0,0,1-8.14,3.48,36.21,36.21,0,0,1,1.2,3.65,26.93,26.93,0,0,0,6.09-2.56A3,3,0,0,0,276.68,268Z"/><path class="cls-11" d="M261.27,272.94c.11,1.12.22,2.23.34,3.34a42.93,42.93,0,0,0,6.2-.69c.65-.13,1.29-.3,1.93-.48a36.21,36.21,0,0,0-1.2-3.65A40.07,40.07,0,0,1,261.27,272.94Z"/><circle class="cls-11" cx="121.64" cy="293.95" r="27.01" transform="translate(-191.57 349.65) rotate(-77.6)"/><path class="cls-4" d="M132.05,296.66c7,.49,14.33-.27,20.81-3.24,7-3.23,10.31-8.7,14.21-15.2,1.52-2.53-1.4-4.7-2.91-2.18-3.58,6-7.67,11.06-14.31,13.71a40.67,40.67,0,0,1-18,2.34c-2.93-.2-2.7,4.37.21,4.57Z"/><circle class="cls-12" cx="121.64" cy="293.95" r="11.7"/><circle class="cls-4" cx="121.64" cy="293.95" r="6.31"/><circle class="cls-11" cx="334.02" cy="292.69" r="25.64"/><circle class="cls-12" cx="334.02" cy="292.69" r="11.11" transform="translate(-27.29 550.94) rotate(-76.78)"/><path class="cls-13" d="M333.48,241.21l-33.62,16.41,8.27-30-11.32-62s8.24,21.33,17.85,38.26c6.49,11.41,11.3,23.91,23.42,29.95,2.28,1.14,5,2.51,5.86,5.64h0Z"/><path class="cls-13" d="M288.61,243.36l5,4.26s-4.55,27.59-26,37.48h-93.1a38.77,38.77,0,0,0,3.75-4.25l1.9-1.8-.63,0a32,32,0,0,0,3.11-5.91c5.79-14.63-1.12-32.67-13.44-41.57s-28.59-9.73-42.94-5.57c-25.52,7.41-46.4,30.54-52.69,57.94l-8,.37a2.2,2.2,0,0,1-2-3.29c5.64-9.6,7.56-21.24,13.13-31,7.88-13.79,22.14-22.39,34.8-32a2.56,2.56,0,0,0,.9-1,3.14,3.14,0,0,0-.43-2.18c-1.47-3.7,1.78-8.38,5.76-8.3l101.55-4.83A3.56,3.56,0,0,1,223,206a3.72,3.72,0,0,1-2,2.57c-8.24,4.37-37.66,22.46-20.72,50.44,16.22,26.77,54.93,16.73,72.24,7.93,0,0,9.75-6.2,16.12-23.58"/><path class="cls-3" d="M293.62,247.62s13.41-36-6.37-78.34l9.56-3.64s31.88,59.73-8.2,109.77c0,0-3.64,7.55-23.23,9.69C265.38,285.1,283.6,278.14,293.62,247.62Z"/><path class="cls-14" d="M282.83,288.55a.85.85,0,0,1-1-1.1c2.27-7,13.5-38.46,35-47.57,25.28-10.7,46.46,7.32,54.4,20.42.88,1.46-.62,3.15-2.42,2.76-8.9-1.95-28-10.2-47.86,1.65C306.72,273.22,301.19,284.47,282.83,288.55Z"/><path class="cls-12" d="M176.64,170.48c.24,12,8.74,17.17,20.13,20.79,12.73,4,32,8.84,49.29,8.23-18.5,13-21.3,31.2-26.75,51h16.92c5.13-7.75,22.62-38,26.82-46.29,6.31-12.45-4.67-16.86-4.67-16.86s-3.95-3.07-31.48-17.21l-6-2.27-11.75,2.39,8.42-4.1,1.25-5.68-37.26-12.38S176.44,160.39,176.64,170.48Z"/><path class="cls-7" d="M216.13,264.43l5.07-14h11.45L229,260s5.3,12.42-12.86,11.14Z"/><path class="cls-15" d="M231,278.41c1.9.22,3.76.64,5.65.91a39.08,39.08,0,0,0,24.82-4.8,2.85,2.85,0,0,0-.23-.26,18.27,18.27,0,0,0-9-4.18,35.39,35.39,0,0,1-6.3-1.38,28.61,28.61,0,0,1-7.77-4.56c-1.47-1.34-1.83-2.43-3-4-3.48-4.57-6.26-2.44-6.77,2.68s-3.42,4.79-8,5.47-4.22-3.85-4.22-3.85a2.11,2.11,0,0,0-2.93.13,4.49,4.49,0,0,0-1.08,3A33.64,33.64,0,0,1,212,272a10.34,10.34,0,0,1-1.25,3.18,23.65,23.65,0,0,0,7.62,2.6C222.55,278.4,226.82,277.93,231,278.41Z"/><path class="cls-10" d="M210.77,275.14c-.46.83-1,1.64-1.41,2.48a1,1,0,0,0-.16.72,1,1,0,0,0,.39.44,22,22,0,0,0,6.88,3.3c.34-1.51.63-3,.88-4.55A23.82,23.82,0,0,1,210.77,275.14Z"/><path class="cls-10" d="M231,278.41c-2.46-.28-4.94-.24-7.41-.28v5.18a77.59,77.59,0,0,0,7.92.15c0-1.66-.07-3.32-.11-5Z"/><path class="cls-11" d="M218.39,277.74c-.35-.05-.69-.14-1-.21-.25,1.53-.54,3-.88,4.55a35.8,35.8,0,0,0,7.13,1.23v-5.18A37.71,37.71,0,0,1,218.39,277.74Z"/><path class="cls-10" d="M238.6,279.52c0,1.23,0,2.45,0,3.68l5.57-.26,2.2-.11c-.11-1.12-.23-2.23-.34-3.34A38.74,38.74,0,0,1,238.6,279.52Z"/><path class="cls-11" d="M238.6,279.52c-.65-.06-1.3-.1-1.94-.2-1.75-.25-3.49-.62-5.25-.84,0,1.66.07,3.32.11,5l1.14,0q3-.09,6-.23C238.64,282,238.63,280.75,238.6,279.52Z"/><path class="cls-10" d="M261.48,274.52a39,39,0,0,1-8.14,3.48c.46,1.2.85,2.42,1.19,3.66a26.33,26.33,0,0,0,6.09-2.57A3,3,0,0,0,261.48,274.52Z"/><path class="cls-11" d="M246.06,279.49c.11,1.11.23,2.22.34,3.34a44.4,44.4,0,0,0,6.2-.7c.65-.13,1.29-.29,1.93-.47-.34-1.24-.73-2.46-1.19-3.66A39.36,39.36,0,0,1,246.06,279.49Z"/><path class="cls-12" d="M80.17,234.69l-.47,0a97.31,97.31,0,0,0-13.65,28.82c2,1.54,4.57,2.33,5.07.49,4.33-15.75,18.39-29.18,18.39-29.18C86.68,235.46,83.08,234.88,80.17,234.69Z"/><path class="cls-5" d="M71.51,248.92a96.84,96.84,0,0,1,8.19-14.25c-2.78-.12-5.76.25-7.75,2.15a12.73,12.73,0,0,0-2.71,4.78l-2.3,5.93h0C68.48,248,70,248.49,71.51,248.92Z"/><path class="cls-15" d="M67,247.54h0q-1.35,3.48-2.69,7c-.75,1.93-1.5,4.08-.76,6a7.82,7.82,0,0,0,2.56,3,96.72,96.72,0,0,1,5.46-14.57C70,248.49,68.48,248,67,247.54Z"/><path class="cls-4" d="M353.15,275.61l-16.1,20.84a4.91,4.91,0,0,1-.65.85h0a4.64,4.64,0,1,1-6.22-6.87v0l19.54-18A18,18,0,0,1,353.15,275.61Z"/><path class="cls-15" d="M215.83,78.78l-18-6.85S189.09,76.07,187,97.76c0,0-1.48,1.76-.4,6.36,0,0-1.42,1.16-1.42,4.35s0,0-1.82,13.45c0,0-1.37,17-2.5,20.24s-2.44,3-2.44,5.83c0,4.31,40.38,12.47,40.38,12.47,2-28.58,3.66-36.36,3.87-46.76.12-6-.93-22.65-4-32.38"/><path class="cls-11" d="M215.83,78.78l-.77,6.47-19-14.69s-.11-5.84,7.74-5.37l-.87,3Z"/><rect class="cls-12" x="171.1" y="283.97" width="104.76" height="3.73" rx="1.37"/><path class="cls-16" d="M202.92,68.17l-1.54-1.25a3.59,3.59,0,0,1,2-.43Z"/><path class="cls-11" d="M215.83,78.78l3.83,5.84V83a9.26,9.26,0,0,0-.34-2.51,7.22,7.22,0,0,0-1.13-2.23l-1.61-2.21Z"/><path class="cls-13" d="M306.08,131.4a16.66,16.66,0,0,0-9.27,4.86c-5.25,5.84-10.25,6.61-14.35,8.88l-.12.07a5.71,5.71,0,0,0-2.28,7.17l7.19,16.9,9.56-3.64s-4.55-7.74-4.55-12.52c0-2.55,4.94-.67,6.55,0l1.2.48a25.21,25.21,0,0,0,7,1.57A51.34,51.34,0,0,1,306.08,131.4Z"/><path class="cls-3" d="M206.91,58.4a7.77,7.77,0,0,1-1.28,5.23c-.55-.33,0,0-1.25-1.94l-1.22,1.07-.24-1.61-1.51.81a17.78,17.78,0,0,0-1.73-9.65L202.55,51Z"/><path class="cls-17" d="M219.41,34a11.39,11.39,0,0,0-4.72,1.85A16,16,0,0,1,219.41,34Z"/><path class="cls-13" d="M214.69,35.86l-.14.09Z"/><path class="cls-12" d="M236.77,35.12c-4.47-6.85-9.91-5.85-13.6-5a9.8,9.8,0,0,1,3,.16,7.43,7.43,0,0,1,6.63,6.63,6.92,6.92,0,0,0,4-1.75"/><path class="cls-9" d="M202.92,68.17l12.91,10.61.23-.82L203.31,66.83Z"/><path class="cls-7" d="M219.66,65.06s-6.78.33-14.32-4.94l-.42,1.16-1.61,5.55L216.06,78l3.4-12.13Z"/><path class="cls-7" d="M199.82,39.69s-.48,18.51,8.1,22.4,10.57,4.68,17,2.92,6.6-13.05,7.38-22S230,21.38,216,21.57C216,21.57,202.05,19.62,199.82,39.69Z"/><path class="cls-4" d="M222.74,46l-.19,0c-2.34-.29-4.43,1.38-6.69,2-3.11.89-6.52-.22-9.12-2.15a31.65,31.65,0,0,1-6.44-7.2l.32,6.56s1.88-2.25,2.2,11.32a5.34,5.34,0,0,0,2.29,3.72c-.76-.58,7.89,5.8,16.48,5.64C224.41,55.59,223.88,49.47,222.74,46Z"/><path class="cls-14" d="M232,46.52a8.74,8.74,0,0,1-6.53.39,20.49,20.49,0,0,0-2.77-.93c1.14,3.49,1.67,9.61-1.15,19.88a14.75,14.75,0,0,0,3.3-.4C232.38,63.61,232,46.52,232,46.52Z"/><path class="cls-7" d="M199.82,43.54s-5.74-7.09-6.13,0,6.73,11.42,7.75,8.61Z"/><path class="cls-3" d="M197.68,41.2c-.37,1.14.6,2.29,1.23,3.32a41.51,41.51,0,0,1,3.78,7.72,14.55,14.55,0,0,0-.78-7.15,3,3,0,0,1,1.38,1.52c.94-1.94-.5-4.36.28-6.37.65-1.66,2.53-2.42,3.77-3.71a5.67,5.67,0,0,0,1.49-3.05S200.2,33.57,197.68,41.2Z"/><path class="cls-15" d="M202.23,19.24c-10.37,7.59-7.62,21.54-7.62,21.54a2.32,2.32,0,0,1,2.95.72,26.92,26.92,0,0,1,22.67-14,50.43,50.43,0,0,0-4.55-11.93A19.27,19.27,0,0,0,202.23,19.24Z"/><path class="cls-5" d="M231.1,28.59a17.46,17.46,0,0,0-15.42-13,50.43,50.43,0,0,1,4.55,11.93A34.49,34.49,0,0,1,231.1,28.59Z"/><path class="cls-11" d="M236.77,35.12c2-3-5.67-6.53-5.67-6.53-22.21-6.43-31.28,9.4-31.28,9.4,3.94,1.43,11.74-3.36,15.9-6.24l.16-.09a13,13,0,0,1,5.37-2.12C225.46,28.62,231.42,28.94,236.77,35.12Z"/><path class="cls-9" d="M194.61,43.78a1.82,1.82,0,0,1,.17-.38,2.15,2.15,0,0,1,.3-.39,1.14,1.14,0,0,1,.61-.31,1.35,1.35,0,0,1,.82.19,2.4,2.4,0,0,1,.66.57,6.23,6.23,0,0,1,.94,1.52,14.61,14.61,0,0,1,1.14,4.58s-.27-.54-.59-1.35c-.13-.42-.37-.87-.55-1.38-.09-.26-.22-.5-.32-.77s-.2-.53-.33-.78-.24-.51-.37-.75-.25-.49-.41-.68a2.94,2.94,0,0,0-.46-.52.89.89,0,0,0-.5-.22,1,1,0,0,0-.48.12,1.68,1.68,0,0,0-.35.26A3.74,3.74,0,0,0,194.61,43.78Z"/><path class="cls-9" d="M198.51,46.85a2.61,2.61,0,0,0-.38.36,3.61,3.61,0,0,0-.51.85c-.14.32-.29.68-.41,1a3.71,3.71,0,0,1-.23.51,1.26,1.26,0,0,1-.06-.15,1.83,1.83,0,0,1-.11-.4,2.17,2.17,0,0,1,.16-1.24,1.64,1.64,0,0,1,.95-.89A.91.91,0,0,1,198.51,46.85Z"/><path class="cls-12" d="M312.51,131.65a14.62,14.62,0,0,0-6.43-.25,51.34,51.34,0,0,0,.95,23.77,53.6,53.6,0,0,0,6.21.08C309.48,147.17,311.56,135.77,312.51,131.65Z"/><path class="cls-3" d="M314.66,155a37.94,37.94,0,0,1-.07-22.58l0,0a13.35,13.35,0,0,0-2.06-.69c-.95,4.12-3,15.52.73,23.6.84,0,1.33-.08,1.33-.08S314.63,155,314.66,155Z"/><path class="cls-5" d="M315.22,133.72c-.34-.81-.6-1.29-.63-1.35a37.94,37.94,0,0,0,.07,22.58c.2-.42.35-.82.51-1.23A38.49,38.49,0,0,1,315.22,133.72Z"/><path class="cls-15" d="M315.22,133.72a38.49,38.49,0,0,0-.05,20A26.13,26.13,0,0,0,315.22,133.72Z"/><path class="cls-5" d="M166.67,100.66a4,4,0,0,0-4-4H87.8a4,4,0,0,0-4,4v16.1h82.9Z"/><path class="cls-15" d="M83.77,116.76v58.75a4,4,0,0,0,4,4h74.85a4,4,0,0,0,4-4V116.76Z"/><rect class="cls-3" x="108.82" y="110.71" width="4.64" height="12.43"/><rect class="cls-3" x="136.99" y="110.71" width="4.64" height="12.43"/><path class="cls-3" d="M132.45,175.12h.75a1,1,0,0,1,1,1v3.4a0,0,0,0,1,0,0h-2.78a0,0,0,0,1,0,0v-3.4A1,1,0,0,1,132.45,175.12Z"/><path class="cls-3" d="M82.82,142.59c-.35-.85-.91-2.86-.35-3.6q.32-.42,1.23-.3l.08,0v-1.27a2.38,2.38,0,0,0-2.31.78c-1.15,1.52,0,4.52.2,4.89,7.84,16,28.18,28.75,55.12,36.46l2.34,0C112.56,171.94,90.48,158.26,82.82,142.59Z"/><path class="cls-3" d="M116.23,175.12H119a0,0,0,0,1,0,0v3.4a1,1,0,0,1-1,1h-.75a1,1,0,0,1-1-1v-3.4A0,0,0,0,1,116.23,175.12Z" transform="translate(235.24 354.65) rotate(180)"/><path class="cls-3" d="M167.62,142.59c.36-.85.91-2.86.35-3.6-.21-.28-.62-.38-1.22-.3l-.08,0v-1.27a2.36,2.36,0,0,1,2.3.78c1.16,1.52,0,4.52-.2,4.89-7.84,16-28.18,28.75-55.11,36.46l-2.35,0C137.88,171.94,160,158.26,167.62,142.59Z"/><path class="cls-12" d="M70.72,284.13l5.44-.28c10-54.31,67.27-60.23,67.27-60.23C88.48,224.51,73.8,270.87,70.72,284.13Z"/><path class="cls-14" d="M169.25,231.6c-12.33-8.9-28.59-9.73-42.94-5.57C110.23,230.7,96,241.62,86.08,255.91c10.7-2.22,42.16-8.2,70-7.83,0,0,15.94-.46,9.11,13.66-3.17,6.56-6.94,13.22-10.06,18.47l24.46-1.13a32,32,0,0,0,3.11-5.91C188.48,258.54,181.57,240.5,169.25,231.6Z"/><path class="cls-4" d="M156.07,248.08c-27.83-.37-59.29,5.61-70,7.83A81.57,81.57,0,0,0,73.62,284l81.5-3.76c3.12-5.25,6.89-11.91,10.06-18.47C172,247.62,156.07,248.08,156.07,248.08Z"/><path class="cls-3" d="M103.35,260.44s.68-.14,1.87-.34,2.89-.49,4.94-.73,4.45-.56,7-.79,5.32-.43,8.08-.59l4.11-.18c1.36-.07,2.69-.07,4-.11,2.59,0,5,0,7.07,0s3.8.15,5,.2l1.89.12-1.89.14-5,.31-15.11.85-15.11.78-5,.23Z"/><path class="cls-3" d="M103.26,264.68s.68-.14,1.87-.34,2.9-.48,5-.73,4.45-.55,7-.78,5.32-.44,8.07-.6l4.12-.18c1.35-.07,2.69-.07,4-.1,2.59-.05,5,0,7.07,0s3.79.15,5,.2l1.89.13-1.89.14-5,.3-15.1.85-15.11.79-5,.22Z"/><path class="cls-3" d="M103.18,269.17s.67-.14,1.87-.34,2.89-.48,4.94-.73,4.45-.55,7-.78,5.32-.44,8.08-.6l4.11-.18c1.35-.07,2.69-.07,4-.1,2.59-.05,5,0,7.07,0s3.79.15,5,.2l1.89.12-1.89.15-5,.3-15.11.85-15.11.79-5,.22Z"/><path class="cls-3" d="M103.07,274.35s.68-.14,1.87-.34,2.9-.48,5-.72,4.45-.56,7-.79,5.32-.44,8.07-.6l4.12-.18c1.35-.07,2.69-.07,4-.1,2.59-.05,5,0,7.07,0s3.79.14,5,.2l1.89.12-1.89.14-5,.31-15.1.85-15.11.78-5,.23Z"/><path class="cls-12" d="M281.85,154.42l-20.75,4.5a4,4,0,0,1-5-4.33s0-.07,0-.11a4,4,0,0,1,3.67-3.35L280,149.87s2.32-.25,3.06.47S284.71,153.34,281.85,154.42Z"/><path class="cls-7" d="M210,96.66l-.55-2.13C209.66,95.24,209.85,96,210,96.66Z"/><path class="cls-7" d="M210.64,99c-.19-.7-.39-1.5-.61-2.33C210.22,97.38,210.42,98.16,210.64,99Z"/><path class="cls-7" d="M209.33,94c-.3-1.15-.55-2.1-.75-2.89C208.81,91.94,209.06,92.93,209.33,94Z"/><path class="cls-7" d="M209.48,94.53l-.15-.58Z"/><path class="cls-7" d="M211.26,101.4l-.39-1.5C211,100.38,211.12,100.88,211.26,101.4Z"/><path class="cls-7" d="M210.87,99.9c-.08-.31-.16-.62-.23-.91Z"/><path class="cls-7" d="M211.36,101.78c0-.13-.07-.25-.1-.38Z"/><path class="cls-7" d="M211.36,101.81v0Z"/><path class="cls-7" d="M208.58,91.06l-.05-.19Z"/><path class="cls-7" d="M208.19,89.57l-.07-.3Z"/><path class="cls-9" d="M214.2,109.68a47.12,47.12,0,0,1-2.84-7.87,47,47,0,0,0-11.87,6.6,42.64,42.64,0,0,0,2.63,6.79,47.38,47.38,0,0,0,6.7-2.22A21.39,21.39,0,0,0,214.2,109.68Z"/><path class="cls-7" d="M207.85,88.24l0-.18Z"/><path class="cls-7" d="M207.8,88.06c0-.12,0-.11,0,0Z"/><path class="cls-7" d="M273.51,152.19l-1.3-3.27a5.62,5.62,0,0,0-5.91-3.47l-8.23,1.05S226,135.24,214.2,109.68a21.39,21.39,0,0,1-5.38,3.3,47.38,47.38,0,0,1-6.7,2.22c5.27,11.11,19.58,32.5,54.38,38,0,0,3.05-4,7-.71,2.24,1.86-.07,6.14-.07,6.14s6,.88,9.79-4A2.49,2.49,0,0,0,273.51,152.19Z"/><path class="cls-7" d="M207.85,88.26v0Z"/><path class="cls-7" d="M208.28,89.9l-.09-.33Z"/><path class="cls-7" d="M208.53,90.87l-.25-1C208.36,90.2,208.44,90.52,208.53,90.87Z"/><path class="cls-7" d="M208.12,89.27c-.12-.43-.21-.78-.27-1C207.91,88.47,208,88.81,208.12,89.27Z"/><path class="cls-5" d="M215.51,104.89a73.24,73.24,0,0,0-4-12.67,22.26,22.26,0,0,0-3.9-6.64,9.36,9.36,0,0,0-6.78-3.24s-6.17.17-7,8.36c-.78,7.73,2,15.34,4.64,22.63a1,1,0,0,0,.22.41c.39.39,1,0,1.5-.23a8.27,8.27,0,0,1,2.93-.64c3.8-.46,7.32-2.14,10.77-3.79l1.61-.7a1.4,1.4,0,0,0,.74-1.81Z"/><path class="cls-9" d="M266.76,151.27a3.58,3.58,0,0,1,.71,1.12,6.33,6.33,0,0,1,.4,1.33c0,.26.07.5.08.79s0,.51,0,.78a5.83,5.83,0,0,1-.32,1.59,3.37,3.37,0,0,1-.78,1.19,2.11,2.11,0,0,1-.86.51,1.38,1.38,0,0,1-.36.07,2.45,2.45,0,0,0,.93-.83,4.86,4.86,0,0,0,.7-2.55c0-.24,0-.51,0-.76s0-.49,0-.72a7.7,7.7,0,0,0-.16-1.28A7.5,7.5,0,0,0,266.76,151.27Z"/><path class="cls-9" d="M269.54,150.18a4.53,4.53,0,0,1,.87,1,4.84,4.84,0,0,1,.59,1.27,4.18,4.18,0,0,1,.14,1.63,7,7,0,0,1-.32,1.56,5,5,0,0,1-.66,1.24,3.12,3.12,0,0,1-.72.68,1.25,1.25,0,0,1-.34.15,3.11,3.11,0,0,0,.73-1,5.36,5.36,0,0,0,.41-1.21,9.31,9.31,0,0,0,.22-1.46,5.62,5.62,0,0,0-.39-2.66A12.23,12.23,0,0,0,269.54,150.18Z"/><polygon class="cls-4" points="286.34 168.43 296.81 164.56 297.38 165.98 287.11 169.85 286.34 168.43"/><path class="cls-11" d="M128,61.15c-.93-2.72-5.41-3.59-6.69-1-4.21-6.52-15.63-6.09-19.33.74,1.36-6.59-4.66-13.1-11.33-13.94S77.41,49.71,72.79,54.6c2-10.3-7.74-21.1-18.19-20.16S36.49,47.74,40.29,57.51a11,11,0,0,0-14.1-2.87,10.11,10.11,0,0,0-3.37,3.45,15.87,15.87,0,0,0-8.19-1.55c-5.44.59-10.3,7.05-7.24,11.6,2.22,3.31,6.91,3.57,10.9,3.49l97.83-1.88c2.87,0,5.87-.14,8.4-1.49S128.94,63.87,128,61.15Z"/><path class="cls-11" d="M273.1,104.89c.69-2.29,4.39-3.16,5.53-1,.85-5.23,9-7.19,12.13-2.93-1.3-2.7.83-6,3.61-7.14s5.92-.61,8.87-.1c-4.12-4.19-2.61-12,2.25-15.28s11.72-2.49,16.55.86,7.85,8.77,9.64,14.37A9.88,9.88,0,0,1,350,87.89c-.62-2.72,3.87-4.1,5.84-2.13,1.66,1.67,1.83,4.21,1.58,6.62a16.34,16.34,0,0,1,6.61-3.81c5.14-1.46,11.22.2,14.34,4.53s2.5,11.15-1.78,14.34c-3.09,2.3-7.21,2.47-11.06,2.55l-82.28,1.66c-2.39,0-4.89.07-7-1S272.41,107.18,273.1,104.89Z"/></g></g></svg>