<svg xmlns="http://www.w3.org/2000/svg" viewBox="0 0 417.54 416.12"><defs><style>.cls-1,.cls-2{fill:#d1e6df;}.cls-1,.cls-10,.cls-12,.cls-13,.cls-14,.cls-15,.cls-16,.cls-18,.cls-20,.cls-21,.cls-22,.cls-23,.cls-24,.cls-25,.cls-26,.cls-27,.cls-28,.cls-29,.cls-3,.cls-4,.cls-5,.cls-6,.cls-8,.cls-9{fill-rule:evenodd;}.cls-3{fill:#ecbd78;}.cls-4{fill:#d08174;}.cls-5{fill:#be7775;}.cls-6{fill:#ab6a6e;}.cls-20,.cls-7{fill:#413b73;}.cls-11,.cls-8{fill:#30295e;}.cls-9{fill:#fff;}.cls-10{fill:#e9baa8;}.cls-12{fill:#cad8ee;}.cls-13,.cls-17{fill:#a0cdbc;}.cls-14{fill:#789eae;}.cls-15{fill:#ca8874;}.cls-16{fill:#dba376;}.cls-18{fill:#875371;}.cls-19,.cls-21{fill:#d58881;}.cls-22,.cls-23,.cls-24,.cls-28,.cls-29{fill:none;stroke-linecap:round;stroke-linejoin:round;}.cls-22{stroke:#30295e;}.cls-22,.cls-23,.cls-24{stroke-width:1.42px;}.cls-23{stroke:#d58881;}.cls-24,.cls-28{stroke:#663b55;}.cls-25{fill:#c35a5a;}.cls-26{fill:#f1d3c8;}.cls-27{fill:#d58c75;}.cls-28,.cls-29{stroke-width:2.13px;}.cls-29{stroke:#413b73;stroke-dasharray:2.13 6.38;}</style></defs><g id="Layer_2" data-name="Layer 2"><g id="OBJECTS"><path class="cls-1" d="M34.42,219.88A34.42,34.42,0,1,0,0,185.46,34.48,34.48,0,0,0,34.42,219.88Z"/><path class="cls-1" d="M224.41,416.12A34.42,34.42,0,1,0,190,381.7,34.48,34.48,0,0,0,224.41,416.12Z"/><path class="cls-1" d="M383.12,223.79a34.42,34.42,0,1,0-34.42-34.42A34.48,34.48,0,0,0,383.12,223.79Z"/><circle class="cls-2" cx="263.54" cy="25.04" r="25.04" transform="translate(137.92 258.06) rotate(-67.1)"/><path class="cls-3" d="M352.57,92.54a27.31,27.31,0,1,0-27.3-27.31A27.36,27.36,0,0,0,352.57,92.54Z"/><path class="cls-4" d="M355.35,31.55a2.79,2.79,0,0,1-5.56,0l-1.35-10.7h0a4,4,0,0,1-.06-.7,4.19,4.19,0,0,1,8.37,0,5.24,5.24,0,0,1-.05.7h0Z"/><path class="cls-4" d="M355.35,98.92a2.79,2.79,0,0,0-5.56,0l-1.35,10.69h0a4,4,0,0,0-.06.7,4.19,4.19,0,1,0,8.37,0,5.36,5.36,0,0,0-.05-.7h0Z"/><path class="cls-4" d="M371.82,37.45A2.79,2.79,0,0,1,367,34.67l4.18-9.93h0a5.31,5.31,0,0,1,.3-.64,4.19,4.19,0,0,1,7.25,4.19,3.88,3.88,0,0,1-.4.57h0Z"/><path class="cls-4" d="M338.13,95.8A2.79,2.79,0,0,0,333.32,93l-6.52,8.58h0a5,5,0,0,0-.4.58,4.19,4.19,0,1,0,7.56,3.55h0Z"/><path class="cls-4" d="M383.13,50.8A2.79,2.79,0,0,1,380.35,46l8.59-6.51h0a4,4,0,0,1,.58-.4,4.18,4.18,0,0,1,4.18,7.25,4.5,4.5,0,0,1-.63.3h0Z"/><path class="cls-4" d="M324.79,84.49A2.79,2.79,0,0,0,322,79.67l-9.93,4.18h0a4,4,0,0,0-.63.3,4.18,4.18,0,1,0,4.18,7.25,5,5,0,0,0,.58-.4h0Z"/><path class="cls-4" d="M386.26,68a2.79,2.79,0,0,1,0-5.56L397,61.11h0a4,4,0,0,1,.7-.06,4.19,4.19,0,0,1,0,8.37,4,4,0,0,1-.7-.06h0Z"/><path class="cls-4" d="M318.88,68a2.79,2.79,0,0,0,0-5.56l-10.69-1.34h0a4,4,0,0,0-.7-.06,4.19,4.19,0,1,0,0,8.37,4,4,0,0,0,.7-.06h0Z"/><path class="cls-4" d="M380.35,84.49a2.79,2.79,0,0,1,2.78-4.82l9.94,4.18h0a4.5,4.5,0,0,1,.63.3,4.18,4.18,0,0,1-4.18,7.25,5,5,0,0,1-.58-.4h0Z"/><path class="cls-4" d="M322,50.8A2.79,2.79,0,0,0,324.79,46l-8.59-6.51h0a4,4,0,0,0-.58-.4,4.18,4.18,0,1,0-4.18,7.25,4,4,0,0,0,.63.3h0Z"/><path class="cls-4" d="M367,95.8A2.79,2.79,0,0,1,371.82,93l6.51,8.58h0a4,4,0,0,1,.4.58,4.19,4.19,0,0,1-7.25,4.19,5.31,5.31,0,0,1-.3-.64h0Z"/><path class="cls-4" d="M333.32,37.45a2.79,2.79,0,0,0,4.81-2.78L334,24.74h0a4.19,4.19,0,1,0-7.56,3.55,4.82,4.82,0,0,0,.4.57h0Z"/><path class="cls-5" d="M84.69,298.51H27.27a12,12,0,0,0-11.93,11.93v46.11a12,12,0,0,0,11.93,11.93H84.69a12,12,0,0,0,11.93-11.93V310.44a12,12,0,0,0-11.93-11.93Zm0,3.91a8.06,8.06,0,0,1,8,8v22.08A4.47,4.47,0,0,1,88.25,337H23.71a4.46,4.46,0,0,1-4.45-4.45V310.44a8,8,0,0,1,8-8Zm7.54,56.83a8.05,8.05,0,0,1-7.54,5.32H27.27a8.05,8.05,0,0,1-7.54-5.32Z"/><path class="cls-4" d="M131.49,341.53H15.34v39.66a8.18,8.18,0,0,0,8.16,8.15h108a8.18,8.18,0,0,0,8.15-8.15v-31.5A8.18,8.18,0,0,0,131.49,341.53Z"/><path class="cls-5" d="M92.71,340H91.49v49.39h1.22V340Zm-72.24,0H19.26V388.1a7.77,7.77,0,0,0,1.21.64Z"/><path class="cls-6" d="M139.64,368.32V350.06H130a5.13,5.13,0,0,0-5.11,5.11v8a5.13,5.13,0,0,0,5.11,5.11Z"/><rect class="cls-7" x="12.84" y="375.32" width="129.3" height="18.25" rx="2.5"/><path class="cls-8" d="M108.79,367a20.88,20.88,0,0,0-7,2.92l-.27-.26a1.69,1.69,0,0,0-2.39,0l-3.75,3.74a1.7,1.7,0,0,0,0,2.4l.27.26a20.81,20.81,0,0,0-2.92,7.05h-.38a1.69,1.69,0,0,0-1.69,1.69v5.3a1.69,1.69,0,0,0,1.69,1.69h.38a20.68,20.68,0,0,0,2.92,7l-.27.27a1.69,1.69,0,0,0,0,2.39l3.75,3.75a1.69,1.69,0,0,0,2.39,0l.27-.27a20.68,20.68,0,0,0,7,2.92v.38a1.69,1.69,0,0,0,1.69,1.69h5.3a1.69,1.69,0,0,0,1.69-1.69v-.38a20.81,20.81,0,0,0,7-2.92l.27.27a1.69,1.69,0,0,0,2.39,0l3.74-3.75a1.69,1.69,0,0,0,0-2.39l-.26-.27a20.88,20.88,0,0,0,2.92-7H134a1.69,1.69,0,0,0,1.69-1.69v-5.3a1.69,1.69,0,0,0-1.69-1.69h-.37a21,21,0,0,0-2.92-7.05l.26-.26a1.7,1.7,0,0,0,0-2.4l-3.74-3.74a1.69,1.69,0,0,0-2.39,0l-.27.26a21,21,0,0,0-7-2.92v-.37a1.69,1.69,0,0,0-1.69-1.69h-5.3a1.69,1.69,0,0,0-1.69,1.69Z"/><path class="cls-9" d="M113.13,403.31a15.83,15.83,0,1,0-15.82-15.83A15.86,15.86,0,0,0,113.13,403.31Z"/><path class="cls-10" d="M113.13,375a12.53,12.53,0,1,0,12.53,12.53A12.53,12.53,0,0,0,113.13,375Z"/><path class="cls-8" d="M113.13,396.39a8.91,8.91,0,1,0-8.91-8.91A8.93,8.93,0,0,0,113.13,396.39Z"/><path class="cls-8" d="M44,349.24a29.29,29.29,0,0,0-10,4.13l-.38-.38a2.4,2.4,0,0,0-3.38,0l-5.3,5.3a2.4,2.4,0,0,0,0,3.38l.38.38a29.32,29.32,0,0,0-4.13,10h-.53a2.4,2.4,0,0,0-2.39,2.4v7.49a2.39,2.39,0,0,0,2.39,2.39h.53a29.37,29.37,0,0,0,4.13,10l-.38.37A2.4,2.4,0,0,0,25,398l5.3,5.31a2.4,2.4,0,0,0,3.38,0l.38-.38a29.69,29.69,0,0,0,10,4.13v.53A2.4,2.4,0,0,0,46.37,410h7.49a2.4,2.4,0,0,0,2.39-2.39v-.53a29.78,29.78,0,0,0,10-4.13l.37.38a2.4,2.4,0,0,0,3.38,0L75.28,398a2.4,2.4,0,0,0,0-3.38l-.38-.37a29.29,29.29,0,0,0,4.13-10h.53A2.4,2.4,0,0,0,82,381.9v-7.49a2.4,2.4,0,0,0-2.39-2.4H79a29.73,29.73,0,0,0-4.13-10l.38-.38a2.4,2.4,0,0,0,0-3.38L70,353a2.4,2.4,0,0,0-3.38,0l-.37.38a29.29,29.29,0,0,0-10-4.13v-.53a2.39,2.39,0,0,0-2.39-2.39H46.37A2.39,2.39,0,0,0,44,348.71Z"/><path class="cls-9" d="M50.11,400.54a22.39,22.39,0,1,0-22.38-22.39A22.44,22.44,0,0,0,50.11,400.54Z"/><path class="cls-10" d="M50.11,360.44a17.71,17.71,0,1,0,17.72,17.71A17.71,17.71,0,0,0,50.11,360.44Z"/><path class="cls-8" d="M50.11,390.76a12.61,12.61,0,1,0-12.6-12.61A12.63,12.63,0,0,0,50.11,390.76Z"/><rect class="cls-11" x="136.38" y="351.31" width="6.52" height="15.75" rx="3.26"/><rect class="cls-7" x="138.45" y="353.19" width="3.26" height="7.87" rx="1.63"/><path class="cls-8" d="M132.36,353.81h0a2.23,2.23,0,0,1,2.23,2.23v6.3a2.23,2.23,0,0,1-2.23,2.23h0a2.23,2.23,0,0,1-2.22-2.23V356A2.23,2.23,0,0,1,132.36,353.81Z"/><path class="cls-12" d="M92.71,332.52A4.47,4.47,0,0,1,88.25,337H23.71a4.46,4.46,0,0,1-4.45-4.45V310.44a8,8,0,0,1,8-8H84.69a8.06,8.06,0,0,1,8,8v22.08Z"/><path class="cls-9" d="M27.9,334.63a2.35,2.35,0,0,0,.71.12H45.2l30.1-30.1H57.87l-30,30Zm24,.12L82,304.65h7l-30.1,30.1Z"/><path class="cls-13" d="M345.76,410a50.89,50.89,0,1,0-50.89-50.89A51,51,0,0,0,345.76,410Z"/><path class="cls-14" d="M345.76,308.21c23.47,0,42.5,22.78,42.5,50.89s-19,50.89-42.5,50.89-42.5-22.79-42.5-50.89S322.29,308.21,345.76,308.21Z"/><path class="cls-13" d="M345.76,410c18,0,32.64-22.86,32.64-50.89s-14.66-50.89-32.64-50.89-32.64,22.86-32.64,50.89S327.78,410,345.76,410Z"/><path class="cls-14" d="M345.76,410c10.88,0,19.76-22.86,19.76-50.89s-8.88-50.89-19.76-50.89S326,331.07,326,359.1,334.88,410,345.76,410Z"/><path class="cls-13" d="M345.76,308.21c4.78,0,8.66,22.78,8.66,50.89S350.54,410,345.76,410s-8.67-22.79-8.67-50.89S341,308.21,345.76,308.21Z"/><path class="cls-8" d="M299.61,375.86s-2.79-2.5-2.73-5.26,1.45-3.6,1.47-4.31-1.4-1.91-3.39-1.59-.73,2-1.11,4.81-1.11,5.3-3.06,6.77S299.61,375.86,299.61,375.86Z"/><path class="cls-4" d="M295.79,377.24a8.05,8.05,0,0,0-1.91-.85c-14.33-4.55-22.56,6.86-20.77,17.65,1.64,9.85,9.94,16.52,22.68,13.18,12.74,3.34,21-3.33,22.68-13.18,1.8-10.79-6.43-22.2-20.76-17.65A8.19,8.19,0,0,0,295.79,377.24Z"/><path class="cls-5" d="M295.79,376.26a6.14,6.14,0,0,1,1.52-.89c11.31-4.86,17.81,7.31,16.39,18.83-1.29,10.51-7.85,17.62-17.91,14.06-10.05,3.56-16.61-3.55-17.9-14.06-1.42-11.52,5.08-23.69,16.39-18.83A5.83,5.83,0,0,1,295.79,376.26Z"/><path class="cls-4" d="M289.44,406.93c-7.07-8.51-7.65-32.67,6.35-32.54,13.62-.13,13.45,22.7,6.94,31.8C299.43,410.8,293.15,411.42,289.44,406.93Z"/><path class="cls-8" d="M328.21,384.64s-2.07-1.86-2-3.91,1.07-2.67,1.09-3.2-1-1.42-2.51-1.18-.55,1.45-.83,3.57-.83,3.94-2.27,5S328.21,384.64,328.21,384.64Z"/><path class="cls-15" d="M325.37,385.66A6.22,6.22,0,0,0,324,385c-10.65-3.38-16.75,5.09-15.42,13.1,1.21,7.32,7.38,12.27,16.84,9.79,9.47,2.48,15.63-2.47,16.85-9.79,1.33-8-4.78-16.48-15.43-13.1A6.44,6.44,0,0,0,325.37,385.66Z"/><path class="cls-16" d="M325.37,384.94a4.17,4.17,0,0,1,1.13-.67c8.4-3.6,13.22,5.43,12.17,14-1,7.81-5.83,13.09-13.3,10.44-7.47,2.65-12.34-2.63-13.3-10.44-1.05-8.56,3.78-17.59,12.18-14A4.24,4.24,0,0,1,325.37,384.94Z"/><path class="cls-3" d="M320.65,407.72c-5.25-6.32-5.68-24.27,4.72-24.17,10.11-.1,10,16.86,5.16,23.62C328.07,410.59,323.41,411.05,320.65,407.72Z"/><circle class="cls-17" cx="208.41" cy="217.49" r="123.16" transform="translate(-92.75 211.07) rotate(-45)"/><path class="cls-4" d="M188.17,26.94l16.94-1.65A25.38,25.38,0,0,1,232.74,48l4,41A25.36,25.36,0,0,1,214,116.6l-16.94,1.65a25.37,25.37,0,0,1-27.63-22.72l-4-41A25.38,25.38,0,0,1,188.17,26.94Z"/><path class="cls-5" d="M200,40.54c-39.41,5-71.57,20.05-71.83,33.73S159.59,95,199,90.09s71.57-20,71.83-33.73S239.36,35.59,200,40.54Z"/><path class="cls-18" d="M154,90.18c12.23,1.94,27.89,2.06,45-.09a186.21,186.21,0,0,0,43.18-10.43l-8.55-15L223.56,69,170.18,64.4Z"/><path class="cls-8" d="M186.83,132.21a18,18,0,0,1,7.34-.62c4.3.47,26.07,0,26.07,0a13.79,13.79,0,0,1,4.85,1.84L224.9,136s-14.07,4.82-14.46,4.82-18.56-1.29-18.56-1.29S186.44,136.54,186.83,132.21Z"/><rect class="cls-19" x="189.52" y="124.4" width="33.1" height="23.72"/><path class="cls-20" d="M231,148.34s33.14,13.12,36,14.7a19.26,19.26,0,0,1,4.08,2.87s-4.75,21.55-3,50.37c1.16,19.5-1.5,44.14-3.34,58H146.41c2-14.22,3.8-27.9,4.31-32.64,1.15-10.78-7.72-66.43-11-75L180.58,147c2.56-1,5.47-2.72,5.51-5.72,0-4.73,0-3.64.09-8.37,0,0,.26-.61.65-.69,7.85,6.82,29.93,7.11,38.26,1.22.39.08.63.7.63.7-.05,4.73,0,3.64-.09,8.37C225.59,145.5,228.46,147.31,231,148.34Z"/><path class="cls-8" d="M267.8,195.21c-.25,6.34-.24,13.45.22,21.07,1,16.43-.75,36.49-2.42,50.72-26.37,1.94-63.37,1.79-75.36-1.28-15-3.84-33.08-3.94-41.88-5.74,1.13-8.35,2-15.23,2.36-18.31.59-5.57-1.48-23.09-4.08-39.91,5.18,13,14.87,12.51,14.87,12.51s80.64-5,93-7.12,12.74-12.41,12.74-12.41Z"/><path class="cls-4" d="M253,210.89s-82.74,4-86.87,5-8.28,4-8,11.84-2.94,65-19.1,68.49c0,0-.77,13-.82,17.28,0,.61-.23,2.32-.6,4.82a123.2,123.2,0,0,0,137.67,2.62c-2.55-17.52-8.62-49.79-8.62-49.79s-8.35-42.68-9.31-48.66S256.48,210.78,253,210.89Z"/><path class="cls-5" d="M146,290.61c-2,3-4.28,5-6.92,5.58,0,0-.77,13-.82,17.28a4.89,4.89,0,0,0,.24,1.4c5.22-.32,15-.84,22.18-3.52s60.11-35.24,60.11-35.24l51.33,25c-1-10.82-4.7-23.5-5.19-28l-49.1-15.53Z"/><path class="cls-10" d="M157,253.33l2.34-.05s11.52-1,20.27-.91,58.54-9.5,68.74-11.13,15.37-1.71,20.78.79-.22,18.17-.22,18.17l-10.21,11.19-3.61-1.76s-16.49-3.61-20-3.45-66.38,29.69-70.1,31.08S157,253.33,157,253.33Z"/><path class="cls-21" d="M223.44,270.82c-2.28,1-4.78,2.1-7.44,3.29l-27.06-17.62,4.73-1.57L228,267Z"/><path class="cls-18" d="M139.75,166.71S125.79,173,123,193s-2.22,36.59-4.95,50.7-5.75,29.77-3.57,41.62,13.64,21.76,28.3,21.16c6.1-.2,20.78-2.58,21.87-3.29a3.53,3.53,0,0,0,1.37-1.46c4-19.07-3.5-48.35-3.74-49.16a1.15,1.15,0,0,0-1.05-.82c-1.3.07-7.6.61-10.17.84-.46,0-.83.05-1.1.09,0,0,1.85-3-.21-3.1,0,0,1.32-4.12,1.8-12.35S144,174.15,139.75,166.71Z"/><path class="cls-10" d="M254.94,249.87s-45.85-6.55-53.25-7.36S176.93,247.65,173,249s-4.67,3.68-4.67,3.68l11.35-.3s13.07,5.52,21.05,9.93,52.6,23.65,54.24,24.08S254.94,249.87,254.94,249.87Z"/><path class="cls-18" d="M271,165.91c14.87,5.29,22.53,46.09,29.38,62,13.52,31.37,4.26,65.71-27.51,64.75v0c-2.93.28-17.3-2.32-19.45-3.58s-7.11-12.69-5.68-24.85,6.92-16.12,6.92-16.12l8.84.44s.23-3,3-2.47l1.38-6.82S264.35,184.21,271,165.91Z"/><path class="cls-4" d="M247.94,155.1s1.71,43.37,2.44,51.2a1.31,1.31,0,0,1-1.14,1.58,44.25,44.25,0,0,1-5.26.5,1.7,1.7,0,0,1-1.43-1c-.34-.93-4.61-56.29-4.61-56.29a3.32,3.32,0,0,1,1-.28c.31,0,8.14,3,8.14,3A1.87,1.87,0,0,1,247.94,155.1Z"/><path class="cls-4" d="M165.66,154.19c.13,1.5,4.26,48.54,5,56.27A1.31,1.31,0,0,1,169.5,212a44.89,44.89,0,0,1-5.26.51,2,2,0,0,1-1.43-1c-.31-.83-4.29-34.09-6.27-53,.18-.27.14-.67.51-1a18.93,18.93,0,0,1,7.71-3.66C165.05,153.92,165.45,154.17,165.66,154.19Z"/><path class="cls-9" d="M165.17,210.11l2.87-.31a1.19,1.19,0,0,1,.88.26,1.22,1.22,0,0,1,.45.81l.59,5.47a1.19,1.19,0,0,1-.26.88,1.22,1.22,0,0,1-.81.45L166,218a1.23,1.23,0,0,1-.88-.26,1.21,1.21,0,0,1-.44-.81c-.18-1.82-.41-3.65-.6-5.48a1.18,1.18,0,0,1,.27-.87,1.2,1.2,0,0,1,.8-.45Zm2.93.48-2.87.32a.37.37,0,0,0-.26.15.35.35,0,0,0-.09.28c.17,1.82.38,3.68.6,5.5a.35.35,0,0,0,.15.26.39.39,0,0,0,.28.09l2.89-.31a.42.42,0,0,0,.28-.16.45.45,0,0,0,.09-.3l-.6-5.48a.39.39,0,0,0-.15-.26.42.42,0,0,0-.29-.09Z"/><path class="cls-9" d="M244.84,205.62l2.88-.31a1.2,1.2,0,0,1,1.32,1.07l.6,5.47a1.22,1.22,0,0,1-.27.89,1.17,1.17,0,0,1-.81.44l-2.88.32a1.24,1.24,0,0,1-.88-.27,1.17,1.17,0,0,1-.44-.81c-.18-1.82-.41-3.65-.6-5.47a1.22,1.22,0,0,1,1.07-1.33Zm2.93.49-2.86.31a.41.41,0,0,0-.27.15.42.42,0,0,0-.09.29c.18,1.82.39,3.67.6,5.49a.4.4,0,0,0,.15.26.42.42,0,0,0,.29.09l2.89-.31a.41.41,0,0,0,.36-.46l-.59-5.47a.46.46,0,0,0-.15-.27.48.48,0,0,0-.29-.09Z"/><path class="cls-22" d="M226,144.28s-12.9,8.37-37,1.61"/><path class="cls-23" d="M253.08,249.6c-8.65-1.23-44.88-6.38-51.39-7.09-7.4-.8-24.76,5.14-28.73,6.48s-4.67,3.68-4.67,3.68l11.35-.3s13.07,5.52,21.05,9.93"/><path class="cls-24" d="M151.05,228.85s-5.24-19.33-14.93-26.31"/><path class="cls-24" d="M117.37,247.15s6.94-28.89,7.79-33.37"/><path class="cls-24" d="M150,252.69s-11.17,5.24-15.52,16.41"/><path class="cls-24" d="M149.74,249.59s-8.48-.22-14.21,3.67"/><path class="cls-24" d="M263.54,248.56s14.19.4,17.4,8.23"/><path class="cls-24" d="M266.59,246.09s7.21-.42,10.7.75"/><path class="cls-24" d="M267.2,221.76s-.13-16.92,10.27-25.25"/><path class="cls-24" d="M295.64,214.19s5.56,21.3,3.11,27.74"/><path class="cls-24" d="M267.69,234.18s2.68-5.79,6.53-7.59"/><path class="cls-22" d="M227.66,146.44s-7.3,8.59-24.35,9.18"/><path class="cls-21" d="M168,89.23l-.69.19h0a9.55,9.55,0,1,0,8.13,1c.54,2.78.47,6.29-3.07,7L171.86,92A3.28,3.28,0,0,0,168,89.23Z"/><path class="cls-21" d="M236.5,81.84c.24,0,.47,0,.71,0h0a9.55,9.55,0,1,1-7.71,2.76c.06,2.83.88,6.25,4.49,6.22l-.69-5.47A3.27,3.27,0,0,1,236.5,81.84Z"/><path class="cls-10" d="M168,69.17a31.65,31.65,0,0,0,.15,5l3.19,29.57a32.8,32.8,0,0,0,36,29h0a32.79,32.79,0,0,0,29-36l-3.19-29.56a32.55,32.55,0,0,0-1.06-5.46c-5.81-9.44-16.06-9.4-19.46-9.11-4.49.39-8.79,1-28.14,3.33C174.26,57.1,169.85,63.45,168,69.17Z"/><path class="cls-8" d="M196.08,108a8.46,8.46,0,0,0,16.84-1.66h0a1.47,1.47,0,0,0-1.6-1.31l-13.9,1.37a1.47,1.47,0,0,0-1.31,1.6Z"/><path class="cls-25" d="M199.87,114.23a8.47,8.47,0,0,0,9.79-.37,5.66,5.66,0,0,0-9.79.37Z"/><path class="cls-9" d="M211.5,105l-13.07,1.3c-.06,1.46.75,2.86,1.75,3.08,1.22.27,10.66-.91,11.25-1.72A5,5,0,0,0,211.5,105Z"/><path class="cls-21" d="M224.29,97.48a4.79,4.79,0,1,0,5.2,4.35A4.79,4.79,0,0,0,224.29,97.48Z"/><path class="cls-21" d="M183.35,101.9a4.79,4.79,0,1,0,5.19,4.35A4.8,4.8,0,0,0,183.35,101.9Z"/><path class="cls-8" d="M181.8,84.85a1.17,1.17,0,0,1-1.61-.35,1.16,1.16,0,0,1,.35-1.6,10.84,10.84,0,0,1,10.15-1.06,1.16,1.16,0,1,1-1,2.11A8.46,8.46,0,0,0,181.8,84.85Z"/><path class="cls-8" d="M223.3,80.37a8.51,8.51,0,0,0-7.94.81,1.16,1.16,0,1,1-1.4-1.85,10.89,10.89,0,0,1,10.14-1.14,1.16,1.16,0,0,1-.8,2.18Z"/><path class="cls-8" d="M170.72,98.23s4.65-2.51,3.75-10.82-.67-6.27-1.14-10.61,1.72-12.25,10.52-13.2l31.68-3.42c8.79-1,12.63,6.32,13.09,10.66s.25,2.28,1.15,10.6,6,9.77,6,9.77c-.71-6.59,1-9.4,1-9.4l-.83-7.64h0c-2.28-22-18.82-22-23.32-21.63s-8.79,1-28.14,3.33-17.86,23.05-17.86,23.05h0l1.11,10.34S170,91.63,170.72,98.23Z"/><path class="cls-8" d="M219.74,85h0a2.65,2.65,0,0,1,2.92,2.35l.37,3.44a2.65,2.65,0,0,1-2.35,2.92h0a2.65,2.65,0,0,1-2.92-2.35l-.37-3.44A2.65,2.65,0,0,1,219.74,85Z"/><path class="cls-26" d="M201.55,96.21A24.11,24.11,0,0,0,200,99.86c-.77,2.91,4.78,4.07,4.76,1.1a11,11,0,0,0-.95-3.71C202.47,94,202.45,94.37,201.55,96.21Z"/><path class="cls-8" d="M183.13,95.4a1,1,0,0,1-1.54-.42,1.4,1.4,0,0,1,.3-1.77,9.09,9.09,0,0,1,9.68-1,1.41,1.41,0,0,1,.57,1.71,1,1,0,0,1-1.46.61C188.19,93.17,185.33,93.84,183.13,95.4Z"/><path class="cls-27" d="M195.65,43.28c39.41-5,71.15,2.14,70.88,15.82-.08,4.63-3.83,9.42-10.27,13.93,9.05-5.27,14.47-11.09,14.57-16.67.27-13.68-31.47-20.77-70.88-15.82-26.07,3.27-49,11-61.56,19.8C151.52,52.69,172.32,46.2,195.65,43.28Z"/><path class="cls-21" d="M9.73,115.38l19.6-.18c7.73-.07,7.23-11.4,0-11.33l-19.6.18C2,104.12,2.46,115.45,9.73,115.38Z"/><path class="cls-14" d="M53.25,64.24c.13-.78.29-1.53.46-2.25s.39-1.43.61-2.1a19.14,19.14,0,0,1,3.36-6.18,15.4,15.4,0,0,1,5.16-4.05A17.3,17.3,0,0,1,68.49,48a22.77,22.77,0,0,1,6.43.19q1.08.18,2.16.45c.73.18,1.44.39,2.15.63h0a.34.34,0,0,1,.18.15.33.33,0,0,1,0,.24v0A36.09,36.09,0,0,1,73,60.57c-4.29,4.78-10.76,8.41-19.56,4a.27.27,0,0,1-.14-.14.32.32,0,0,1,0-.19Z"/><path class="cls-18" d="M70.65,86.76a14.06,14.06,0,0,0-5.47,1.1A8.32,8.32,0,0,0,55.4,85.8a15.28,15.28,0,0,0-29.28,6.1c0,.3,0,.6,0,.89a8.22,8.22,0,0,0-1-.06,8.33,8.33,0,0,0-8.33,8.34,8.24,8.24,0,0,0,.16,1.65l-.45,0a6.17,6.17,0,0,0-4.76,10.1c5.31.72,10.54.5,13.28.92,3.23.49,29.85-12,54.36-23.92A14.07,14.07,0,0,0,70.65,86.76Z"/><path class="cls-14" d="M41.35,50.87c.06-.95.07-1.87.06-2.76s-.07-1.79-.16-2.63A22.89,22.89,0,0,0,39,37.31a18.51,18.51,0,0,0-5-6.13,21.26,21.26,0,0,0-6.21-3.41,28.22,28.22,0,0,0-7.61-1.49c-.88-.05-1.77-.07-2.66-.05s-1.8.08-2.69.17h0a.35.35,0,0,0-.25.14.34.34,0,0,0-.08.26v0A43.68,43.68,0,0,0,19.15,41.3c3.77,6.76,10.41,12.75,21.92,9.91a.37.37,0,0,0,.2-.12.35.35,0,0,0,.08-.22Z"/><path class="cls-28" d="M47.21,91.63V64.36c0-7.68-3.64-11.75-7.27-15.22"/><path class="cls-28" d="M47.21,91.63V73.43c0-5.13,3.63-7.85,7.27-10.16"/><path class="cls-24" d="M17.69,110.21A12.18,12.18,0,0,1,34.56,99,7.16,7.16,0,0,1,43,97.22a13.12,13.12,0,0,1,12-7.88"/><path class="cls-10" d="M68.27,102.42l6.8,6,21.4,5.08c5.77,1.36,6-4.15,6-4.33h0V95.53c0-5.36-5.42-6-5.59-6h0L73.21,86.91Z"/><path class="cls-21" d="M75.07,108.44l21.4,5.08c5.77,1.36,6-4.15,6-4.33h0v-2.1c-4-1.09-8.58-2.29-10.29-2.6a16.93,16.93,0,0,0-7,.54Z"/><path class="cls-10" d="M9.32,121.31l19.61-.18c7.72-.07,7.22-11.4,0-11.34L9.29,110C1.56,110,2.06,121.38,9.32,121.31Z"/><path class="cls-10" d="M23.83,121.41l19.57-1.16c7.71-.45,6.65-11.74-.6-11.31l-19.57,1.15C15.52,110.54,16.58,121.83,23.83,121.41Z"/><path class="cls-21" d="M11.63,121.3a35.72,35.72,0,0,0-.33-3.79A2,2,0,0,0,9.54,116H8A3.47,3.47,0,0,0,4.6,118.8a5.68,5.68,0,0,0,4.72,2.51Z"/><path class="cls-10" d="M45.54,119.83l29.53-11.39c-2.71-3.54-4.09-6.77-2-9.74,1.41-2-5.69-1.13-14.48.58l-17.52,9C35.52,111.15,38.86,122.41,45.54,119.83Z"/><path class="cls-21" d="M72.11,101A3.4,3.4,0,0,1,73,98.81l-8.45-.59c-1.83.29-3.84.65-6,1.06l-17.52,9a4.89,4.89,0,0,0-1.13.8l-12.28.73a3.78,3.78,0,0,0-.49,0l-11.29.1a5.7,5.7,0,0,0,2.53,3.28h0c.5.42,1.78.89,4,.84l15.85-.34h6a20.14,20.14,0,0,0,3.93-1.33l0-.08C54.19,109.59,65.44,104.12,72.11,101Z"/><path class="cls-10" d="M48.06,109.84,81.75,97.72c8.51-3.06-2.89-17.49-15.84-11.2L43.55,97.4C37.56,100.31,40.85,112.44,48.06,109.84Z"/><path class="cls-10" d="M30.87,111.28l14.57-1.1a6.14,6.14,0,0,0,5.64-6.57h0A6.13,6.13,0,0,0,44.52,98L30,99.07a6.13,6.13,0,0,0-5.64,6.57h0A6.13,6.13,0,0,0,30.87,111.28Z"/><path class="cls-21" d="M30.24,110.62l2.87-.22c.9-.07,1-1.1,1-1.1a46.48,46.48,0,0,0-.72-4.7,2.25,2.25,0,0,0-2-1.55l-1.67.13a3.75,3.75,0,0,0-3.44,4h0A3.75,3.75,0,0,0,30.24,110.62Z"/><path class="cls-29" d="M75.33,70A194.4,194.4,0,0,1,301.39,40.87m76.52,75.61A194.52,194.52,0,0,1,378,306.35m-115.51,91.8a195.52,195.52,0,0,1-109.24-.33M30.41,289.46a194.82,194.82,0,0,1,.91-158"/></g></g></svg>