<svg xmlns="http://www.w3.org/2000/svg" xmlns:xlink="http://www.w3.org/1999/xlink" viewBox="0 0 374.07 376.78"><defs><style>.cls-1,.cls-3,.cls-5{fill:none;}.cls-2{fill:#507548;}.cls-3{stroke:#fff;}.cls-3,.cls-5{stroke-miterlimit:10;}.cls-4{fill:#2a573f;}.cls-5{stroke:#507548;}.cls-6{fill:#72a450;}.cls-7{fill:#973626;}.cls-8{fill:#ab4738;}.cls-9{fill:#184738;}.cls-10{fill:#976847;}.cls-11{fill:#77502f;}.cls-12{fill:#ab7e5a;}.cls-13{fill:#fff;}.cls-14{fill:#b89273;}.cls-15{fill:#894044;}.cls-16{clip-path:url(#clip-path);}.cls-17{opacity:0.16;}.cls-18{fill:#895745;}.cls-19{fill:#976150;}.cls-20{fill:#4c3128;}.cls-21{fill:#ab4a4f;}.cls-22{clip-path:url(#clip-path-2);}.cls-23{clip-path:url(#clip-path-3);}.cls-24{fill:#9e7c5d;}.cls-25{fill:#6d425d;}.cls-26{fill:#46683d;}.cls-27{fill:#60314f;}.cls-28{fill:#1c4c3c;}.cls-29{fill:#c77322;}.cls-30{fill:#b86517;}.cls-31{fill:#c4a483;}.cls-32{fill:#cbb292;}.cls-33{fill:#9c6a44;}</style><clipPath id="clip-path"><path class="cls-1" d="M262.32,305.45c-13,6.88-26.45,12.29-41.44,13.74-5.86.59-11.79.93-17.72,1l-16.28-.68a123,123,0,0,1-41.69-11c4.23-20.67,10.85-46.22,11-49.15.55-15.82-2.45-37.56-4.39-64.74-1.54-21.66.31-41,.54-41.13a156.77,156.77,0,0,1,24.28-8.83c1.24,2.28,9.48,16.93,17.13,17.59l6.21,23.22,5.22-23.22s14.08-14.18,16.87-17.87c15.11,4.07,14.33,5.71,25.05,9.11C250.22,172,251,212.88,253,263.89,253.09,266.13,258.86,283.35,262.32,305.45Z"/></clipPath><clipPath id="clip-path-2"><path class="cls-1" d="M155.73,235c-1.64-32.43,2-69.19-3.44-81.49-7.51,3.26-18.69,7.27-22.45,29.43-3.27,19.27-7.65,59.55-7.08,65.38a32.29,32.29,0,0,0,1.86,8.66C136,251,147.16,244.25,155.73,235Z"/></clipPath><clipPath id="clip-path-3"><path class="cls-1" d="M271,248.31c.46-9.12,7.55-81.33-23.95-94.82-6.31,8.57.61,17.84-.91,40.67-1.09,16.5-2.5,40.15-2.5,40.15l2.23.56c5.83,5.33,17.73,11.64,24.79,15.74C270.83,249.51,271,248.49,271,248.31Z"/></clipPath></defs><g id="Layer_2" data-name="Layer 2"><g id="OBJECTS"><path class="cls-2" d="M231.85,268.49a134.15,134.15,0,0,1,15.23-83c4.72-8.56,10.65-16.83,19-21.86,7.81-4.67,17.31-6.27,24.54-11.8,5.75-4.4,9.48-10.85,13.91-16.57A78.2,78.2,0,0,1,340,109.65c8.39-3,18.38-4.3,25.69.79,7.48,5.22,9.63,15.7,7.74,24.63s-7,16.76-11.63,24.61-9,16.34-9.09,25.46c-.2,16.62,3.7,26.52-5.29,41.83-3.09,5.27-6.39,10.51-10.83,14.7-3.75,3.53-8.19,6.22-12.52,9-14,9-27,19.38-40,29.73-8.61,6.87-8.59,19.31-10.72,29.55q-3.12,15-6.26,30Z"/><path class="cls-3" d="M358.11,129.06A412.22,412.22,0,0,0,255.6,286"/><path class="cls-3" d="M330.41,122.53c-4.05,4.16-5.51,10.12-6.8,15.78-2,8.83-3.32,25.91-5.34,34.74"/><path class="cls-3" d="M300.9,197.9c7.63-7.45,17.88-11.41,27.34-16.32a136.68,136.68,0,0,0,35.87-27"/><path class="cls-3" d="M293.63,163c-7,14.11-9.91,29.82-12.76,45.3Q277.42,227,274,245.68"/><path class="cls-3" d="M263.24,264.41c7.57-9.38,19.9-13.08,30.87-18.05A117.43,117.43,0,0,0,329,222.11"/><path class="cls-4" d="M111,291.83c-3.8-17.72-8.79-35.42-17.78-51.17S70.86,211.15,54,204.49a63.55,63.55,0,0,0-27.72-4.28c-6.23.44-12.55,1.87-17.69,5.42S-.29,215.14,0,221.38c.74,15.17,21.84,20.6,28,34.5,3.24,7.36,1.71,15.9,3.3,23.78,2.65,13.09,13.49,22.86,24.51,30.42a189.16,189.16,0,0,0,42.06,21.7c4.78,1.75,10,3.31,14.9,1.82s8.67-7.35,6.19-11.81Z"/><path class="cls-5" d="M22,214.6C44.51,223,63,240.31,75.49,260.86s19.13,44.18,22.34,68"/><path class="cls-5" d="M19.27,226.8C23.07,234,31.14,237.92,39,239.92c10.35,2.61,22.24,3.29,29.44,11.18"/><path class="cls-5" d="M57.83,221.86c7.6,4.86,12.62,12.94,16,21.32a83,83,0,0,1,6,27.86"/><path class="cls-5" d="M46.27,263.54c3.76,8,12.69,11.88,20.54,15.95a125.93,125.93,0,0,1,27.07,18.94"/><path class="cls-6" d="M103.74,326.64c-3.09-22.06-6.2-44.24-12.83-65.52s-17-41.78-32.84-57.44C50.33,196,41,189,37.76,178.57c-3.55-11.58,1.57-24.34-1.24-36.12-1.6-6.71-5.63-12.53-9.23-18.41A167.33,167.33,0,0,1,9.18,82.79C7.31,76.25,5.84,69.3,7.43,62.69c2.18-9.1,10.09-16.12,19-18.95s18.67-1.92,27.65.7c21,6.11,38.48,21.21,50.93,39.15s20.31,38.63,26.84,59.47c20.28,64.8,28.61,135.38,9.37,200.5Z"/><path class="cls-3" d="M22.71,54.11c31.21,18.66,54.26,48.94,69.49,82S115.42,205,121.81,240.75c5.36,30.06,9.65,61,3.9,91"/><path class="cls-3" d="M27.57,90.26c-1.09.12-.77,1.82-.09,2.7,7.12,9.2,18.12,14.44,28.94,18.7s22.13,8,31.21,15.29"/><path class="cls-3" d="M74.84,58.6c11.76,12,18.52,28.15,21.84,44.61s3.45,33.38,3.56,50.17"/><path class="cls-3" d="M55.65,152a33.13,33.13,0,0,0,7.18,8c17.82,15.58,39.18,27.34,54.27,45.59"/><path class="cls-3" d="M124.77,146.41a248.51,248.51,0,0,1,1.49,124"/><path class="cls-3" d="M83.39,215.18c17.33,23.68,34.88,47.77,44.89,75.35"/><path class="cls-4" d="M298.56,275.66a37.92,37.92,0,0,1-4.84-15.15,8.84,8.84,0,0,1,.26-3.87,5.76,5.76,0,0,1,5.95-3.55,7.19,7.19,0,0,1,5.64,4.36c.57,1.33,1.46,3.19,2.82,2.69a2.78,2.78,0,0,0,1.05-.94c1.53-1.85,4.27-3.23,6.28-1.91,1.16.77,1.71,2.26,2.89,3,2,1.28,4.81-.15,7.07.67a10.83,10.83,0,0,0,1.78.71c1.89.33,3.25-1.68,4.87-2.71a6.43,6.43,0,0,1,7.58,1,10.41,10.41,0,0,1,3,7.44,15.22,15.22,0,0,1-17.6,15.43Z"/><path class="cls-7" d="M327.81,290.73c-3-.66-4.1-4.4-3.79-7.44a15.29,15.29,0,0,1,8.56-12.17,13.56,13.56,0,0,1,14.52,2.23,12.18,12.18,0,0,1,2.43,14.27,4.93,4.93,0,0,1-1.77,2,6.33,6.33,0,0,1-2.36.6l-7.6.9Z"/><path class="cls-8" d="M315.78,289.14c-2.7.34-5.62.64-8-.68a9,9,0,0,1-3-2.91,13.84,13.84,0,0,1-1.46-12.73,12.42,12.42,0,0,1,10.12-7.64c3.36-.3,6.67.88,9.7,2.35a15.52,15.52,0,0,1,4.89,3.36c3,3.34,3,8.78.51,12.49a13.29,13.29,0,0,1-11.71,5.38Z"/><path class="cls-7" d="M306.07,287.59c-9,4.29-24,4.64-26-8-1.51-9.49,5.53-12.58,13.38-12.86,4.31-.16,9,.65,11.89,3.89,3.43,3.91,2.91,9.79,2.18,14.95a2.77,2.77,0,0,1-.41,1.32A2.82,2.82,0,0,1,306.07,287.59Z"/><path class="cls-9" d="M57.77,286c-4.08-4.53-3.84-11.95-.33-16.94s9.61-7.7,15.69-8.26c2.71-.24,5.52-.12,8.08-1.07,8.59-3.17,11.33-16.93,20.49-17,11.13-.11,13.6,20.11,24.72,20a28.09,28.09,0,0,0,4.43-.68,19.39,19.39,0,0,1,21.24,26.32c-1.15,2.89-4,5.84-6.91,4.72Z"/><rect class="cls-10" x="49.41" y="283.42" width="104.81" height="29.57"/><rect class="cls-10" x="49.41" y="315.31" width="104.81" height="29.57"/><rect class="cls-10" x="49.41" y="347.21" width="104.81" height="29.57"/><rect class="cls-11" x="49.41" y="312.99" width="104.81" height="2.32"/><rect class="cls-11" x="49.41" y="344.89" width="104.81" height="2.32"/><rect class="cls-10" x="249.91" y="283.42" width="104.81" height="29.57"/><rect class="cls-10" x="249.91" y="315.31" width="104.81" height="29.57"/><rect class="cls-10" x="249.91" y="347.21" width="104.81" height="29.57"/><rect class="cls-11" x="249.91" y="312.99" width="104.81" height="2.32"/><rect class="cls-11" x="249.91" y="344.89" width="104.81" height="2.32"/><rect class="cls-12" x="106.49" y="57.28" width="13.93" height="271"/><rect class="cls-12" x="276.02" y="57.28" width="13.93" height="271"/><polygon class="cls-4" points="302.31 70.78 101.81 70.78 101.81 36.28 202.78 0 302.31 36.28 302.31 70.78"/><rect class="cls-9" x="101.81" y="36.28" width="200.5" height="34.5"/><path class="cls-13" d="M262.32,305.45c-13,6.88-26.45,12.29-41.44,13.74-5.86.59-11.79.93-17.72,1a160.67,160.67,0,0,1-16.28-.68,123,123,0,0,1-41.69-11c4.23-20.67,10.85-46.22,11-49.15.55-15.82-2.45-37.56-4.39-64.74-1.54-21.66.31-41,.54-41.13a156.77,156.77,0,0,1,24.28-8.83c2.39-.65,3.83-1,3.83-1h38.86c1,.24,1.88.48,2.74.71,15.11,4.07,14.33,5.71,25.05,9.11C250.22,172,251,212.88,253,263.89,253.09,266.13,258.86,283.35,262.32,305.45Z"/><path class="cls-14" d="M241.28,85.19a9.78,9.78,0,0,1-4.34,4.19c-8.1,4.57-18,4.12-27.27,4.27q-8.23.12-16.45,1c-7.28.79-16.23.16-23.1-2.6-3.62-1.45-11.5-3.76-12.67-8.47a4.89,4.89,0,0,1-.08-2,4.76,4.76,0,0,1,.48-1.45,8.77,8.77,0,0,1,1.74-2.25c3.52-3.39,8.32-5.11,13.09-6.17,5.8-1.28,12-3.13,17.86-3.74a108.62,108.62,0,0,1,22.08.08A85.53,85.53,0,0,1,232,72.59a17.3,17.3,0,0,1,7.57,4.4,8.86,8.86,0,0,1,2.18,4.53A6.5,6.5,0,0,1,241.28,85.19Z"/><path class="cls-15" d="M262.32,305.45c-13,6.88-26.45,12.29-41.44,13.74-5.86.59-11.79.93-17.72,1l-16.28-.68a123,123,0,0,1-41.69-11c4.23-20.67,10.85-46.22,11-49.15.55-15.82-2.45-37.56-4.39-64.74-1.54-21.66.31-41,.54-41.13a156.77,156.77,0,0,1,24.28-8.83c1.24,2.28,9.48,16.93,17.13,17.59l6.21,23.22,5.22-23.22s14.08-14.18,16.87-17.87c15.11,4.07,14.33,5.71,25.05,9.11C250.22,172,251,212.88,253,263.89,253.09,266.13,258.86,283.35,262.32,305.45Z"/><g class="cls-16"><g class="cls-17"><path class="cls-13" d="M163.68,139.64c-.08,15,2.13,29.85,3.92,44.67,1.82,15,3,30.06,3.6,45.18.33,7.48.86,15,.65,22.51-.19,7.17-1.71,14.09-3.22,21.08q-2.48,11.4-4.93,22.8c-1.6,7.35-3.63,14.75-4.44,22.24-.54,4.95,6.9,5.44,8.32,1.12,2.41-7.32,3.57-15.19,5.2-22.72s3.29-15.2,4.93-22.8a121,121,0,0,0,3.14-20.82c.29-7.49-.26-15-.6-22.52-.67-15.11-1.69-30.18-3.63-45.19-2-15.18-4.19-30.3-5.57-45.55-.42-4.65-7.35-4.83-7.37,0Z"/></g><g class="cls-17"><path class="cls-13" d="M188.51,152.83c-1.46,7.09-.81,14,0,21.16.84,7.76,1.51,15.52,1.9,23.32.77,15.6.66,31.24.22,46.84-.88,31-3.64,61.91-3.88,92.88-.05,5.24,7.57,5.07,8,0,2.72-30.49,3.69-61.38,4.62-92,.47-15.32.53-30.65-.3-45.95-.42-7.79-1.05-15.58-2-23.33-.89-7.34-2.14-14.55-1.28-22,.48-4.13-6.44-5.05-7.27-1Z"/></g><g class="cls-17"><path class="cls-13" d="M208.36,148.62c-.75,31.27-.85,62.68.48,93.93.66,15.64,1.93,31.23,3.92,46.76,2,15.21,3.89,30.68,7.24,45.66,1,4.33,8.38,3.49,7.88-1.06-1.7-15.53-4.88-30.89-6.82-46.39-1.9-15.24-3.06-30.53-3.72-45.87-1.35-31-.73-62-1.71-93-.14-4.67-7.15-4.69-7.27,0Z"/></g><g class="cls-17"><path class="cls-13" d="M228,139c.13,33.32,2.43,66.63,2.74,100,.14,15.92,1.24,31.71,5,47.22a172.29,172.29,0,0,0,7.4,22.55c2.91,7.32,5.68,14.49,5.78,22.46.08,5.27,7.84,5.2,8.13,0,.87-15.25-8.37-29.58-12.22-44-4.24-15.84-5.42-31.92-5.57-48.26-.31-33.27-.87-66.82-3.95-100-.43-4.62-7.35-4.81-7.33,0Z"/></g><g class="cls-17"><path class="cls-13" d="M149.62,289.62l-1.3-.3c-4.27-1.15-7.17,5.15-3.08,7.29,10.64,5.57,23.1,8.49,34.89,10.39a162.29,162.29,0,0,0,36.65,1.66,196.25,196.25,0,0,0,36.17-6c11.64-3,23.74-6.75,34.35-12.52,4-2.18,1.3-8.9-3.14-7.46-11,3.57-21.61,8-32.84,10.88a186.24,186.24,0,0,1-34.54,5.61A173.08,173.08,0,0,1,183,298.1c-12-1.58-23.16-5.33-34.71-8.78V297l1.3-.05c4.83,0,4.59-6.83,0-7.34Z"/></g><g class="cls-17"><path class="cls-13" d="M144.62,273.78c10.8,5,22.06,9.35,33.77,11.62s23.45,2,35.24,1.46c21.51-.92,46.28-2.94,64.38-15.83a4.16,4.16,0,0,0-4.19-7.17c-9.67,4.54-19.39,8.26-29.89,10.36a205.28,205.28,0,0,1-31.09,3.36c-10.94.5-22.07,1.05-32.89-1-11.13-2.08-21.7-6.24-32.47-9.62-3.94-1.24-6.74,5-2.86,6.8Z"/></g><g class="cls-17"><path class="cls-13" d="M145.37,260.25c21.84,5.4,45.52,7.45,68,7.23,22.27-.22,46-2.68,66.68-11.3,4.79-2,3.12-9.53-2.22-8-21.56,6-42.82,9.92-65.3,10-22.33.12-44-3.17-66.13-5.42-4.3-.43-5.12,6.47-1,7.48Z"/></g><g class="cls-17"><path class="cls-13" d="M146.15,240.8A409.85,409.85,0,0,0,215.09,245q17-.39,34-2.22c5.74-.61,11.47-1.35,17.19-2.18,5.1-.74,9.63-1.36,13.77-4.61,3.2-2.5-.26-8-3.93-6.76-9.63,3.35-20.51,3.93-30.6,4.94Q229,235.84,212.4,236.3a469.2,469.2,0,0,1-65.23-3c-4.23-.48-5.26,6.85-1,7.47Z"/></g><g class="cls-17"><path class="cls-13" d="M143.39,222.23a382.81,382.81,0,0,0,68.51,3.67q17.13-.5,34.18-2.29c5.49-.58,11-1.16,16.46-2,4.2-.66,7.67-2,8.89-6.43s-5.62-7.67-7.68-3.24c.16-.34,0,0-.77.23a16.68,16.68,0,0,1-2.93.41c-2.86.39-5.72.77-8.59,1.11q-7.62.9-15.25,1.57c-10.19.89-20.4,1.43-30.62,1.71-20.46.56-40.82-.56-61.22-1.95-4.09-.28-5.11,6.61-1,7.24Z"/></g><g class="cls-17"><path class="cls-13" d="M140.66,207.15a722.14,722.14,0,0,0,75.17.07q18.55-.84,37-2.53c11.43-1.06,23.18-1.72,33.86-6.25,4.31-1.83,1.13-8.23-3.06-7.28-23,5.21-47.11,6.12-70.57,7.33-24.14,1.24-48.29,1.33-72.45,1.15-4.87,0-4.8,7.23,0,7.51Z"/></g><g class="cls-17"><path class="cls-13" d="M141.8,189.41c11.25,1.81,23.18,1.49,34.56,1.9,11.86.42,23.73.76,35.59.44,11.6-.31,23.18-1.25,34.71-2.53s24.23-1.93,35.57-5.07c4.1-1.13,3.3-7.46-1-7.44-11.46,0-23.16,2.73-34.56,4S223.55,183,212,183.3c-11.27.35-22.54.1-33.81-.25-11.62-.37-23.8-1.68-35.39-.64-3.67.33-5.22,6.31-.95,7Z"/></g><g class="cls-17"><path class="cls-13" d="M141,174.71c25.51.83,51.09.14,76.59-.58q18.69-.52,37.36-1.54c12.64-.7,25.89-.64,38.33-3.24,4.41-.92,3.09-7.26-1-7.51-12.61-.77-25.62,1-38.22,1.72s-24.9,1.3-37.36,1.84c-25.22,1.11-50.45,1.29-75.68,2.08-4.65.14-4.66,7.08,0,7.23Z"/></g><g class="cls-17"><path class="cls-13" d="M140.35,160.67c23.29,3.51,46.54,0,69.9-.58a268.57,268.57,0,0,1,35,1.57c6.2.65,12.39,1.44,18.56,2.31,6,.84,12,2.24,18.06,2.45,4.54.17,5.38-6.67,1.06-7.84-5.73-1.57-11.9-2-17.78-2.86-5.72-.81-11.46-1.57-17.21-2.2A275.61,275.61,0,0,0,212,151.75c-23.61.54-47.1,4.25-70.72,1.78-4-.42-5,6.53-1,7.14Z"/></g></g><path class="cls-15" d="M179,137.38c13.41-1.47,27.9-2.51,43.06,0,.85,6.89,0,7.83,0,7.83H177.39Z"/><path class="cls-18" d="M185.15,123.8s-.16,12.11-.16,15-6,4.83-6,4.83a34.55,34.55,0,0,0,7.12,7.18,22.26,22.26,0,0,0,30-2.23,13,13,0,0,0,3.17-5s-4.75-1.7-5.3-4,0-17.13,0-17.13Z"/><path class="cls-18" d="M177.61,104.77c-2-4.63-4.64-3.47-6-1.81s.83,9.48,2.49,12.61,5.3,0,5.3,0Z"/><path class="cls-18" d="M223.1,104.77c2-4.63,4.64-3.47,6-1.81s-.83,9.48-2.49,12.61-5.3,0-5.3,0Z"/><path class="cls-19" d="M223.77,100.66c-.26,6.13-.82,13.8-2.13,18.46-2.07,7.39-3.73,11.12-9.95,15.69-5.62,4.13-14.91,4.61-22.71-.24-5-3.09-8.12-8.06-10.19-15.45-1.54-5.5-2-15.18-2.22-21.6-.1-3.78-.08-6.42-.08-6.42,0-9.59,3.79-15.69,8.35-19.56a23.82,23.82,0,0,1,30.75,0c4.56,3.87,8.36,10,8.36,19.56C224,91.1,224,95.29,223.77,100.66Z"/><path class="cls-18" d="M223.77,100.66c-7.73-4.41-41.13-4.55-46.15.23a89,89,0,0,0-1.13-9.79c0-9.59,3.79-15.69,8.35-19.56a23.82,23.82,0,0,1,30.75,0c4.56,3.87,8.36,10,8.36,19.56C224,91.1,224,95.29,223.77,100.66Z"/><path class="cls-20" d="M190.24,101.69c0,1.2-.71,2.17-1.58,2.17s-1.59-1-1.59-2.17.71-2.18,1.59-2.18S190.24,100.49,190.24,101.69Z"/><path class="cls-20" d="M212.85,101.69c0,1.2-.71,2.17-1.59,2.17s-1.58-1-1.58-2.17.71-2.18,1.58-2.18S212.85,100.49,212.85,101.69Z"/><path class="cls-20" d="M190.57,95.15a.76.76,0,0,0-.14-1,1.07,1.07,0,0,0-.56-.12,8.57,8.57,0,0,0-4.94,2.07c-.31.28-1.08.72-.64,1.21a.83.83,0,0,0,.76.2,3,3,0,0,0,.74-.31,14.69,14.69,0,0,1,3.37-1.3,2.65,2.65,0,0,0,1.26-.54A.8.8,0,0,0,190.57,95.15Z"/><path class="cls-20" d="M208.94,96a.75.75,0,0,1,0-1,1,1,0,0,1,.53-.23,8.66,8.66,0,0,1,5.24,1.13c.35.22,1.19.51.84,1.07a.81.81,0,0,1-.7.34,2.73,2.73,0,0,1-.79-.17,14.35,14.35,0,0,0-3.55-.66,2.61,2.61,0,0,1-1.33-.3A.86.86,0,0,1,208.94,96Z"/><path class="cls-20" d="M197.8,127.48c-.86-.17-2.84-.79-2.91-1.87a.41.41,0,0,1,.1-.32c.42-.35,1.39.15,1.8.26a11.74,11.74,0,0,0,2.28.34,15,15,0,0,0,4.61-.53,6.07,6.07,0,0,1,2.93-.39c.07.47-.36.87-.76,1.13A11.16,11.16,0,0,1,197.8,127.48Z"/><path class="cls-18" d="M198,114.93a1.64,1.64,0,0,0,.13.88c.36.66,1.67.66,2.32.74a5.06,5.06,0,0,0,2.95-.33,1,1,0,0,0,.47-.41,1.06,1.06,0,0,0,.08-.47,18.65,18.65,0,0,0-1.28-6.83c-.35-1-1.34-3.36-2.73-2.27a2,2,0,0,0-.53.8,23.14,23.14,0,0,0-.91,4A19.45,19.45,0,0,0,198,114.93Z"/><path class="cls-21" d="M176.43,144.36a11.91,11.91,0,0,1,2.59-7c2.49,9.28,4.53,20.11,14.68,24.87a52.64,52.64,0,0,0-9.19,12.53C177,167.18,177.39,154.09,176.43,144.36Z"/><path class="cls-21" d="M224.67,144.36a11.91,11.91,0,0,0-2.59-7c-3.2,7.83-4.43,14.31-16.93,24.87a52.64,52.64,0,0,1,9.19,12.53C221.88,167.18,224.67,156.08,224.67,144.36Z"/><path class="cls-15" d="M271,248.31c.46-9.12,7.55-81.33-23.95-94.82-6.31,8.57.61,17.84-.91,40.67-1.09,16.5-2.5,40.15-2.5,40.15l2.23.56c5.83,5.33,17.73,11.64,24.79,15.74C270.83,249.51,271,248.49,271,248.31Z"/><path class="cls-15" d="M155.73,235c-1.64-32.43,2-69.19-3.44-81.49-7.51,3.26-18.69,7.27-22.45,29.43-3.27,19.27-7.65,59.55-7.08,65.38a32.29,32.29,0,0,0,1.86,8.66C136,251,147.16,244.25,155.73,235Z"/><g class="cls-22"><g class="cls-17"><path class="cls-13" d="M157.45,154.18a24.21,24.21,0,0,0-5,1.76A20.82,20.82,0,0,0,148,159.3a38.9,38.9,0,0,0-6.62,8.49,68.55,68.55,0,0,0-4.9,11.17,86.92,86.92,0,0,0-3.37,11.74c-3.36,15.8-2.62,32-2.24,48,.1,4.53.18,9.06.12,13.59s-.83,9.3.19,13.75c.44,1.9,3.62,2.54,4.46.58,1.64-3.8,1.59-7.88,1.69-12s.08-7.91,0-11.86c-.14-7.84-.46-15.67-.43-23.51,0-15.32,1.71-30.63,8.16-44.72a35.05,35.05,0,0,1,6.14-9.48c1.3-1.4,2.75-2.64,4.09-4s2.46-2.84,3.83-4.11a1.72,1.72,0,0,0-1.66-2.85Z"/></g><g class="cls-17"><path class="cls-13" d="M160.07,161.64a47.25,47.25,0,0,0-6.35,8,49.66,49.66,0,0,0-4.84,9.25,78.83,78.83,0,0,0-5,21,218.75,218.75,0,0,0-1.08,21.87q-.18,11.37-.09,22.75c0,4.25.1,8.49.17,12.74,0,2.12.07,4.25.18,6.37a20.44,20.44,0,0,0,.95,6.56,2.47,2.47,0,0,0,4.72,0,17.92,17.92,0,0,0,.63-5.65c0-2,0-3.94-.07-5.91q-.12-5.46-.16-10.92-.1-11.16,0-22.3c.15-14.07.25-28.35,4.5-41.91a103.45,103.45,0,0,1,3.74-9.89c1.49-3.49,3.35-6.75,5-10.14a1.51,1.51,0,0,0-2.35-1.82Z"/></g><g class="cls-17"><path class="cls-13" d="M128.92,159.84a46.34,46.34,0,0,0,15.75,21.67c6.44,4.84,16.94,10.63,25.28,8.51a3.09,3.09,0,0,0,.73-5.58c-3.08-1.69-6.79-2.28-10.11-3.47a46.22,46.22,0,0,1-10.77-5.62,49.64,49.64,0,0,1-15.64-17.72c-1.48-2.84-6.36-.88-5.24,2.21Z"/></g><g class="cls-17"><path class="cls-13" d="M124.51,182.41a42.26,42.26,0,0,0,17.82,16.23c6.32,3,16.71,6.68,23.62,3.94,3-1.19,3.55-5.69,0-6.67s-7.26-.45-10.85-1.14a41.43,41.43,0,0,1-9.52-3,46.26,46.26,0,0,1-16.5-12.84c-2.08-2.58-6.3.76-4.57,3.52Z"/></g><g class="cls-17"><path class="cls-13" d="M119.22,209.14a69.57,69.57,0,0,0,24.86,7.16c8.66.68,17-1.49,25.24-3.92,3-.89,3.14-5.4,0-6.23-7.41-1.94-15.2,1.85-22.78,1.67-8.48-.21-16.8-2.29-25.07-4-3.06-.65-5.41,3.84-2.25,5.36Z"/></g><g class="cls-17"><path class="cls-13" d="M119.63,228.28c8.21,3,17.72,3.29,26.34,2.4,8.22-.84,18-2.15,24.76-7.29,2.08-1.58,1.79-5.81-1.5-5.56-8.14.64-15.93,3.65-24.09,4.47s-16.43.22-24.72.17c-3.48,0-3.83,4.72-.79,5.81Z"/></g><g class="cls-17"><path class="cls-13" d="M118.52,246.45a78.21,78.21,0,0,0,26.61.06c8.4-1.5,18-4.36,24.57-10,2.72-2.34-.21-6.52-3.35-5.74-7.74,1.91-14.9,5.45-22.75,7.19a109.08,109.08,0,0,1-24.29,2.7c-3.22,0-4.14,5.24-.79,5.79Z"/></g><g class="cls-17"><path class="cls-13" d="M139.73,152.48a42,42,0,0,0,25,20.4c5.08,1.56,7.25-6.4,2.19-7.94a33.67,33.67,0,0,1-20.07-16.62c-2.51-4.67-9.63-.52-7.12,4.16Z"/></g></g><g class="cls-23"><g class="cls-17"><path class="cls-13" d="M239.93,155.38c4.81,6.79,9.9,13,13.37,20.67a81.58,81.58,0,0,1,6.35,23.09c2.41,18.68-1.33,36.6-4.18,55a3.22,3.22,0,0,0,6.2,1.71c3.53-8.78,4.3-19.4,5.33-28.75a127,127,0,0,0,.14-29.93c-2.27-17.74-9.29-33.22-22.51-45.38-2.37-2.19-6.76.73-4.7,3.63Z"/></g><g class="cls-17"><path class="cls-13" d="M241.91,175.56c4.49,12,5.27,25.2,5.9,37.91.65,13-.57,25.87-.64,38.87,0,3.45,5.54,4.42,6.19.83,2.44-13.42,1.94-27.91,1.17-41.47-.72-12.51-1.08-27.16-7.44-38.32-1.55-2.7-6.32-.89-5.18,2.18Z"/></g><g class="cls-17"><path class="cls-13" d="M240.94,181.46c6.43-1.09,12.5-4.22,18.1-7.43,5.24-3,12.31-6.27,16.1-11.05,1.8-2.26.24-6.73-3.19-5.48-5.42,2-10.24,6.42-15.14,9.48a116.56,116.56,0,0,1-17.4,8.93,2.88,2.88,0,0,0,1.53,5.55Z"/></g><g class="cls-17"><path class="cls-13" d="M241.12,167.19a48.39,48.39,0,0,0,11.51-6.69c3.44-2.55,7.17-5.23,9.59-8.8,1.9-2.82-1.88-6.55-4.69-4.69-3.34,2.23-6.08,5.37-9.22,7.89s-6.82,4.76-10.05,7.37c-2.27,1.83.17,5.93,2.86,4.92Z"/></g><g class="cls-17"><path class="cls-13" d="M241.12,195.67c15.11-2,31.26-10.41,42.22-20.93,2.58-2.47-1-7.37-3.93-5.09-5.94,4.55-11.74,8.92-18.42,12.36-6.89,3.54-14.07,5.74-21.41,8.08-3.66,1.16-2.06,6.06,1.54,5.58Z"/></g><g class="cls-17"><path class="cls-13" d="M238.16,212.57a133.59,133.59,0,0,0,28.62-9.25c7.36-3.22,16.05-7.91,19.82-15.38a3.05,3.05,0,0,0-4.77-3.68c-6.09,5.64-11.81,10-19.51,13.31-8.38,3.6-17.14,6.28-25.68,9.49a2.86,2.86,0,0,0,1.52,5.51Z"/></g><g class="cls-17"><path class="cls-13" d="M234.69,224.3c10,2.5,19.84.5,29.53-2.47,8.48-2.61,17.49-5.55,23.83-12.07,2.38-2.45-.85-7.14-3.81-4.93-6.43,4.8-13.48,7.57-21.09,10-8.64,2.74-17.76,5.28-26.88,3.79-3.68-.61-5.35,4.76-1.58,5.7Z"/></g><g class="cls-17"><path class="cls-13" d="M234.69,237.61c17.73,6.37,36.45,3.66,53.51-3.66,3.29-1.41,1.4-6.34-1.72-6.38-8.16-.12-16.13,4.36-24.16,5.68a62,62,0,0,1-26.06-1.37c-3.74-1-5.13,4.46-1.57,5.73Z"/></g><g class="cls-17"><path class="cls-13" d="M239.66,250.3c8.36-.66,16.47,2.4,24.87,2.17,7.57-.21,16.16-2.24,22.36-6.74,2.83-2.06,1.26-7.74-2.62-6.21-7.36,2.89-14.11,5.69-22.15,6-7.55.27-14.91-2.09-22.46-1.13-3.69.47-3.88,6.25,0,5.94Z"/></g></g><rect class="cls-24" x="123.26" y="250.61" width="5.33" height="6.74"/><rect class="cls-24" x="269.88" y="250.61" width="5.33" height="6.74"/><path class="cls-9" d="M152.59,226.36c-2.35-2.21-2.92-5.81-2.3-9a15.12,15.12,0,0,1,11.1-11.54c11.47-2.71,22.71,8.5,34.26,6.17a24.87,24.87,0,0,1,4-.77c1.91-.07,3.75.66,5.6,1.17a24.87,24.87,0,0,0,12.27.2c4.8-1.15,9.13-3.7,13.39-6.18s8.66-5,13.51-5.93,10.29-.19,13.9,3.18,5.14,8.76,9.65,10.39c1.57.56,3.32.57,4.8,1.33,2.24,1.15,3.36,3.8,3.39,6.31,0,4.7-3.19,9-7.22,11.37s-8.79,3.27-13.45,3.9a167.62,167.62,0,0,1-32.6,1.16Z"/><path class="cls-9" d="M155.05,227.48a24.71,24.71,0,0,1,14-21.75,7.25,7.25,0,0,0,1.91-1.1,7.37,7.37,0,0,0,1.6-3.15,22.21,22.21,0,0,1,7-9.94c2.38-1.94,5.36-3.42,8.42-3.14a8.52,8.52,0,0,1,7.32,9.62c-.83,4.52-5.11,7.41-8.29,10.73a26.61,26.61,0,0,0-5,7.44c-1,2.27-1.72,4.68-2.89,6.87a17.93,17.93,0,0,1-15.21,9.24Z"/><path class="cls-9" d="M236.88,236.68a67.75,67.75,0,0,0-.54-8.78,19.75,19.75,0,0,0-2-7.06c-2.33-4.23-7-6.55-10.37-10-2-2-3.47-4.34-5.23-6.5a15.37,15.37,0,0,0-6.47-5.09c-2.62-.93-5.86-.54-7.71,1.54a8.08,8.08,0,0,0-1.78,4.82c-.58,7.38,4.4,14.06,10,18.88S225,233.18,229.53,239Z"/><path class="cls-2" d="M190.7,229.57a9,9,0,0,1,1.9-12.18,7.65,7.65,0,0,0,2.52-2.12c1.1-2-.54-4.72.74-6.58a5,5,0,0,1,1.82-1.39l3.29-1.78a17.53,17.53,0,0,1,3.89-1.72,9,9,0,0,1,8.17,2,1.51,1.51,0,0,1,.65,1.19,1.47,1.47,0,0,1-.54.85c-1.27,1.14-3.17,2-3.26,3.74-.07,1.3,1,2.5.75,3.77s-1.81,1.91-2.6,3c-1,1.37-.69,3.27-1,4.95a8.79,8.79,0,0,1-4.17,5.6,26.18,26.18,0,0,1-6.66,2.65Z"/><path class="cls-8" d="M217.57,231.67a11.69,11.69,0,0,1-17.71-1.19,8.44,8.44,0,0,1-.07-10.38c1.82-2.23,4.61-3.4,7.34-4.27s5.62-1.5,8.25-.51a9.7,9.7,0,0,1,4.74,4.32,9.59,9.59,0,0,1,1.23,3.17C221.9,226.11,220,229.36,217.57,231.67Z"/><path class="cls-7" d="M198.81,231.84a11.68,11.68,0,0,1-14.72-9.92,8.44,8.44,0,0,1,5.15-9c2.69-1,5.69-.62,8.49,0s5.61,1.52,7.39,3.7a9.67,9.67,0,0,1,1.93,6.11,9.54,9.54,0,0,1-.53,3.36C205.34,229.2,202.05,231.05,198.81,231.84Z"/><path class="cls-6" d="M232.4,234.8a9.39,9.39,0,0,0-3.18-9.41,15.93,15.93,0,0,1-2.38-1.93c-2.18-2.57-.72-6.47-1.12-9.81-.45-3.63-3.12-6.51-5.13-9.56-2.83-4.29-4.48-9.72-3-14.63s7-8.72,11.89-7.15c3.4,1.09,5.69,4.31,7.07,7.61,2.79,6.67,2.84,14.15,2.18,21.35a28.1,28.1,0,0,0-.09,7.44c.82,4.63,4.22,9,2.94,13.56a7.19,7.19,0,0,1-7.66,5Z"/><path class="cls-2" d="M185.75,229.1a69.42,69.42,0,0,1,8.44-28.81,34.36,34.36,0,0,1,5.24-7.43c4.68-4.83,11.2-7.33,16.9-10.91l-8.9,7a47.14,47.14,0,0,0-7.67,7,43.26,43.26,0,0,0-5.33,9.09,41.62,41.62,0,0,0-3.22,11.33A256.83,256.83,0,0,0,188.4,242Z"/><path class="cls-2" d="M185.23,224c-2.24-12.8-4.66-26-12-36.78-2.84-4.18-6.35-7.86-9.24-12,3.58,2.22,7.2,4.47,10,7.6,4,4.42,6,10.2,7.89,15.83,3.42,10.18,6.72,20.69,6.25,31.42Z"/><path class="cls-6" d="M185.77,224.73a60.27,60.27,0,0,0-4.65-14c-1.53-3.23-3.73-8.47-7.26-3.77-5.36,7.14-9,16.28-11.06,24.92a90.66,90.66,0,0,0-2.26,14.57c-.33,4.42.61,9.47-.12,13.77.46-2.67.91-5.35,1.36-8,.59-3.45,1.18-6.91,2-10.32a87.06,87.06,0,0,1,14.16-31.14,35.18,35.18,0,0,1,4.57,14Z"/><path class="cls-4" d="M165.83,260.32c-5.22,7-18.9,11.55-26.48,6.83a28.23,28.23,0,0,1-10.83-35.24,7.62,7.62,0,0,0,1-3.21c-.07-2.43-2.68-4-3.55-6.26-1.22-3.18,1.22-6.74.5-10.07-.4-1.88-1.78-3.44-2.19-5.32-.79-3.55,2-6.83,4.49-9.44a2.91,2.91,0,0,1,1.64-1,2.42,2.42,0,0,1,1.66.65c3.1,2.45,4.27,7.43,8.13,8.3,1,.22,2.19.23,2.65,1.12.32.6.11,1.34.2,2,.25,1.91,2.63,2.61,4.56,2.73s4.26.38,5,2.15c.46,1,.17,2.27.61,3.31.65,1.55,2.54,2.06,3.94,3,2.71,1.79,3.64,5.31,4,8.55s.23,6.63,1.73,9.51c1,2,2.79,3.6,4,5.52C170.15,248.45,169.43,255.5,165.83,260.32Z"/><path class="cls-6" d="M160.23,215.54c-.2-.14-.41-.29-.61-.45-3-2.49-3.15-6,.15-8.41,2-1.45,4.51-2.32,5.93-4.33.75-1.06,1-2.74,0-3.5a10.36,10.36,0,0,1-1-.58c-1.08-.92-.12-2.86-.92-4-.68-1-2.33-.82-3.15.08a5.14,5.14,0,0,0-1,3.39,9.75,9.75,0,0,1-.46,3.58.75.75,0,0,1-1.23.46c-2.61-1.44-2.29-5.2-2-8.17a36.41,36.41,0,0,0,0-7.74c-.17-1.57-.74-3.46-2.29-3.79-1.9-.39-3.2,2-3.25,3.94s.37,4.13-.83,5.66a8,8,0,0,0-1.07,1.35,3.48,3.48,0,0,0,.42,2.8l3.91,8.44c-4-1.83-6.58-5.74-8.31-9.75s-2.8-8.3-4.79-12.18a7.17,7.17,0,0,0-2.57-3.12,2.94,2.94,0,0,0-3.72.48,3.92,3.92,0,0,0-.57,2.36,14.75,14.75,0,0,0,1.36,6c.51,1.08,1.08,2.54.16,3.31a7.89,7.89,0,0,1-1.28.6c-1.17.65-1.3,2.39-.62,3.54a7.57,7.57,0,0,0,3.08,2.5,7.51,7.51,0,0,1,3.08,2.5c-.84,1.06-2.9.76-3.39,2-.41,1.06.72,2,1.74,2.55a20,20,0,0,0,6.42,1.91c2.76.34,5.6.1,8.27.89,4.35,1.31,5.42,4.36,4.5,7.42A4.49,4.49,0,0,0,160.23,215.54Z"/><path class="cls-25" d="M171.09,223.65a14.11,14.11,0,0,0-4.55-5.17c-2-1.22-4.39-1.67-6.31-2.94a4.49,4.49,0,0,1-4-.24,10.61,10.61,0,0,1-2.66,4.33,13.4,13.4,0,0,0-4,9.38,9.93,9.93,0,0,0,5,8.61,13,13,0,0,0,5.29,1.26,16.1,16.1,0,0,0,8.29-1.4,9,9,0,0,0,5-6.49C173.43,228.43,172.38,225.89,171.09,223.65Z"/><path class="cls-26" d="M203.58,183.58A3.78,3.78,0,0,1,204,186a14.78,14.78,0,0,1-1.67,6c-.56,1.06-1.2,2.49-.32,3.29a7.77,7.77,0,0,0,1.24.67c1.14.71,1.18,2.46.44,3.57a7.59,7.59,0,0,1-3.21,2.34,7.6,7.6,0,0,0-3.2,2.33c.79,1.11,2.86.92,3.28,2.21.36,1.07-.82,2-1.86,2.45a20.05,20.05,0,0,1-6.51,1.59c-2.77.19-5.6-.19-8.3.47-4.42,1.07-5.64,4.07-4.88,7.17a4.47,4.47,0,0,1-4.06,0c.22-.13.43-.26.64-.41,3.12-2.33,3.45-5.85.27-8.41-1.91-1.55-4.38-2.55-5.7-4.63-.69-1.1-.86-2.79.22-3.49.32-.21.71-.3,1-.53,1.12-.87.26-2.85,1.11-4,.73-1,2.38-.7,3.15.23a5.18,5.18,0,0,1,.86,3.44,9.65,9.65,0,0,0,.27,3.6.77.77,0,0,0,1.2.53c2.69-1.31,2.56-5.08,2.39-8.06a36.36,36.36,0,0,1,.4-7.73c.24-1.57.91-3.43,2.47-3.67,1.93-.3,3.1,2.15,3.06,4.1s-.59,4.1.53,5.69a7.81,7.81,0,0,1,1,1.4,3.53,3.53,0,0,1-.56,2.78q-2.18,4.11-4.33,8.23c4.05-1.63,6.86-5.39,8.79-9.31s3.22-8.15,5.41-11.93a7.2,7.2,0,0,1,2.72-3"/><path class="cls-27" d="M163.72,225.58a14.2,14.2,0,0,1,4.81-4.93c2-1.12,4.47-1.44,6.45-2.62a4.47,4.47,0,0,0,4.06,0,10.6,10.6,0,0,0,2.44,4.46A13.34,13.34,0,0,1,185,232a9.94,9.94,0,0,1-5.47,8.35,13.15,13.15,0,0,1-5.35,1,16.11,16.11,0,0,1-8.2-1.83,8.94,8.94,0,0,1-4.64-6.73C161.14,230.23,162.32,227.75,163.72,225.58Z"/><path class="cls-28" d="M161.54,264.33c3.05-4.84,6.13-9.74,10.27-13.68s9.52-6.91,15.24-7c2.2,0,4.43.35,6.6,0,3.91-.69,7.35-3.82,11.3-3.41,1.57.17,3.07.9,4.65.86,2.82-.06,5-2.47,7.5-3.71,4-1.93,8.64-.9,13.05-.67,5.08.25,10.42-.59,15.11,1.39,4.45,1.88,7.89,6.16,12.69,6.75,2.69.32,5.76-.51,7.92,1.13a14.74,14.74,0,0,1,2.21,2.63c1.67,2,4.09,3.23,6.15,4.85s3.87,4.06,3.43,6.65-2.89,4.26-5.24,5.38c-5.73,2.72-12.07,3.85-18.36,4.68-17.83,2.33-35.87,2.39-53.85,2.11a190.5,190.5,0,0,1-22-1.24c-5.81-.77-11.54-2-17.25-3.32Z"/><path class="cls-29" d="M242,231.6c-1.54-4.58-3.53-9.53-7.8-11.8-1.67-.88-3.82-1.23-5.4-.19-2,1.28-2.2,4-2,6.37.71,7.85,4.31,15.17,8.72,21.7,2.94,4.37,6.25,8.45,9.48,12.61,2.95,3.8,5.07,8.12,8.28,11.81-.61-.7-.35-3.84-.65-4.87a20.6,20.6,0,0,0-1.44-3.12c-1.44-3.16-1.87-6.87-2.71-10.24C246.66,246.37,244.5,238.93,242,231.6Z"/><path class="cls-4" d="M230.13,222.21a26,26,0,0,0-4.56-4.05c-1.92-.9-4.11-1.81-4.93-3.76a6.43,6.43,0,0,0-.87-2,4.06,4.06,0,0,0-2.32-1,18.38,18.38,0,0,1-6.89-3.26c-1.82-1.34-3.54-3.11-3.89-5.35s1.26-4.84,3.52-4.78a10,10,0,0,1,2.31.56c2.47.68,5.33.15,7.44,1.6a7.15,7.15,0,0,1,2.61,4.83c.31,1.86.25,3.76.63,5.6a12.36,12.36,0,0,0,3.28,6.19,27,27,0,0,1-.5-14.17,6.08,6.08,0,0,1,1.21-2.74,2.47,2.47,0,0,1,2.72-.77c1.33.6,1.46,2.45,1.05,3.85s-1.2,2.77-1,4.21a8.09,8.09,0,0,1,.42,2.36c-.58,3.71-5.11,5.15-1.59,9.38a21.92,21.92,0,0,1,1.83,2,2.15,2.15,0,0,1,.06,2.54C230.86,223.29,230.61,222.81,230.13,222.21Z"/><path class="cls-4" d="M246.49,216.64a3.64,3.64,0,0,1-.57,0c-.37,0-.81-.23-.85-.61a1,1,0,0,1,.11-.46,8,8,0,0,0,.44-6.41c-1-2.33-3.38-3.75-4-6.26-.32-1.29-.22-2.73-1-3.82-.45-.66-1.16-1.11-1.67-1.73a6.39,6.39,0,0,1-1-2c-.68-2-1.1-4.28,0-6.07a4.15,4.15,0,0,1,6.55-.76,12.83,12.83,0,0,1,3.69,9.5c0-3.08,1-5.94,1.37-9a4.83,4.83,0,0,1,1.22-3.14,9.58,9.58,0,0,0,.85-.7c1-1.09,0-3,.78-4.18a2.28,2.28,0,0,1,2.39-.85,6.17,6.17,0,0,1,2.39,1.22,7.62,7.62,0,0,1,1.89,1.73c1.24,1.76.92,4.18.21,6.21s-1.77,4-1.85,6.16c-.08,1.9.6,3.91-.21,5.62a7.05,7.05,0,0,1-1.8,2.13c-1.92,1.72-5.38,3.82-6.58,6.1-.5,1-.21,6.65-.19,6.63A3.6,3.6,0,0,1,246.49,216.64Z"/><path class="cls-30" d="M256.13,241.75c-.47,8.94-.27,19.47-4.22,27.65a.59.59,0,0,1-.26.3.54.54,0,0,1-.46-.14c-1.6-1.18-2.31-3.21-2.92-5.11-1.75-5.44-3.87-10.78-4.93-16.37q-1.71-9-2.65-18.07c-.47-4.63-.74-9.57,1.5-13.65,1.38-2.51,4.23-4.64,7-3.81,2.3.7,3.56,3.14,4.36,5.4C256.19,225.53,256.56,233.73,256.13,241.75Z"/><path class="cls-29" d="M258.91,245.78c-4,8-8,17.76-14.86,23.7a.55.55,0,0,1-.36.17c-.17,0-.28-.16-.36-.3-1-1.73-.85-3.87-.65-5.86.55-5.68.73-11.43,2-17,1.33-5.94,2.92-11.83,4.75-17.63,1.4-4.44,3.12-9.08,6.8-11.94,2.26-1.75,5.72-2.58,7.9-.72,1.84,1.55,2,4.29,1.86,6.69C265.4,230.92,262.49,238.59,258.91,245.78Z"/><path class="cls-26" d="M260,218.91c-.17-.08-.34-.16-.51-.26s-.65-.54-.54-.9a1.07,1.07,0,0,1,.29-.38c3-2.8,3.8-5.56,2-9.68a7.63,7.63,0,0,1-.93-2.73c0-1.14.62-2.17.9-3.28a10.4,10.4,0,0,0-.42-4.84,21.39,21.39,0,0,1-.85-6.91,7.69,7.69,0,0,1,3.27-5.89c2-1.22,4.94-.93,6.26,1a7,7,0,0,1,1,3.21,33.83,33.83,0,0,1-1.44,14.2c1-1.92,2.07-3.85,3.11-5.78a4.56,4.56,0,0,1,.82-1.2,6.09,6.09,0,0,1,1.68-.92,23,23,0,0,0,4.19-3,8.12,8.12,0,0,1,4.67-2.08c1.73,0,3.59,1.16,3.72,2.89a4.62,4.62,0,0,1-.69,2.43,15.16,15.16,0,0,1-5.12,5.55,34.17,34.17,0,0,0-3.81,2.43,4.65,4.65,0,0,0-1.85,3.92,7.52,7.52,0,0,1,.21,1.4,2.58,2.58,0,0,1-2,2.09,16.76,16.76,0,0,1-3.09.29c-4.09.37-8.33,4.54-8.53,8.7A3.64,3.64,0,0,1,260,218.91Z"/><rect class="cls-31" x="119.78" y="224.89" width="158.73" height="28.02"/><rect class="cls-31" x="119.78" y="256.96" width="158.73" height="28.02"/><path class="cls-19" d="M113.82,236.13c0-.83,0-1.64-.07-2.44a3.06,3.06,0,0,1,.37-1.94,2.1,2.1,0,0,1,2.88-.15c4.39,3.36,2.86,13.43,2.24,18.1a50.13,50.13,0,0,1,10.46,2.43,8.34,8.34,0,0,1,2.57,1.27,3.14,3.14,0,0,1,1.27,2.47,1.7,1.7,0,0,1-.5,1.21,2.68,2.68,0,0,1-2.23.35l-8.49-1.16a4.58,4.58,0,0,0-3,1.22c4.23,1.42,12.64,1.72,13.24,1.92a2.64,2.64,0,0,1,1.72,1.95c.42,2.16-1.54,3.1-3.3,3.36a44.67,44.67,0,0,1-12.24-.13c.36-.23,2.74,2.86,3.22,3a19.6,19.6,0,0,0,4,.25c1.85,0,4.92-1.14,6.53.07,1,.77.73,2.79-.26,3.64-1.74,1.48-4.22,1.9-6.42,2.17-1,.13-6.47,0-7,.67,0,3.49,4.84,4.08,5.81,4.55.75.37,2.22.71,2.54,1.58a1.6,1.6,0,0,1-.58,1.71,2.81,2.81,0,0,1-1.67.43c-3.71,0-7.83-.3-10.71-2.78a42.6,42.6,0,0,1-3.85-3.75c-1.43-1.56-.14-2.9-.88-4.64-.52-1.21-1.94-2-2.15-3.26-.17-1,.51-2.06.4-3.1s-.8-1.69-1.12-2.58a3.31,3.31,0,0,1,0-2.28c.46-1.19,1.61-2.08,1.82-3.35s-.76-2.7-.72-4.1a5.67,5.67,0,0,1,1.32-3,31.6,31.6,0,0,0,3.76-6.22A19.37,19.37,0,0,0,113.82,236.13Z"/><path class="cls-19" d="M282.69,236.13c0-.83.05-1.64.07-2.44a3.06,3.06,0,0,0-.37-1.94,2.09,2.09,0,0,0-2.87-.15c-4.4,3.36-2.87,13.43-2.25,18.1a50.13,50.13,0,0,0-10.46,2.43,8.34,8.34,0,0,0-2.57,1.27,3.14,3.14,0,0,0-1.27,2.47,1.7,1.7,0,0,0,.5,1.21,2.68,2.68,0,0,0,2.23.35l8.49-1.16a4.58,4.58,0,0,1,3,1.22c-4.23,1.42-12.64,1.72-13.24,1.92a2.64,2.64,0,0,0-1.72,1.95c-.42,2.16,1.54,3.1,3.3,3.36a44.67,44.67,0,0,0,12.24-.13c-.36-.23-2.74,2.86-3.22,3a19.56,19.56,0,0,1-4,.25c-1.85,0-4.92-1.14-6.53.07-1,.77-.73,2.79.26,3.64,1.74,1.48,4.22,1.9,6.42,2.17,1,.13,6.47,0,7,.67,0,3.49-4.84,4.08-5.81,4.55-.75.37-2.22.71-2.54,1.58a1.6,1.6,0,0,0,.58,1.71,2.81,2.81,0,0,0,1.67.43c3.71,0,7.83-.3,10.71-2.78a42.6,42.6,0,0,0,3.85-3.75c1.43-1.56.14-2.9.88-4.64.53-1.21,1.94-2,2.15-3.26.17-1-.51-2.06-.4-3.1s.8-1.69,1.12-2.58a3.31,3.31,0,0,0,0-2.28c-.46-1.19-1.61-2.08-1.82-3.35s.76-2.7.72-4.1a5.67,5.67,0,0,0-1.32-3,31.6,31.6,0,0,1-3.76-6.22A19.37,19.37,0,0,1,282.69,236.13Z"/><path class="cls-32" d="M175.34,81.21c10.34,1.61,42.19-.69,48.19-2.3-4.09-23.42-5.06-34.9-15.79-33.52s-16.75-6-24.42,1.83S175.34,81.21,175.34,81.21Z"/><path class="cls-20" d="M182.05,90.66c-1.34,1.8-3.12,3.36-3.9,5.47a13.55,13.55,0,0,0-.53,4.76l.09,9.25a5.42,5.42,0,0,1-1.47-4.16,16.29,16.29,0,0,0-.23-4.53c-.3-1.06-.92-2-1.25-3.06a2.89,2.89,0,0,1,.56-3.06,3.55,3.55,0,0,1-1-5,4.45,4.45,0,0,1-.89-5c1.07-2.59,5.8-5.36,8.49-5.68C188.07,79,183.9,88.16,182.05,90.66Z"/><path class="cls-20" d="M213.51,81c.77,3.14,1.57,6.35,3.34,9.05a33.23,33.23,0,0,1,2.51,3.76,15.35,15.35,0,0,1,1.13,4.34q1,6,1.94,12.1c.43.35.89-.4.95-.94q.7-6.55,1.39-13.1a4.34,4.34,0,0,1,.4-1.63c.31-.58.89-1,1-1.68C226.29,91.8,225,91,225,89.94a4.71,4.71,0,0,1,.53-1.72c.2-.57.16-1.34-.38-1.6,1.84-1.05,1.53-3.87.39-5.65a10.16,10.16,0,0,0-11.81-3.85Z"/><path class="cls-31" d="M241.71,81.52a21.5,21.5,0,0,1-4.26,1.88,24.74,24.74,0,0,1-7.55,1.43A40.52,40.52,0,0,1,222,83.65a90.93,90.93,0,0,0-37.21.17c-5,1.07-10,2.58-15.08,2.6a27.77,27.77,0,0,1-12.23-2.83,4.89,4.89,0,0,1-.08-2,4.76,4.76,0,0,1,.48-1.45,8.77,8.77,0,0,1,1.74-2.25c3.52-3.39,8.32-5.11,13.09-6.17,5.8-1.28,12-3.13,17.86-3.74a108.62,108.62,0,0,1,22.08.08A85.53,85.53,0,0,1,232,72.59a17.3,17.3,0,0,1,7.57,4.4A8.86,8.86,0,0,1,241.71,81.52Z"/><rect class="cls-14" x="101.81" y="304.31" width="193.45" height="34.22"/><rect class="cls-14" x="101.81" y="342.56" width="193.45" height="34.22"/><rect class="cls-10" x="101.81" y="338.53" width="193.45" height="4.03"/><rect class="cls-33" x="106.49" y="70.78" width="13.93" height="13.93"/><rect class="cls-33" x="276.02" y="70.78" width="13.93" height="13.93"/></g></g></svg>