<svg xmlns="http://www.w3.org/2000/svg" xmlns:xlink="http://www.w3.org/1999/xlink" viewBox="0 0 673.85 468.79"><defs><style>.cls-1{isolation:isolate;}.cls-2{fill:#ebaeae;}.cls-122,.cls-123,.cls-125,.cls-126,.cls-127,.cls-128,.cls-129,.cls-130,.cls-135,.cls-138,.cls-150,.cls-169,.cls-170,.cls-171,.cls-172,.cls-173,.cls-174,.cls-175,.cls-176,.cls-177,.cls-178,.cls-179,.cls-180,.cls-181,.cls-182,.cls-183,.cls-184,.cls-185,.cls-186,.cls-187,.cls-188,.cls-193,.cls-194,.cls-195,.cls-196,.cls-197,.cls-198,.cls-199,.cls-2,.cls-200,.cls-201,.cls-202,.cls-203,.cls-204,.cls-206{fill-rule:evenodd;}.cls-3{fill:#feb663;}.cls-4{fill:#de553e;}.cls-5{fill:#d6433b;}.cls-6{fill:#bb283b;}.cls-7{fill:url(#Безымянный_градиент_90);}.cls-8{fill:url(#Безымянный_градиент_55);}.cls-9{fill:url(#Безымянный_градиент_171);}.cls-10{fill:url(#Безымянный_градиент_90-2);}.cls-11{fill:url(#Безымянный_градиент_55-2);}.cls-111,.cls-112,.cls-118,.cls-12,.cls-120,.cls-123,.cls-128,.cls-129,.cls-13,.cls-133,.cls-134,.cls-145,.cls-15,.cls-153,.cls-154,.cls-155,.cls-157,.cls-158,.cls-16,.cls-162,.cls-163,.cls-164,.cls-165,.cls-166,.cls-167,.cls-168,.cls-170,.cls-171,.cls-172,.cls-173,.cls-174,.cls-175,.cls-176,.cls-177,.cls-178,.cls-179,.cls-180,.cls-181,.cls-182,.cls-183,.cls-184,.cls-185,.cls-186,.cls-187,.cls-188,.cls-194,.cls-197,.cls-198,.cls-199,.cls-20,.cls-206,.cls-207,.cls-208,.cls-209,.cls-22,.cls-23,.cls-26,.cls-28,.cls-35,.cls-40,.cls-47,.cls-52,.cls-54,.cls-55,.cls-56,.cls-72,.cls-73,.cls-77,.cls-78,.cls-79,.cls-83,.cls-85,.cls-88{mix-blend-mode:multiply;}.cls-108,.cls-12,.cls-133,.cls-154,.cls-155,.cls-158,.cls-16,.cls-167,.cls-170,.cls-171,.cls-174,.cls-177,.cls-196,.cls-200,.cls-206,.cls-23,.cls-28,.cls-35,.cls-40,.cls-49,.cls-72,.cls-73,.cls-77,.cls-83{opacity:0.3;}.cls-12{fill:url(#Безымянный_градиент_400);}.cls-13{fill:#c40f95;}.cls-104,.cls-13,.cls-145,.cls-157,.cls-162,.cls-163,.cls-164,.cls-165,.cls-166,.cls-17,.cls-175,.cls-178,.cls-179,.cls-180,.cls-181,.cls-182,.cls-183,.cls-184,.cls-185,.cls-186,.cls-188,.cls-192,.cls-193,.cls-197,.cls-199,.cls-201,.cls-203,.cls-207,.cls-208,.cls-209,.cls-22,.cls-47,.cls-78,.cls-88{opacity:0.5;}.cls-14{fill:url(#Безымянный_градиент_111);}.cls-15,.cls-16,.cls-47{fill:#ffc4b1;}.cls-15{opacity:0.4;}.cls-17,.cls-18,.cls-49,.cls-75{fill:#fed78b;}.cls-104,.cls-108,.cls-17,.cls-18,.cls-192,.cls-193,.cls-195,.cls-196,.cls-200,.cls-201,.cls-203,.cls-204,.cls-49{mix-blend-mode:soft-light;}.cls-111,.cls-18,.cls-85,.cls-97{opacity:0.2;}.cls-19{fill:#fe8b72;}.cls-20{opacity:0.7;}.cls-21,.cls-26{fill:#7a5c72;}.cls-22{fill:#9a0f6f;}.cls-24{fill:#e8aa9f;}.cls-25{fill:#fecd8b;}.cls-26,.cls-54,.cls-55{opacity:0.6;}.cls-27{fill:url(#Безымянный_градиент_90-3);}.cls-28{fill:url(#Безымянный_градиент_400-2);}.cls-29{fill:url(#Безымянный_градиент_111-2);}.cls-30{fill:url(#Безымянный_градиент_55-3);}.cls-31{fill:url(#Безымянный_градиент_55-4);}.cls-32{fill:url(#Безымянный_градиент_55-5);}.cls-33{fill:#fec078;}.cls-34{fill:#fcd392;}.cls-35{fill:url(#Безымянный_градиент_400-3);}.cls-36{fill:url(#Безымянный_градиент_111-3);}.cls-37{fill:url(#Безымянный_градиент_55-6);}.cls-38{fill:url(#Безымянный_градиент_55-7);}.cls-39{fill:url(#Безымянный_градиент_55-8);}.cls-40{fill:url(#Безымянный_градиент_400-4);}.cls-41{fill:url(#Безымянный_градиент_111-4);}.cls-42{fill:url(#Безымянный_градиент_55-9);}.cls-43{fill:url(#Безымянный_градиент_55-10);}.cls-44{fill:url(#Безымянный_градиент_55-11);}.cls-45{fill:url(#Безымянный_градиент_142);}.cls-46{fill:url(#Безымянный_градиент_111-5);}.cls-48{fill:url(#Безымянный_градиент_111-6);}.cls-50{fill:#c7372a;}.cls-51{fill:#8b163b;}.cls-118,.cls-120,.cls-129,.cls-168,.cls-172,.cls-173,.cls-176,.cls-187,.cls-195,.cls-198,.cls-204,.cls-52,.cls-79{opacity:0.8;}.cls-53{fill:url(#Безымянный_градиент_196);}.cls-54{fill:#ff8172;}.cls-55,.cls-62{fill:#ffb872;}.cls-56,.cls-72,.cls-79,.cls-85{fill:#d16d95;}.cls-123,.cls-128,.cls-134,.cls-194,.cls-56{opacity:0.68;}.cls-57{fill:url(#Безымянный_градиент_90-4);}.cls-58{fill:url(#Безымянный_градиент_101);}.cls-59{fill:#9f6000;}.cls-60{fill:#734f0b;}.cls-61{fill:#ffa78b;}.cls-63{fill:#ef1540;}.cls-64{fill:#ba1540;}.cls-65{fill:url(#Безымянный_градиент_55-12);}.cls-66{fill:url(#Безымянный_градиент_90-5);}.cls-67{fill:url(#Безымянный_градиент_96);}.cls-68{fill:url(#Безымянный_градиент_84);}.cls-69{fill:url(#Безымянный_градиент_93);}.cls-70{fill:url(#Безымянный_градиент_105);}.cls-71{fill:url(#Безымянный_градиент_99);}.cls-73{fill:url(#Безымянный_градиент_400-5);}.cls-74{fill:url(#Безымянный_градиент_111-7);}.cls-76{fill:#fec372;}.cls-77,.cls-78{fill:#e8868e;}.cls-80{fill:url(#Безымянный_градиент_111-8);}.cls-81{fill:#ba2431;}.cls-82{fill:url(#Безымянный_градиент_111-9);}.cls-83{fill:url(#Безымянный_градиент_400-6);}.cls-84{fill:url(#Безымянный_градиент_111-10);}.cls-86{fill:url(#Безымянный_градиент_111-11);}.cls-87{fill:url(#Безымянный_градиент_294);}.cls-111,.cls-88{fill:#927a5e;}.cls-89{fill:url(#Безымянный_градиент_294-2);}.cls-90{fill:url(#Безымянный_градиент_2);}.cls-91{fill:url(#Безымянный_градиент_242);}.cls-92{fill:#4a1834;}.cls-93{fill:url(#Безымянный_градиент_284);}.cls-94{fill:url(#Безымянный_градиент_273);}.cls-95{fill:url(#Безымянный_градиент_294-3);}.cls-96{fill:url(#Безымянный_градиент_261);}.cls-97{fill:#98e522;mix-blend-mode:screen;}.cls-98{fill:url(#Безымянный_градиент_294-4);}.cls-99{fill:url(#Безымянный_градиент_271);}.cls-100{fill:url(#Безымянный_градиент_272);}.cls-101{fill:url(#Безымянный_градиент_272-2);}.cls-102{fill:url(#Безымянный_градиент_273-2);}.cls-103{fill:url(#Безымянный_градиент_292);}.cls-104,.cls-108{fill:#ffffe3;}.cls-105{fill:url(#Безымянный_градиент_271-2);}.cls-106{fill:#e09f4c;}.cls-107{fill:url(#Безымянный_градиент_288);}.cls-109{fill:url(#Безымянный_градиент_292-2);}.cls-110{fill:url(#Безымянный_градиент_271-3);}.cls-113{fill:#bb3a3b;}.cls-114{fill:url(#Безымянный_градиент_58);}.cls-115{fill:url(#Безымянный_градиент_200);}.cls-116{fill:url(#Безымянный_градиент_151);}.cls-117{fill:#7a1b34;}.cls-118,.cls-198{fill:#a26f99;}.cls-119{fill:#bf3834;}.cls-120{fill:#ce6f99;}.cls-121{fill:url(#Безымянный_градиент_167);}.cls-122{fill:#b81f30;}.cls-123{fill:#dc657c;}.cls-124{fill:url(#Безымянный_градиент_125);}.cls-125{fill:#d12743;}.cls-126{fill:url(#Безымянный_градиент_38);}.cls-127{fill:url(#Безымянный_градиент_43);}.cls-128,.cls-134,.cls-170{fill:#eb657c;}.cls-129,.cls-168{fill:#bd407c;}.cls-130{fill:url(#Безымянный_градиент_43-2);}.cls-131{fill:url(#Безымянный_градиент_58-2);}.cls-132{fill:url(#Безымянный_градиент_159);}.cls-133{fill:url(#Безымянный_градиент_66);}.cls-135{fill:url(#Безымянный_градиент_43-3);}.cls-136{fill:url(#Безымянный_градиент_136);}.cls-137{fill:#753c59;}.cls-138{fill:url(#Безымянный_градиент_43-4);}.cls-139{fill:url(#Безымянный_градиент_133);}.cls-140{fill:url(#Безымянный_градиент_27);}.cls-141{fill:#ffbdb0;}.cls-142{fill:#ffba59;}.cls-143{fill:#ff5459;}.cls-144{fill:#ff817a;}.cls-145{fill:url(#Безымянный_градиент_192);}.cls-146{fill:url(#Безымянный_градиент_202);}.cls-147{fill:url(#Безымянный_градиент_60);}.cls-148{fill:url(#Безымянный_градиент_107);}.cls-149{fill:url(#Безымянный_градиент_107-2);}.cls-150{fill:#ffeaea;}.cls-151{fill:url(#Безымянный_градиент_26);}.cls-152{fill:url(#Безымянный_градиент_26-2);}.cls-153{fill:#bd4f81;opacity:0.77;}.cls-154{fill:url(#Безымянный_градиент_119);}.cls-155{fill:url(#Безымянный_градиент_119-2);}.cls-156{fill:url(#Безымянный_градиент_107-3);}.cls-157{fill:url(#Безымянный_градиент_192-2);}.cls-158{fill:url(#Безымянный_градиент_119-3);}.cls-159{fill:url(#Безымянный_градиент_159-2);}.cls-160{fill:url(#Безымянный_градиент_159-3);}.cls-161,.cls-192,.cls-203{fill:#fff;}.cls-162{fill:url(#Безымянный_градиент_174);}.cls-163{fill:url(#Безымянный_градиент_174-2);}.cls-164{fill:url(#Безымянный_градиент_174-3);}.cls-165{fill:url(#Безымянный_градиент_175);}.cls-166{fill:url(#Безымянный_градиент_174-4);}.cls-167{fill:url(#Безымянный_градиент_192-3);}.cls-169{fill:#ffc79f;}.cls-171{fill:url(#Безымянный_градиент_119-4);}.cls-172{fill:url(#Безымянный_градиент_176);}.cls-173{fill:url(#Безымянный_градиент_176-2);}.cls-174{fill:url(#Безымянный_градиент_138);}.cls-175{fill:url(#Безымянный_градиент_24);}.cls-176{fill:url(#Безымянный_градиент_168);}.cls-177{fill:url(#Безымянный_градиент_24-2);}.cls-178{fill:url(#Безымянный_градиент_150);}.cls-179{fill:url(#Безымянный_градиент_150-2);}.cls-180{fill:url(#Безымянный_градиент_138-2);}.cls-181{fill:url(#Безымянный_градиент_150-3);}.cls-182{fill:url(#Безымянный_градиент_184);}.cls-183{fill:url(#Безымянный_градиент_187);}.cls-184{fill:url(#Безымянный_градиент_203);}.cls-185{fill:url(#Безымянный_градиент_203-2);}.cls-186{fill:url(#Безымянный_градиент_187-2);}.cls-187{fill:#6f6f99;}.cls-188{fill:url(#Безымянный_градиент_187-3);}.cls-189{fill:url(#Безымянный_градиент_162);}.cls-190{fill:#5e1134;}.cls-191{fill:#ce6f2a;}.cls-193,.cls-196{fill:#a7d9b5;}.cls-194{fill:#b6657c;}.cls-195,.cls-200{fill:#ffeaff;}.cls-197{fill:#a70e42;}.cls-199{fill:url(#Безымянный_градиент_24-3);}.cls-201{fill:#ffbf9f;}.cls-202{fill:#86a6d1;}.cls-204{fill:#e3d9b5;}.cls-205{fill:url(#Безымянный_градиент_58-3);}.cls-206{fill:url(#Безымянный_градиент_192-4);}.cls-207{fill:url(#Безымянный_градиент_203-3);}.cls-208{fill:url(#Безымянный_градиент_203-4);}.cls-209{fill:url(#Безымянный_градиент_203-5);}</style><linearGradient id="Безымянный_градиент_90" x1="120.14" y1="374.68" x2="120.14" y2="359.41" gradientUnits="userSpaceOnUse"><stop offset="0" stop-color="#feb871"/><stop offset="0.36" stop-color="#febe7a"/><stop offset="0.94" stop-color="#fed091"/><stop offset="1" stop-color="#fed294"/></linearGradient><linearGradient id="Безымянный_градиент_55" x1="91.28" y1="372.1" x2="130.61" y2="372.1" gradientUnits="userSpaceOnUse"><stop offset="0" stop-color="#e3514d"/><stop offset="0.32" stop-color="#e55a47"/><stop offset="0.83" stop-color="#ec7135"/><stop offset="1" stop-color="#ee7a2e"/></linearGradient><linearGradient id="Безымянный_градиент_171" x1="140.48" y1="371.25" x2="140.48" y2="359.41" gradientUnits="userSpaceOnUse"><stop offset="0" stop-color="#ed7e2f"/><stop offset="0.36" stop-color="#e5633a"/><stop offset="0.75" stop-color="#de4c44"/><stop offset="1" stop-color="#db4348"/></linearGradient><linearGradient id="Безымянный_градиент_90-2" x1="175.6" y1="372.85" x2="175.6" y2="359.41" xlink:href="#Безымянный_градиент_90"/><linearGradient id="Безымянный_градиент_55-2" x1="135.64" y1="370.63" x2="180.95" y2="370.63" xlink:href="#Безымянный_градиент_55"/><linearGradient id="Безымянный_градиент_400" x1="150.58" y1="460.86" x2="150.58" y2="456.1" gradientUnits="userSpaceOnUse"><stop offset="0" stop-color="#c2005b"/><stop offset="0" stop-color="#c2015b"/><stop offset="0.22" stop-color="#d44d8c"/><stop offset="0.43" stop-color="#e48cb5"/><stop offset="0.62" stop-color="#efbed5"/><stop offset="0.78" stop-color="#f8e1ec"/><stop offset="0.91" stop-color="#fdf7fa"/><stop offset="1" stop-color="#fff"/></linearGradient><linearGradient id="Безымянный_градиент_111" x1="178.04" y1="417.08" x2="182.37" y2="417.08" gradientUnits="userSpaceOnUse"><stop offset="0" stop-color="#fca940"/><stop offset="0.54" stop-color="#fda250"/><stop offset="1" stop-color="#fe9f59"/></linearGradient><linearGradient id="Безымянный_градиент_90-3" x1="187.73" y1="370.57" x2="312.27" y2="370.57" xlink:href="#Безымянный_градиент_90"/><linearGradient id="Безымянный_градиент_400-2" x1="248.43" y1="460.86" x2="248.43" y2="456.1" xlink:href="#Безымянный_градиент_400"/><linearGradient id="Безымянный_градиент_111-2" x1="275.89" y1="417.08" x2="280.21" y2="417.08" xlink:href="#Безымянный_градиент_111"/><linearGradient id="Безымянный_градиент_55-3" x1="261.35" y1="370.59" x2="287.87" y2="370.59" xlink:href="#Безымянный_градиент_55"/><linearGradient id="Безымянный_градиент_55-4" x1="216.17" y1="372.35" x2="229.75" y2="372.35" xlink:href="#Безымянный_градиент_55"/><linearGradient id="Безымянный_градиент_55-5" x1="265.83" y1="367.44" x2="278.8" y2="367.44" xlink:href="#Безымянный_градиент_55"/><linearGradient id="Безымянный_градиент_400-3" x1="345.99" y1="460.73" x2="345.99" y2="455.78" xlink:href="#Безымянный_градиент_400"/><linearGradient id="Безымянный_градиент_111-3" x1="374.58" y1="415.16" x2="379.08" y2="415.16" xlink:href="#Безымянный_градиент_111"/><linearGradient id="Безымянный_градиент_55-6" x1="359.45" y1="366.77" x2="387.06" y2="366.77" xlink:href="#Безымянный_градиент_55"/><linearGradient id="Безымянный_градиент_55-7" x1="312.42" y1="368.59" x2="326.55" y2="368.59" xlink:href="#Безымянный_градиент_55"/><linearGradient id="Безымянный_градиент_55-8" x1="364.11" y1="363.48" x2="377.61" y2="363.48" xlink:href="#Безымянный_градиент_55"/><linearGradient id="Безымянный_градиент_400-4" x1="259.6" y1="369.46" x2="259.6" y2="364.5" xlink:href="#Безымянный_градиент_400"/><linearGradient id="Безымянный_градиент_111-4" x1="288.19" y1="323.88" x2="292.69" y2="323.88" xlink:href="#Безымянный_градиент_111"/><linearGradient id="Безымянный_градиент_55-9" x1="273.05" y1="275.49" x2="300.66" y2="275.49" xlink:href="#Безымянный_градиент_55"/><linearGradient id="Безымянный_градиент_55-10" x1="226.02" y1="277.32" x2="240.15" y2="277.32" xlink:href="#Безымянный_градиент_55"/><linearGradient id="Безымянный_градиент_55-11" x1="277.72" y1="272.21" x2="291.22" y2="272.21" xlink:href="#Безымянный_градиент_55"/><linearGradient id="Безымянный_градиент_142" x1="-524.12" y1="464.01" x2="-524.12" y2="453.76" gradientTransform="matrix(-1, 0, -0.11, 1, -406.65, 0.13)" gradientUnits="userSpaceOnUse"><stop offset="0" stop-color="#ed7e2f"/><stop offset="0.3" stop-color="#e26a3b"/><stop offset="0.73" stop-color="#d65348"/><stop offset="1" stop-color="#d14a4d"/></linearGradient><linearGradient id="Безымянный_градиент_111-5" x1="-580.39" y1="454.38" x2="-580.39" y2="363.06" gradientTransform="matrix(-1, 0, -0.11, 1, -406.65, 0.13)" xlink:href="#Безымянный_градиент_111"/><linearGradient id="Безымянный_градиент_111-6" x1="-527.73" y1="365.63" x2="-527.73" y2="363.02" gradientTransform="matrix(-1, 0, -0.11, 1, -406.65, 0.13)" xlink:href="#Безымянный_градиент_111"/><linearGradient id="Безымянный_градиент_196" x1="-500.46" y1="385.44" x2="-500.46" y2="370.15" gradientTransform="matrix(-1, 0, -0.11, 1, -406.65, 0.13)" gradientUnits="userSpaceOnUse"><stop offset="0" stop-color="#ffd6c5"/><stop offset="0.09" stop-color="#ffddcf"/><stop offset="0.26" stop-color="#ffe5dc"/><stop offset="0.49" stop-color="#ffeae3"/><stop offset="1" stop-color="#ffebe5"/></linearGradient><linearGradient id="Безымянный_градиент_90-4" x1="129.43" y1="433" x2="244.97" y2="433" gradientTransform="matrix(1, 0.01, 0, 1, 0.12, -0.05)" xlink:href="#Безымянный_градиент_90"/><linearGradient id="Безымянный_градиент_101" x1="283.45" y1="192.5" x2="283.45" y2="149.05" gradientUnits="userSpaceOnUse"><stop offset="0" stop-color="#e3514d"/><stop offset="0.32" stop-color="#e55a4a"/><stop offset="0.83" stop-color="#ec7141"/><stop offset="1" stop-color="#ee7a3d"/></linearGradient><linearGradient id="Безымянный_градиент_55-12" x1="151.17" y1="194.18" x2="151.17" y2="176.86" xlink:href="#Безымянный_градиент_55"/><linearGradient id="Безымянный_градиент_90-5" x1="183.02" y1="194.18" x2="183.02" y2="173.5" xlink:href="#Безымянный_градиент_90"/><linearGradient id="Безымянный_градиент_96" x1="212.89" y1="194.18" x2="212.89" y2="137.23" gradientUnits="userSpaceOnUse"><stop offset="0" stop-color="#fc9340"/><stop offset="0.33" stop-color="#fd9046"/><stop offset="1" stop-color="#fe8d4f"/></linearGradient><linearGradient id="Безымянный_градиент_84" x1="321.17" y1="192.5" x2="321.17" y2="138.35" gradientUnits="userSpaceOnUse"><stop offset="0" stop-color="#e2652e"/><stop offset="0" stop-color="#e2652e"/><stop offset="0.62" stop-color="#e34e45"/><stop offset="1" stop-color="#e3454d"/></linearGradient><linearGradient id="Безымянный_градиент_93" x1="298.78" y1="186.56" x2="298.78" y2="136.06" gradientUnits="userSpaceOnUse"><stop offset="0" stop-color="#fe9f71"/><stop offset="0.28" stop-color="#fea168"/><stop offset="0.73" stop-color="#fda651"/><stop offset="1" stop-color="#fca940"/></linearGradient><linearGradient id="Безымянный_градиент_105" x1="264.06" y1="185.85" x2="264.06" y2="135.7" gradientUnits="userSpaceOnUse"><stop offset="0" stop-color="#e24c2e"/><stop offset="0.61" stop-color="#e34744"/><stop offset="1" stop-color="#e3454d"/></linearGradient><linearGradient id="Безымянный_градиент_99" x1="200.65" y1="146.47" x2="200.65" y2="135.7" gradientUnits="userSpaceOnUse"><stop offset="0" stop-color="#febd71"/><stop offset="0.28" stop-color="#feb968"/><stop offset="0.73" stop-color="#fdb051"/><stop offset="1" stop-color="#fca940"/></linearGradient><linearGradient id="Безымянный_градиент_400-5" x1="255.54" y1="278.16" x2="255.54" y2="262.33" xlink:href="#Безымянный_градиент_400"/><linearGradient id="Безымянный_градиент_111-7" x1="274.42" y1="232.36" x2="279.04" y2="232.36" xlink:href="#Безымянный_градиент_111"/><linearGradient id="Безымянный_градиент_111-8" x1="342.1" y1="297.37" x2="342.1" y2="254.85" xlink:href="#Безымянный_градиент_111"/><linearGradient id="Безымянный_градиент_111-9" x1="377.72" y1="274.48" x2="377.72" y2="254.85" xlink:href="#Безымянный_градиент_111"/><linearGradient id="Безымянный_градиент_400-6" x1="379.41" y1="355.6" x2="379.41" y2="352.95" xlink:href="#Безымянный_градиент_400"/><linearGradient id="Безымянный_градиент_111-10" x1="374.18" y1="317.72" x2="378.53" y2="317.72" xlink:href="#Безымянный_градиент_111"/><linearGradient id="Безымянный_градиент_111-11" x1="376.92" y1="286.01" x2="455.31" y2="286.01" xlink:href="#Безымянный_градиент_111"/><linearGradient id="Безымянный_градиент_294" x1="156.12" y1="373.2" x2="156.12" y2="308.34" gradientUnits="userSpaceOnUse"><stop offset="0" stop-color="#5e5100"/><stop offset="0.98" stop-color="#726d18"/></linearGradient><linearGradient id="Безымянный_градиент_294-2" x1="166.12" y1="339.47" x2="166.12" y2="260.28" xlink:href="#Безымянный_градиент_294"/><linearGradient id="Безымянный_градиент_2" x1="149.96" y1="406.22" x2="195.56" y2="406.22" gradientUnits="userSpaceOnUse"><stop offset="0" stop-color="#754859"/><stop offset="0.03" stop-color="#724558"/><stop offset="0.43" stop-color="#55264e"/><stop offset="0.77" stop-color="#431347"/><stop offset="1" stop-color="#3d0c45"/></linearGradient><linearGradient id="Безымянный_градиент_242" x1="149.96" y1="378.18" x2="195.56" y2="378.18" gradientUnits="userSpaceOnUse"><stop offset="0" stop-color="#67416e"/><stop offset="0.33" stop-color="#6e486f"/><stop offset="0.82" stop-color="#815b71"/><stop offset="1" stop-color="#8a6472"/></linearGradient><linearGradient id="Безымянный_градиент_284" x1="172.52" y1="378.87" x2="172.52" y2="276.51" gradientUnits="userSpaceOnUse"><stop offset="0" stop-color="#8e3134"/><stop offset="0.98" stop-color="#bd4f4c"/></linearGradient><linearGradient id="Безымянный_градиент_273" x1="173.83" y1="339.47" x2="179.69" y2="339.47" gradientUnits="userSpaceOnUse"><stop offset="0" stop-color="#cc3134"/><stop offset="0.98" stop-color="#726d18"/></linearGradient><linearGradient id="Безымянный_градиент_294-3" x1="176.76" y1="308.28" x2="214.27" y2="308.28" xlink:href="#Безымянный_градиент_294"/><linearGradient id="Безымянный_градиент_261" x1="176.76" y1="308.34" x2="214.27" y2="308.34" gradientUnits="userSpaceOnUse"><stop offset="0" stop-color="#5e631b"/><stop offset="0.98" stop-color="#939818"/></linearGradient><linearGradient id="Безымянный_градиент_294-4" x1="110.32" y1="313.3" x2="160.03" y2="313.3" xlink:href="#Безымянный_градиент_294"/><linearGradient id="Безымянный_градиент_271" x1="110.32" y1="322.9" x2="170.04" y2="322.9" gradientUnits="userSpaceOnUse"><stop offset="0" stop-color="#9a9770"/><stop offset="0.98" stop-color="#a7a163"/></linearGradient><linearGradient id="Безымянный_градиент_272" x1="168.93" y1="348.65" x2="172.63" y2="348.65" gradientUnits="userSpaceOnUse"><stop offset="0.02" stop-color="#726d18"/><stop offset="1" stop-color="#cc3134"/></linearGradient><linearGradient id="Безымянный_градиент_272-2" x1="166.48" y1="299.25" x2="170.99" y2="299.25" xlink:href="#Безымянный_градиент_272"/><linearGradient id="Безымянный_градиент_273-2" x1="172.65" y1="286.94" x2="176.76" y2="286.94" xlink:href="#Безымянный_градиент_273"/><linearGradient id="Безымянный_градиент_292" x1="179.71" y1="280.95" x2="179.71" y2="215.92" gradientUnits="userSpaceOnUse"><stop offset="0" stop-color="#867700"/><stop offset="0.98" stop-color="#726d00"/></linearGradient><linearGradient id="Безымянный_градиент_271-2" x1="171.54" y1="346.66" x2="205.58" y2="346.66" xlink:href="#Безымянный_градиент_271"/><linearGradient id="Безымянный_градиент_288" x1="177.22" y1="326.77" x2="177.22" y2="299.83" gradientUnits="userSpaceOnUse"><stop offset="0" stop-color="#5e511b"/><stop offset="0.98" stop-color="#6d5418"/></linearGradient><linearGradient id="Безымянный_градиент_292-2" x1="184.14" y1="314.97" x2="184.14" y2="299.83" xlink:href="#Безымянный_градиент_292"/><linearGradient id="Безымянный_градиент_271-3" x1="147.63" y1="279.36" x2="172.99" y2="279.36" xlink:href="#Безымянный_градиент_271"/><linearGradient id="Безымянный_градиент_58" x1="652.67" y1="27.59" x2="652.67" y2="2.55" gradientUnits="userSpaceOnUse"><stop offset="0" stop-color="#f07d3c"/><stop offset="0.15" stop-color="#db6336"/><stop offset="0.33" stop-color="#c94c31"/><stop offset="0.52" stop-color="#bb3c2d"/><stop offset="0.73" stop-color="#b3322b"/><stop offset="1" stop-color="#b12f2a"/></linearGradient><linearGradient id="Безымянный_градиент_200" x1="601.94" y1="432.07" x2="601.94" y2="405.59" gradientUnits="userSpaceOnUse"><stop offset="0" stop-color="#978b9a"/><stop offset="0.27" stop-color="#9989a3"/><stop offset="0.69" stop-color="#9f85ba"/><stop offset="1" stop-color="#a481cf"/></linearGradient><linearGradient id="Безымянный_градиент_151" x1="588.8" y1="459.71" x2="588.8" y2="423.93" gradientUnits="userSpaceOnUse"><stop offset="0" stop-color="#901b1d"/><stop offset="0.46" stop-color="#99221f"/><stop offset="1" stop-color="#a92f23"/></linearGradient><linearGradient id="Безымянный_градиент_167" x1="592.39" y1="413.72" x2="592.39" y2="218.5" gradientUnits="userSpaceOnUse"><stop offset="0" stop-color="#5936ac"/><stop offset="0.23" stop-color="#5b3eb9"/><stop offset="0.66" stop-color="#5f53da"/><stop offset="1" stop-color="#6366f8"/></linearGradient><linearGradient id="Безымянный_градиент_125" x1="601.91" y1="227.9" x2="601.91" y2="95.8" gradientUnits="userSpaceOnUse"><stop offset="0.01" stop-color="#dd1d22"/><stop offset="1" stop-color="#ff230e"/></linearGradient><linearGradient id="Безымянный_градиент_38" x1="621.12" y1="100.55" x2="621.12" y2="75.08" gradientUnits="userSpaceOnUse"><stop offset="0.03" stop-color="#ff8c6d"/><stop offset="0.95" stop-color="#ff8364"/></linearGradient><linearGradient id="Безымянный_градиент_43" x1="624.56" y1="84.8" x2="624.56" y2="16.27" gradientUnits="userSpaceOnUse"><stop offset="0.03" stop-color="#ff9b86"/><stop offset="0.95" stop-color="#ffa670"/></linearGradient><linearGradient id="Безымянный_градиент_43-2" x1="647.4" y1="73.57" x2="647.4" y2="55.99" xlink:href="#Безымянный_градиент_43"/><linearGradient id="Безымянный_градиент_58-2" x1="637.21" y1="60.27" x2="637.21" y2="0" xlink:href="#Безымянный_градиент_58"/><linearGradient id="Безымянный_градиент_159" x1="624.34" y1="33.96" x2="624.34" y2="30.13" gradientUnits="userSpaceOnUse"><stop offset="0" stop-color="#c2583c"/><stop offset="0.13" stop-color="#bd4c37"/><stop offset="0.37" stop-color="#b63c30"/><stop offset="0.65" stop-color="#b2322b"/><stop offset="1" stop-color="#b12f2a"/></linearGradient><linearGradient id="Безымянный_градиент_66" x1="647.4" y1="71.69" x2="647.4" y2="60.07" gradientUnits="userSpaceOnUse"><stop offset="0.3" stop-color="#fff"/><stop offset="0.99" stop-color="#ca00a4"/></linearGradient><linearGradient id="Безымянный_градиент_43-3" x1="502.81" y1="192.58" x2="502.81" y2="122.71" xlink:href="#Безымянный_градиент_43"/><linearGradient id="Безымянный_градиент_136" x1="538.83" y1="163.08" x2="538.83" y2="63.73" gradientUnits="userSpaceOnUse"><stop offset="0" stop-color="#753c59"/><stop offset="0.4" stop-color="#57224e"/><stop offset="0.76" stop-color="#441247"/><stop offset="1" stop-color="#3d0c45"/></linearGradient><linearGradient id="Безымянный_градиент_43-4" x1="562.86" y1="201.43" x2="562.86" y2="101.04" xlink:href="#Безымянный_градиент_43"/><linearGradient id="Безымянный_градиент_133" x1="618.56" y1="205.29" x2="618.56" y2="129.14" gradientUnits="userSpaceOnUse"><stop offset="0.01" stop-color="#ec1d22"/><stop offset="1" stop-color="#ff2f0e"/></linearGradient><linearGradient id="Безымянный_градиент_27" x1="465.94" y1="159.45" x2="465.94" y2="124.66" gradientUnits="userSpaceOnUse"><stop offset="0.01" stop-color="#ec2739"/><stop offset="1" stop-color="#ff550e"/></linearGradient><linearGradient id="Безымянный_градиент_192" x1="627.75" y1="57.79" x2="627.75" y2="33.17" gradientUnits="userSpaceOnUse"><stop offset="0" stop-color="#fff"/><stop offset="0.99" stop-color="#ca00a4"/></linearGradient><linearGradient id="Безымянный_градиент_202" x1="571.55" y1="439.07" x2="571.55" y2="411.57" gradientUnits="userSpaceOnUse"><stop offset="0" stop-color="#a99fac"/><stop offset="0.36" stop-color="#a898b5"/><stop offset="0.94" stop-color="#a484cc"/><stop offset="1" stop-color="#a481cf"/></linearGradient><linearGradient id="Безымянный_градиент_60" x1="580.67" y1="418.83" x2="580.67" y2="216.24" gradientUnits="userSpaceOnUse"><stop offset="0" stop-color="#6342b1"/><stop offset="0.25" stop-color="#664cbe"/><stop offset="0.69" stop-color="#6e67df"/><stop offset="1" stop-color="#757cf9"/></linearGradient><linearGradient id="Безымянный_градиент_107" x1="620.87" y1="49.69" x2="630.89" y2="49.69" gradientUnits="userSpaceOnUse"><stop offset="0" stop-color="#ab003c"/><stop offset="1" stop-color="#b14a57"/></linearGradient><linearGradient id="Безымянный_градиент_107-2" x1="600.92" y1="42.52" x2="608.97" y2="42.52" xlink:href="#Безымянный_градиент_107"/><linearGradient id="Безымянный_градиент_26" x1="624.49" y1="54.89" x2="624.49" y2="48.24" gradientUnits="userSpaceOnUse"><stop offset="0.02" stop-color="#8c7c4c"/><stop offset="1" stop-color="#514c4e"/></linearGradient><linearGradient id="Безымянный_градиент_26-2" x1="604.05" y1="48.47" x2="604.05" y2="43.27" xlink:href="#Безымянный_градиент_26"/><linearGradient id="Безымянный_градиент_119" x1="616.76" y1="98.35" x2="616.76" y2="71.07" gradientTransform="matrix(0.96, 0.28, -0.28, 0.96, 37.53, -208.74)" gradientUnits="userSpaceOnUse"><stop offset="0.01" stop-color="#ca00a4"/><stop offset="1" stop-color="#fff"/></linearGradient><linearGradient id="Безымянный_градиент_119-2" x1="627.56" y1="97.34" x2="627.56" y2="89.6" xlink:href="#Безымянный_градиент_119"/><linearGradient id="Безымянный_градиент_107-3" x1="598.75" y1="67.02" x2="604.94" y2="67.02" xlink:href="#Безымянный_градиент_107"/><linearGradient id="Безымянный_градиент_192-2" x1="605.42" y1="48.63" x2="605.42" y2="28.37" xlink:href="#Безымянный_градиент_192"/><linearGradient id="Безымянный_градиент_119-3" x1="596.29" y1="77.92" x2="637.79" y2="77.92" gradientTransform="matrix(1, 0, 0, 1, 0, 0)" xlink:href="#Безымянный_градиент_119"/><linearGradient id="Безымянный_градиент_159-2" x1="608.08" y1="33.96" x2="608.08" y2="24.75" xlink:href="#Безымянный_градиент_159"/><linearGradient id="Безымянный_градиент_159-3" x1="629.53" y1="41.41" x2="629.53" y2="30.11" xlink:href="#Безымянный_градиент_159"/><linearGradient id="Безымянный_градиент_174" x1="614.5" y1="17.88" x2="650.02" y2="17.88" gradientUnits="userSpaceOnUse"><stop offset="0.01" stop-color="#891dab"/><stop offset="0.94" stop-color="#fff"/></linearGradient><linearGradient id="Безымянный_градиент_174-2" x1="613.47" y1="13.72" x2="617.56" y2="13.72" xlink:href="#Безымянный_градиент_174"/><linearGradient id="Безымянный_градиент_174-3" x1="627.77" y1="29.67" x2="649.17" y2="29.67" xlink:href="#Безымянный_градиент_174"/><linearGradient id="Безымянный_градиент_175" x1="651.68" y1="36.73" x2="661.99" y2="36.73" gradientUnits="userSpaceOnUse"><stop offset="0.06" stop-color="#fff"/><stop offset="0.99" stop-color="#891dab"/></linearGradient><linearGradient id="Безымянный_градиент_174-4" x1="634.56" y1="6.24" x2="646.55" y2="6.24" xlink:href="#Безымянный_градиент_174"/><linearGradient id="Безымянный_градиент_192-3" x1="614.5" y1="72.36" x2="640.44" y2="72.36" xlink:href="#Безымянный_градиент_192"/><linearGradient id="Безымянный_градиент_119-4" x1="586.36" y1="201.43" x2="586.36" y2="181.84" gradientTransform="matrix(1, 0, 0, 1, 0, 0)" xlink:href="#Безымянный_градиент_119"/><linearGradient id="Безымянный_градиент_176" x1="595.72" y1="200.63" x2="595.72" y2="161.09" gradientUnits="userSpaceOnUse"><stop offset="0" stop-color="#ffaba4"/><stop offset="0.99" stop-color="#a40084"/></linearGradient><linearGradient id="Безымянный_градиент_176-2" x1="603.52" y1="199.73" x2="603.52" y2="160.62" xlink:href="#Безымянный_градиент_176"/><linearGradient id="Безымянный_градиент_138" x1="603.1" y1="168.64" x2="603.1" y2="158.59" gradientUnits="userSpaceOnUse"><stop offset="0" stop-color="#fff"/><stop offset="0.99" stop-color="#a40084"/></linearGradient><linearGradient id="Безымянный_градиент_24" x1="604.49" y1="155.87" x2="604.49" y2="135.72" gradientUnits="userSpaceOnUse"><stop offset="0.01" stop-color="#a40084"/><stop offset="1" stop-color="#ffaba4"/></linearGradient><linearGradient id="Безымянный_градиент_168" x1="622.02" y1="155.83" x2="622.02" y2="128.32" gradientUnits="userSpaceOnUse"><stop offset="0.01" stop-color="#b331b8"/><stop offset="1" stop-color="#d1a9c7"/></linearGradient><linearGradient id="Безымянный_градиент_24-2" x1="612.17" y1="170.05" x2="643.39" y2="170.05" xlink:href="#Безымянный_градиент_24"/><linearGradient id="Безымянный_градиент_150" x1="603.73" y1="205.29" x2="603.73" y2="186.38" gradientUnits="userSpaceOnUse"><stop offset="0.01" stop-color="#a40084"/><stop offset="1" stop-color="#fff"/></linearGradient><linearGradient id="Безымянный_градиент_150-2" x1="558.64" y1="214.18" x2="581.17" y2="214.18" xlink:href="#Безымянный_градиент_150"/><linearGradient id="Безымянный_градиент_138-2" x1="565.36" y1="216.76" x2="617.17" y2="216.76" xlink:href="#Безымянный_градиент_138"/><linearGradient id="Безымянный_градиент_150-3" x1="579.98" y1="128.05" x2="598.32" y2="128.05" xlink:href="#Безымянный_градиент_150"/><linearGradient id="Безымянный_градиент_184" x1="580.59" y1="253.22" x2="580.59" y2="233.66" gradientUnits="userSpaceOnUse"><stop offset="0.01" stop-color="#7738ab"/><stop offset="0.94" stop-color="#a67cff"/></linearGradient><linearGradient id="Безымянный_градиент_187" x1="600.79" y1="241.86" x2="600.79" y2="219.51" gradientUnits="userSpaceOnUse"><stop offset="0.01" stop-color="#7738ab"/><stop offset="0.94" stop-color="#fff"/></linearGradient><linearGradient id="Безымянный_градиент_203" x1="575.68" y1="341.03" x2="575.68" y2="311.37" gradientUnits="userSpaceOnUse"><stop offset="0.06" stop-color="#fff"/><stop offset="0.99" stop-color="#7738ab"/></linearGradient><linearGradient id="Безымянный_градиент_203-2" x1="596.6" y1="321.53" x2="596.6" y2="246.33" xlink:href="#Безымянный_градиент_203"/><linearGradient id="Безымянный_градиент_187-2" x1="589.46" y1="418.83" x2="589.46" y2="331.42" xlink:href="#Безымянный_градиент_187"/><linearGradient id="Безымянный_градиент_187-3" x1="577.03" y1="416.48" x2="577.03" y2="332.72" xlink:href="#Безымянный_градиент_187"/><linearGradient id="Безымянный_градиент_162" x1="544.88" y1="462.37" x2="544.88" y2="423.32" gradientUnits="userSpaceOnUse"><stop offset="0" stop-color="#b1411d"/><stop offset="0.61" stop-color="#ba4220"/><stop offset="1" stop-color="#c24223"/></linearGradient><linearGradient id="Безымянный_градиент_24-3" x1="602.28" y1="146.58" x2="634.99" y2="146.58" xlink:href="#Безымянный_градиент_24"/><linearGradient id="Безымянный_градиент_58-3" x1="614.04" y1="24.75" x2="614.04" y2="4.02" xlink:href="#Безымянный_градиент_58"/><linearGradient id="Безымянный_градиент_192-4" x1="571.09" y1="136.87" x2="571.09" y2="120.07" xlink:href="#Безымянный_градиент_192"/><linearGradient id="Безымянный_градиент_203-3" x1="568.13" y1="426.26" x2="568.88" y2="426.26" xlink:href="#Безымянный_градиент_203"/><linearGradient id="Безымянный_градиент_203-4" x1="569.17" y1="430.51" x2="579.83" y2="430.51" xlink:href="#Безымянный_градиент_203"/><linearGradient id="Безымянный_градиент_203-5" x1="600.06" y1="419.68" x2="609.16" y2="419.68" xlink:href="#Безымянный_градиент_203"/></defs><g class="cls-1"><g id="Layer_2" data-name="Layer 2"><g id="objects"><path class="cls-2" d="M0,461s206,16.56,510.91,1.43C510.91,462.42,194.66,451.35,0,461Z"/><polygon class="cls-3" points="89.4 460.86 89.89 374.68 180.96 372.85 178.04 461.24 89.4 460.86"/><polygon class="cls-4" points="180.96 372.85 214.43 366.46 211.63 460.8 178.04 461.24 180.96 372.85"/><polygon class="cls-5" points="214.43 366.46 116.73 366.46 89.89 374.68 180.96 372.85 214.43 366.46"/><polygon class="cls-6" points="136.76 368.42 129.99 370.59 163.5 370.59 170.84 368.42 136.76 368.42"/><polygon class="cls-7" points="89.89 374.68 116.73 366.46 150.39 359.41 150.39 362.38 130.61 371.25 89.89 374.68"/><polygon class="cls-8" points="93.82 374.68 130.61 371.25 130.58 369.51 91.28 374.68 93.82 374.68"/><polygon class="cls-9" points="130.58 369.51 150.39 359.41 150.39 362.38 130.61 371.25 130.58 369.51"/><polygon class="cls-10" points="180.96 372.85 136.76 368.42 156.24 359.41 214.43 366.46 180.96 372.85"/><polygon class="cls-11" points="136.76 368.42 135.64 370.59 180.96 372.85 136.76 368.42"/><path class="cls-12" d="M89.42,457.56s9,2.05,45.63,2.85,43.09-2.09,43.09-2.09,20.23,2,26.86,2.23,6.77-4.45,6.77-4.45l-.14,4.7-122.23.06Z"/><path class="cls-13" d="M181,372.85s1.32,54.58-2.81,85.47Z"/><path class="cls-14" d="M181,372.85s4.65,46.41-2.91,88.39C178,463.43,182.85,415,181,372.85Z"/><path class="cls-15" d="M185.79,429.92c-5.11-27.11-3.1-42.51,3.65-52.34,6.89-10,18.26-8.44,21.44-2.9s2.06,37.68-3.46,52.89C202.09,442.27,185.79,429.92,185.79,429.92Z"/><path class="cls-16" d="M170.48,384.84c-16-13.9-58-5.61-66.73,8.26-8.44,13.45,43.63,25.67,59.46,46.67C178.3,459.8,178.17,391.53,170.48,384.84Z"/><path class="cls-17" d="M124.76,374.68c-3.08,1.78,34.43,2.91,43.16,6.48s10.94-6.48,10.94-6.48Z"/><path class="cls-18" d="M105,417.65c-8.88.43-16.77,37.54-12.64,40.38s58.35-1.41,65.29-8.86S133.14,409.88,105,417.65Z"/><polygon class="cls-19" points="187.48 396.02 185.57 442.45 206.66 441.82 211.46 394.16 187.48 396.02"/><g class="cls-20"><polygon class="cls-21" points="189.64 439.38 188.15 439.38 190.35 403.1 191.91 403.1 189.64 439.38"/><polygon class="cls-21" points="190.88 439.38 190.14 439.38 192.43 403.1 193.2 403.1 190.88 439.38"/><polygon class="cls-21" points="195.52 439.38 193.29 439.38 195.71 403.1 198.04 403.1 195.52 439.38"/><polygon class="cls-21" points="202.36 439.38 200.13 439.38 202.84 403.1 205.17 403.1 202.36 439.38"/><polygon class="cls-21" points="192.38 439.38 191.63 439.38 193.98 403.1 194.76 403.1 192.38 439.38"/><polygon class="cls-21" points="198.51 439.38 197.76 439.38 200.38 403.1 201.15 403.1 198.51 439.38"/><polygon class="cls-21" points="196.31 439.38 195.94 439.38 198.47 403.1 198.86 403.1 196.31 439.38"/><polygon class="cls-21" points="197.1 439.38 196.73 439.38 199.3 403.1 199.69 403.1 197.1 439.38"/><polygon class="cls-21" points="204.77 439.38 204.39 439.38 207.29 403.1 207.68 403.1 204.77 439.38"/></g><polygon class="cls-22" points="187.51 395.28 185 443.03 206.66 441.82 185.57 442.45 187.51 395.28"/><g class="cls-23"><path class="cls-24" d="M153.31,394.31c-3.23,3.16,2.88,7.54,5.08,5.67S156.56,391.12,153.31,394.31Z"/><path class="cls-24" d="M144.37,397c-1.12-2.91,1.59-4.25,1.75-1.71S145,398.53,144.37,397Z"/><path class="cls-24" d="M154,451.17c-.09-2.78,2.7-3,2.07-.86S154,452.65,154,451.17Z"/><path class="cls-24" d="M118.14,404.37c3.45-2,7.1-.94,5.45,4.44s-7.2,5.53-7.27,2.77S116,405.62,118.14,404.37Z"/><path class="cls-24" d="M161.51,451.84c-.56-4,3.34-8.44,5.83-6.43s1.56,4.26-.11,5.77C165.86,452.42,161.78,453.83,161.51,451.84Z"/><path class="cls-24" d="M94.78,418.8c-2.78-3.63,2.52-5.66,4-4.85s1.34,3.23.23,3.83S95.56,419.81,94.78,418.8Z"/></g><path class="cls-25" d="M181,372.85l.44,20.64S182.84,382.18,181,372.85Z"/><path class="cls-25" d="M127.17,374.27s43.19,2.83,53.78-1.42Z"/><path class="cls-25" d="M106.31,372.7l32.39-7.33s-6.35,3.62-9.22,4.14S106.31,372.7,106.31,372.7Z"/><polygon class="cls-26" points="195.66 384.84 194.03 370.64 145.98 364.16 151.74 361.49 204.19 369.05 203.04 389.04 195.66 384.84"/><polygon class="cls-26" points="140.43 364.49 101.09 371.25 108.27 369.05 144.57 362.38 140.43 364.49"/><polygon class="cls-3" points="187.25 460.86 187.73 374.68 278.8 372.85 275.89 461.24 187.25 460.86"/><polygon class="cls-4" points="278.8 372.85 312.27 366.46 309.47 460.8 275.89 461.24 278.8 372.85"/><polygon class="cls-5" points="312.27 366.46 214.57 366.46 187.73 374.68 278.8 372.85 312.27 366.46"/><polygon class="cls-27" points="187.73 374.68 278.8 372.85 312.27 366.46 214.57 366.46 187.73 374.68"/><polygon class="cls-6" points="234.6 368.42 227.84 370.59 261.35 370.59 268.68 368.42 234.6 368.42"/><path class="cls-28" d="M187.26,457.56s9,2.05,45.64,2.85S276,458.32,276,458.32s20.24,2,26.87,2.23,6.76-4.45,6.76-4.45l-.14,4.7-122.23.06Z"/><path class="cls-13" d="M278.8,372.85s1.32,54.58-2.82,85.47Z"/><path class="cls-29" d="M278.8,372.85s4.65,46.41-2.91,88.39C275.86,463.43,280.69,415,278.8,372.85Z"/><path class="cls-15" d="M283.63,429.92c-5.11-27.11-3.1-42.51,3.65-52.34,6.9-10,18.27-8.44,21.45-2.9s2,37.68-3.46,52.89C299.94,442.27,283.63,429.92,283.63,429.92Z"/><path class="cls-17" d="M222.61,374.68c-3.09,1.78,34.42,2.91,43.15,6.48s10.94-6.48,10.94-6.48Z"/><path class="cls-18" d="M202.86,417.65c-8.88.43-16.76,37.54-12.63,40.38s58.34-1.41,65.28-8.86S231,409.88,202.86,417.65Z"/><g class="cls-23"><path class="cls-24" d="M268.36,380.52c-3.23,3.16,2.88,7.54,5.08,5.67S271.61,377.34,268.36,380.52Z"/><path class="cls-24" d="M242.21,397c-1.11-2.91,1.59-4.25,1.75-1.71S242.81,398.53,242.21,397Z"/><path class="cls-24" d="M251.81,451.17c-.09-2.78,2.71-3,2.07-.86S251.86,452.65,251.81,451.17Z"/><path class="cls-24" d="M259,402c3.45-2,7.1-.94,5.45,4.44s-7.2,5.52-7.27,2.77S256.86,403.21,259,402Z"/><path class="cls-24" d="M264.13,447.64c3.45-2,7.1-.94,5.45,4.45s-7.2,5.52-7.27,2.77S262,448.89,264.13,447.64Z"/><path class="cls-24" d="M196,384.11c-.55-4,3.35-8.44,5.84-6.44s1.55,4.27-.11,5.78C200.39,384.69,196.31,386.1,196,384.11Z"/><path class="cls-24" d="M192.63,418.8c-2.78-3.63,2.51-5.66,4-4.85a2.38,2.38,0,0,1,.22,3.83C195.74,418.38,193.4,419.81,192.63,418.8Z"/></g><path class="cls-25" d="M278.8,372.85l.44,20.64S280.69,382.18,278.8,372.85Z"/><path class="cls-25" d="M225,374.27s43.19,2.83,53.78-1.42Z"/><polygon class="cls-30" points="261.35 370.59 287.87 371.12 263.09 370.07 261.35 370.59"/><polygon class="cls-31" points="227.84 370.59 216.17 374.11 229.75 370.63 227.84 370.59"/><polygon class="cls-32" points="268.68 368.42 278.8 366.46 265.83 368.42 268.68 368.42"/><polygon class="cls-33" points="282.3 460.73 282.81 371.02 377.61 369.11 374.58 461.13 282.3 460.73"/><polygon class="cls-4" points="377.61 369.11 412.33 366.91 409.54 460.67 374.58 461.13 377.61 369.11"/><polygon class="cls-5" points="412.46 362.46 310.75 362.46 282.81 371.02 377.61 369.11 412.46 362.46"/><polygon class="cls-34" points="282.81 371.02 377.61 369.11 412.33 366.91 310.75 362.46 282.81 371.02"/><polygon class="cls-6" points="331.61 364.5 324.56 366.76 359.45 366.76 367.08 364.5 331.61 364.5"/><path class="cls-35" d="M282.32,457.3s9.33,2.13,47.51,3,44.85-2.17,44.85-2.17,21.07,2.06,28,2.32,7-4.63,7-4.63l-.15,4.89-127.24.06Z"/><path class="cls-13" d="M377.61,369.11s1.37,56.83-2.93,89Z"/><path class="cls-36" d="M377.61,369.11s4.84,48.32-3,92C374.55,463.41,379.58,413,377.61,369.11Z"/><path class="cls-15" d="M382.65,428.53c-5.32-28.23-3.23-44.26,3.79-54.49,7.18-10.45,19-8.79,22.33-3s2.14,39.23-3.61,55.06C399.62,441.39,382.65,428.53,382.65,428.53Z"/><path class="cls-16" d="M366.71,381.6c-16.64-14.47-60.41-5.84-69.47,8.59-8.79,14,45.42,26.72,61.9,48.59C374.84,459.63,374.71,388.56,366.71,381.6Z"/><path class="cls-17" d="M319.12,371c-3.22,1.86,35.83,3,44.92,6.74S375.43,371,375.43,371Z"/><path class="cls-18" d="M298.56,415.76c-9.24.44-17.45,39.07-13.15,42s60.73-1.47,68-9.23S327.84,407.66,298.56,415.76Z"/><g class="cls-23"><path class="cls-24" d="M348.83,391.45c-3.36,3.29,3,7.86,5.3,5.91S352.21,388.14,348.83,391.45Z"/><path class="cls-24" d="M339.53,394.23c-1.17-3,1.65-4.43,1.82-1.79S340.15,395.85,339.53,394.23Z"/><path class="cls-24" d="M349.52,450.65c-.09-2.9,2.81-3.13,2.15-.89S349.57,452.19,349.52,450.65Z"/><path class="cls-24" d="M298.59,375.69c3.59-2.12,7.39-1,5.67,4.63s-7.5,5.75-7.57,2.88S296.37,377,298.59,375.69Z"/><path class="cls-24" d="M349.65,445.49c-.58-4.17,3.48-8.79,6.07-6.7s1.62,4.45-.11,6C354.19,446.09,349.94,447.56,349.65,445.49Z"/><path class="cls-24" d="M287.9,417c-2.89-3.77,2.62-5.89,4.17-5.05s1.39,3.36.23,4S288.71,418,287.9,417Z"/></g><path class="cls-25" d="M377.61,369.11l.46,21.49S379.58,378.83,377.61,369.11Z"/><path class="cls-25" d="M321.62,370.59s45,3,56-1.48Z"/><polygon class="cls-37" points="359.45 366.76 387.06 367.31 361.26 366.23 359.45 366.76"/><polygon class="cls-38" points="324.56 366.76 312.42 370.43 326.55 366.81 324.56 366.76"/><polygon class="cls-39" points="367.08 364.5 377.61 362.46 364.11 364.5 367.08 364.5"/><polygon class="cls-3" points="195.91 369.46 196.41 279.75 291.22 277.84 288.19 369.85 195.91 369.46"/><polygon class="cls-4" points="291.22 277.84 325.93 275.64 323.15 369.39 288.19 369.85 291.22 277.84"/><polygon class="cls-5" points="326.06 271.19 224.36 271.19 196.41 279.75 291.22 277.84 326.06 271.19"/><polygon class="cls-34" points="196.41 279.75 291.22 277.84 325.93 275.64 224.36 271.19 196.41 279.75"/><polygon class="cls-6" points="245.21 273.23 238.16 275.49 273.05 275.49 280.69 273.23 245.21 273.23"/><path class="cls-40" d="M195.93,366s9.32,2.13,47.5,3,44.86-2.17,44.86-2.17,21.06,2.06,28,2.32,7-4.64,7-4.64l-.14,4.9-127.24.06Z"/><path class="cls-13" d="M291.22,277.84s1.37,56.82-2.93,89Z"/><path class="cls-41" d="M291.22,277.84s4.83,48.32-3,92C288.15,372.14,293.18,321.7,291.22,277.84Z"/><path class="cls-15" d="M296.25,337.26C290.93,309,293,293,300.05,282.77c7.18-10.45,19-8.79,22.32-3s2.14,39.22-3.6,55.06C313.22,350.11,296.25,337.26,296.25,337.26Z"/><path class="cls-16" d="M280.31,290.33c-16.63-14.48-60.41-5.84-69.46,8.59-8.79,14,45.42,26.72,61.89,48.59C288.45,368.36,288.31,297.29,280.31,290.33Z"/><path class="cls-17" d="M232.72,279.75c-3.21,1.85,35.84,3,44.92,6.74s11.4-6.74,11.4-6.74Z"/><path class="cls-18" d="M212.17,324.48c-9.25.45-17.46,39.08-13.16,42s60.74-1.47,68-9.23S241.44,316.39,212.17,324.48Z"/><g class="cls-23"><path class="cls-24" d="M262.43,300.18c-3.36,3.29,3,7.85,5.3,5.9S265.82,296.86,262.43,300.18Z"/><path class="cls-24" d="M253.13,303c-1.16-3,1.65-4.43,1.82-1.78S253.75,304.57,253.13,303Z"/><path class="cls-24" d="M263.12,359.37c-.09-2.89,2.82-3.13,2.16-.89S263.17,360.91,263.12,359.37Z"/><path class="cls-24" d="M212.19,284.42c3.59-2.12,7.39-1,5.67,4.62s-7.49,5.75-7.56,2.89S210,285.72,212.19,284.42Z"/><path class="cls-24" d="M263.25,354.22c-.58-4.18,3.48-8.79,6.08-6.7s1.62,4.44-.12,6C267.79,354.82,263.54,356.29,263.25,354.22Z"/><path class="cls-24" d="M201.51,325.67c-2.9-3.77,2.62-5.88,4.16-5s1.39,3.36.24,4S202.32,326.73,201.51,325.67Z"/></g><path class="cls-25" d="M291.22,277.84l.45,21.49S293.18,287.55,291.22,277.84Z"/><path class="cls-25" d="M235.23,279.32s45,2.94,56-1.48Z"/><polygon class="cls-42" points="273.05 275.49 300.66 276.04 274.87 274.95 273.05 275.49"/><polygon class="cls-43" points="238.16 275.49 226.02 279.15 240.15 275.53 238.16 275.49"/><polygon class="cls-44" points="280.69 273.23 291.22 271.19 277.72 273.23 280.69 273.23"/><polygon class="cls-26" points="245.88 278.85 246.35 369.67 237.43 368.84 235.23 279.32 247.76 275.47 261.47 274.95 245.88 278.85"/><polygon class="cls-3" points="26.58 365.76 14.43 460.28 121.29 460.41 138.33 363.19 26.58 365.76"/><polygon class="cls-4" points="138.33 363.19 149.18 365.72 137.97 460.43 121.29 460.41 138.33 363.19"/><path class="cls-13" d="M121.85,455.52l-106.45-.3s70.25-2.41,106.92-.71l16-91.32S127.65,435.49,121.85,455.52Z"/><path class="cls-45" d="M79.14,453.89H81s-6.13,10.86-14.84,10.23-8.38-9.9-8.38-9.9Z"/><path class="cls-3" d="M79.14,453.89s-4.47,9.2-12.53,10.18-10.52-9.82-10.52-9.82l11.6-.4Z"/><polygon class="cls-13" points="138.13 459.09 121.85 455.52 122.32 454.51 138.13 459.09"/><path class="cls-46" d="M138.33,363.19s-5.27,43.56-16,91.32C122.32,454.51,135.69,401.12,138.33,363.19Z"/><path class="cls-17" d="M121.85,455.52s.64,3.45-4.91,4.16-38.63-.06-38.63-.06S90.85,455,121.85,455.52Z"/><path class="cls-47" d="M122.32,454.51s14.29-49.55,17.36-50.73-2.48,54-2.48,54Z"/><path class="cls-13" d="M138.33,363.19,26.58,365.76S95.62,365.94,138.33,363.19Z"/><path class="cls-48" d="M138.33,363.19,26.58,365.76S84.09,362.76,138.33,363.19Z"/><path class="cls-16" d="M130.79,369c.73,8-13.67,51-35,57.38-21.81,6.48-25.69-46.95-11.43-55C98.33,363.41,130.45,365.24,130.79,369Z"/><path class="cls-18" d="M88.18,443.63c9.39-8.3-10.75-35.37-11.87-57.87-1.09-21.84-30.69-14.48-35.19-2-4.58,12.79-19.68,58.52,1,63.3C62.59,451.85,86.6,445,88.18,443.63Z"/><path class="cls-49" d="M136.92,366.16c.12,1.35-6.76,41.17-9.85,46.85s-11.95,10.17-12.67,6.32,16.14-44.56,18.15-47.9A22.1,22.1,0,0,1,136.92,366.16Z"/><path class="cls-16" d="M28.24,368.27c3.07-1.49,12.59,2.29,11.47,8.41S30.4,390,28.16,386,28.24,368.27,28.24,368.27Z"/><path class="cls-49" d="M51.78,367.76c3.52,3.4-6.94,4.17-11.05,3.36a17.66,17.66,0,0,1-6.95-3.06S44,365.09,51.78,367.76Z"/><polygon class="cls-50" points="137.97 460.43 121.53 459.06 83.58 460.36 137.97 460.43"/><path class="cls-50" d="M58.86,460.33s-35.71-.58-44.25-1.44l-.18,1.39Z"/><path class="cls-6" d="M139.82,381.63c-.26,2.4.28,4.43,1.23,4.91a.92.92,0,0,0,.41.1c1.19,0,2.82-2.15,3.1-4.88s-.87-4.95-2.06-5a.94.94,0,0,0-.43.08C141,377.27,140.08,379.24,139.82,381.63Z"/><path class="cls-51" d="M139.82,381.63c-.26,2.4.28,4.43,1.23,4.91,1-.43,2-2.41,2.26-4.81s-.29-4.4-1.24-4.87C141,377.27,140.08,379.24,139.82,381.63Z"/><path class="cls-6" d="M131.22,446.13c-.29,2.64.26,4.85,1.26,5.35a.91.91,0,0,0,.43.1c1.26,0,3.39-2.42,3.7-5.42s-1.29-5.42-2.54-5.43a1.22,1.22,0,0,0-.45.1C132.53,441.31,131.5,443.49,131.22,446.13Z"/><path class="cls-51" d="M131.22,446.13c-.29,2.64.26,4.85,1.26,5.35,1.11-.49,2.13-2.69,2.41-5.33s-.27-4.83-1.27-5.32C132.53,441.31,131.5,443.49,131.22,446.13Z"/><path class="cls-25" d="M137.3,372.53s-1.47,23.25-6.13,37.5Z"/><path class="cls-25" d="M56.39,455.3l-41-.08A321.81,321.81,0,0,0,56.39,455.3Z"/><polygon class="cls-50" points="15.28 453.68 22.35 454.94 15.4 455.22 15.28 453.68"/><path class="cls-15" d="M121,451.53c.75-10.49-17.13-.07-17.13-.07S114.53,455.64,121,451.53Z"/><g class="cls-23"><path class="cls-24" d="M67.32,412.65c2.31,2.65-3.48,6.23-5.1,4.63S65,410,67.32,412.65Z"/><path class="cls-24" d="M74.5,415c1.29-2.38-.82-3.51-1.26-1.44S73.81,416.25,74.5,415Z"/><path class="cls-24" d="M136.63,398.7c1.13-2.27-.92-3.36-1.25-1.38S136,399.92,136.63,398.7Z"/><path class="cls-24" d="M32.92,440.65c.58-2.71-2-2.95-1.78-.85S32.6,442.11,32.92,440.65Z"/><path class="cls-24" d="M94.24,376.09c1.21-2.23-.83-3.32-1.23-1.37S93.6,377.28,94.24,376.09Z"/><path class="cls-24" d="M59.59,418.91c-2.65-1.75-6-.88-5.38,3.72s5.4,4.85,5.87,2.46S61.23,420,59.59,418.91Z"/><path class="cls-24" d="M33.69,435.83c1.22-3.83-1.58-8-4.22-6.18s-2.24,4-1,5.5C29.53,436.36,33.08,437.76,33.69,435.83Z"/><path class="cls-24" d="M123.83,427.38c2.5-3.1-1.84-4.9-3.12-4.22s-1.29,2.76-.39,3.29S123.13,428.25,123.83,427.38Z"/><path class="cls-24" d="M94.39,384.17c2.53-2.91-1.72-4.68-3-4.06s-1.34,2.61-.45,3.13S93.68,385,94.39,384.17Z"/><path class="cls-24" d="M144.38,372.46c2.33-2.8-1.81-4.53-3-3.93a1.88,1.88,0,0,0-.32,3C141.9,372.06,143.73,373.25,144.38,372.46Z"/></g><g class="cls-52"><path class="cls-21" d="M40.69,373.36s.71,4.5-3.09,5.49l-.88,3.51,2.43,1.36-2.56-.07,1.09-10.43Z"/><path class="cls-21" d="M34.64,373.07s-1.69,4.46,1.94,5.74l.14,3.55L34,383.57l2.6.08,1.09-10.43Z"/><path class="cls-21" d="M44.31,371.18,42,385.08l-11.22-.28.62-14.29Zm-13,13.1,10.29.28,2-12.64L32,371.34Z"/></g><polygon class="cls-53" points="46.04 371.48 62.07 370.28 61.71 385.57 44.24 385.13 46.04 371.48"/><path class="cls-54" d="M59.5,372.82l-.18,2.91-12,1.34.33-3.18Z"/><path class="cls-55" d="M59.53,376.79l-.3,6.77-12.1.36,1-5.95Z"/><polygon class="cls-13" points="62.07 370.28 62.1 386.02 44.6 385.58 44.5 385.14 61.74 385.35 62.07 370.28"/><polygon class="cls-56" points="151.72 373.62 158.3 460.86 137.49 460.69 148.24 373.51 151.72 373.62"/><polygon class="cls-33" points="286.77 355.31 286.28 370.43 366.16 369.11 366.16 355.6 286.77 355.31"/><polygon class="cls-4" points="366.16 355.6 440.19 355.67 440.19 364.85 366.16 369.11 366.16 355.6"/><path class="cls-15" d="M367.53,368.59c-1.37-3.21.87-11,3-11.66s46.88,2,46.88,2-14.31,5-25.91,6.67S367.53,368.59,367.53,368.59Z"/><path class="cls-17" d="M287.73,366.44c-1.31-5.43,2.89-8,26.29-9.14s42.12,9.47,42.12,9.47a202.32,202.32,0,0,1-36.76,2.74C299.19,369.13,288.6,370.05,287.73,366.44Z"/><polygon class="cls-26" points="296.65 355.25 296.65 370.26 312.27 369.93 313.84 355.41 296.65 355.25"/><polygon class="cls-26" points="406.02 355.63 406.81 360.37 429.5 359.28 430.95 355.6 406.02 355.63"/><polygon class="cls-56" points="245.51 436.82 255.95 437.78 273.44 461.31 245.98 461.11 245.51 436.82"/><polygon class="cls-33" points="129.96 433.96 129.47 462.86 209.61 461.04 209.61 435.2 129.96 433.96"/><polygon class="cls-4" points="209.61 435.2 245.88 435.58 246.35 461.27 209.61 461.04 209.61 435.2"/><path class="cls-15" d="M211,460.06c-1.37-6.15.87-21.08,3-22.28s28,3,28,3,4.71,10.79-6.92,13.83S211,460.06,211,460.06Z"/><path class="cls-17" d="M130.92,455.25c-1.31-10.38,2.9-15.3,26.38-17.25s42.25,18.47,42.25,18.47a109.28,109.28,0,0,1-36.88,4.92C142.42,460.48,131.79,462.15,130.92,455.25Z"/><polygon class="cls-57" points="129.96 433.96 211.8 433.83 245.88 435.58 209.52 435.72 129.96 433.96"/><path class="cls-3" d="M209.52,435.72s4.14,9.9.09,25.32A109.06,109.06,0,0,0,209.52,435.72Z"/><polygon class="cls-58" points="330.69 192.5 342.64 149.05 232.08 151.88 224.27 191.08 330.69 192.5"/><polygon class="cls-59" points="214.1 201.85 212.12 118.4 272.08 112.44 267.62 201.85 214.1 201.85"/><polygon class="cls-59" points="230.87 201.85 226.14 118.4 286.1 112.44 281.64 201.85 230.87 201.85"/><polygon class="cls-60" points="286.1 112.44 289.3 112.44 284.54 201.85 281.64 201.85 286.1 112.44"/><polygon class="cls-60" points="272.08 112.44 275.28 112.44 270.52 201.85 267.62 201.85 272.08 112.44"/><path class="cls-61" d="M275,116.86s4.68,1.66,8.87,0l-3.68,85h-9.71Z"/><polygon class="cls-56" points="275.04 116.86 276.71 117.29 272.82 201.85 270.52 201.85 275.04 116.86"/><polygon class="cls-56" points="220.7 117.55 223.22 201.85 225.54 201.85 221.69 117.55 220.7 117.55"/><polygon class="cls-62" points="212.4 130.11 220.7 129.53 220.7 133.42 212.47 133.42 212.4 130.11"/><polygon class="cls-62" points="212.4 137.76 220.7 137.18 220.7 141.07 212.47 141.07 212.4 137.76"/><polygon class="cls-63" points="194.73 201.85 192.75 108.61 252.71 101.95 248.25 201.85 194.73 201.85"/><polygon class="cls-63" points="211.5 201.85 206.77 108.61 266.73 101.95 262.27 201.85 211.5 201.85"/><polygon class="cls-64" points="266.73 101.95 269.93 101.95 265.17 201.85 262.27 201.85 266.73 101.95"/><polygon class="cls-64" points="252.71 101.95 255.91 101.95 251.15 201.85 248.25 201.85 252.71 101.95"/><path class="cls-61" d="M255.67,106.89s4.68,1.85,8.87,0l-3.68,95h-9.71Z"/><polygon class="cls-56" points="255.67 106.89 257.34 107.37 253.45 201.85 251.15 201.85 255.67 106.89"/><polygon class="cls-56" points="201.33 107.66 203.85 201.85 206.17 201.85 202.32 107.66 201.33 107.66"/><polygon class="cls-62" points="193.02 121.69 201.33 121.04 201.33 125.39 193.1 125.39 193.02 121.69"/><polygon class="cls-62" points="193.02 130.24 201.33 129.59 201.33 133.94 193.1 133.94 193.02 130.24"/><polygon class="cls-50" points="342.64 149.05 344.07 150.07 330.69 192.5 342.64 149.05"/><polygon class="cls-65" points="177.51 194.18 120.78 180.86 120.97 176.86 181.56 193.84 177.51 194.18"/><polygon class="cls-66" points="120.97 176.86 192.51 173.5 245.06 186.91 177.51 194.18 120.97 176.86"/><polygon class="cls-3" points="177.51 278.16 177.51 194.18 277.41 185.79 274.42 278.16 177.51 278.16"/><polygon class="cls-4" points="277.41 185.79 330.69 192.5 333.57 278.16 274.42 278.16 277.41 185.79"/><polygon class="cls-67" points="177.51 194.18 148.36 146.47 250.71 137.23 277.41 185.79 177.51 194.18"/><polygon class="cls-68" points="330.69 192.5 364.93 157.71 320.71 138.35 277.41 185.79 330.69 192.5"/><polygon class="cls-69" points="320.71 138.35 319.83 136.06 276.86 185.06 277.41 186.56 320.71 138.35"/><polygon class="cls-70" points="250.71 137.23 252.95 135.71 277.41 185.79 276.59 185.85 250.71 137.23"/><polygon class="cls-71" points="148.36 146.47 148.36 144.76 252.95 135.71 251.3 138.35 148.36 146.47"/><polygon class="cls-50" points="319.83 136.06 364.93 157.71 320.71 138.35 319.83 136.06"/><polygon class="cls-56" points="277.41 186.56 276.86 194.18 332.72 252.72 330.69 192.5 364.93 157.71 320.71 138.35 277.41 186.56"/><path class="cls-72" d="M177.51,194.18s68-8.33,99.9,1.35v-9L251.3,138.35l-102.94,8.12Z"/><path class="cls-73" d="M177.51,262.33s3.4,12.17,9.93,14,80.12,2.59,87.09-1.69c0,0,40.75,2.81,50.73,2.71s8.16-3.54,8.16-3.54l.15,4.35H177.51Z"/><path class="cls-13" d="M274.53,274.64s4.67-49,2.88-88.08Z"/><path class="cls-74" d="M277.41,186.56s5.21,56-3,91.6C274.42,278.16,279.29,211.94,277.41,186.56Z"/><path class="cls-25" d="M279,221.64s-1.58,10.88-2.16,15.18a79.83,79.83,0,0,0,.55,21.78S279.73,230.6,279,221.64Z"/><path class="cls-25" d="M319.83,136.06l-14,15.92s11.36-7.62,14.85-13.63Z"/><path class="cls-75" d="M158.65,143.87s22.87-1,49.49-2.12S253,135.7,253,135.7Z"/><path class="cls-76" d="M177.51,194.18s-3.21,57.91,0,84Z"/><path class="cls-77" d="M148.36,146.47s76.87,1.09,92,2.58,36.51,36,36.51,36L251.3,138.35Z"/><path class="cls-18" d="M293.82,187.87S281.31,173.14,317.33,152c19.62-11.52,38.82,8.61,32.66,18.8s-25,18.39-32.1,19.33S293.82,187.87,293.82,187.87Z"/><path class="cls-77" d="M148.36,146.47s29,42.37,32.36,43.81c5.14,2.22,96.69-4.49,96.69-4.49l-99.9,8.39Z"/><path class="cls-16" d="M274.42,278.16s-36.4-55-64-58.38-30.24,58.38-30.24,58.38Z"/><path class="cls-13" d="M177.51,278.16v-84S179.16,200.3,177.51,278.16Z"/><path class="cls-16" d="M276.17,278.16s12.8-41.59,32-56.52,23.51-7.46,23.51-7.46l1.87,64Z"/><path class="cls-18" d="M209.56,195.53c-6.16,8.2,44.33,52.71,54.5,61.11s15.59-47.31,10.36-57.11S209.56,195.53,209.56,195.53Z"/><path class="cls-50" d="M254.35,277.49s20.72-2.81,21.82-2.74,20.17,3.41,20.17,3.41Z"/><path class="cls-17" d="M274.53,274.64s-9.08-7.36-10.11-12.31,8.66-11.57,8.66-11.57Z"/><polygon class="cls-26" points="185.94 141.5 184.28 143.64 200.66 162.38 218.61 161.37 210.12 141.68 212.89 139.17 185.94 141.5"/><polygon class="cls-26" points="342.64 147.01 343.95 148.53 328.25 165.71 333.57 166.66 349.34 150.88 348.9 150.01 342.64 147.01"/><g class="cls-20"><polygon class="cls-21" points="314.17 272.31 312.26 272.31 312.26 258.58 314.17 258.8 314.17 272.31"/><polygon class="cls-21" points="315.71 272.31 314.79 272.31 314.79 258.88 315.71 258.99 315.71 272.31"/><polygon class="cls-21" points="321.13 272.31 318.58 272.31 318.58 259.33 321.13 259.63 321.13 272.31"/><polygon class="cls-21" points="328.21 272.31 326 272.31 326 260.21 328.21 260.48 328.21 272.31"/><polygon class="cls-21" points="317.51 272.31 316.62 272.31 316.62 259.1 317.51 259.2 317.51 272.31"/><polygon class="cls-21" points="324.34 272.31 323.55 272.31 323.55 259.92 324.34 260.01 324.34 272.31"/><polygon class="cls-21" points="321.99 272.31 321.58 272.31 321.58 259.69 321.99 259.74 321.99 272.31"/><polygon class="cls-21" points="322.85 272.31 322.44 272.31 322.44 259.79 322.85 259.84 322.85 272.31"/><polygon class="cls-21" points="330.48 272.31 330.13 272.31 330.13 260.7 330.48 260.75 330.48 272.31"/></g><g class="cls-23"><path class="cls-24" d="M254.35,199c-3.08,2.8,2.8,6.72,4.9,5S257.43,196.17,254.35,199Z"/><path class="cls-24" d="M245.81,201.33c-1.05-2.58,1.54-3.76,1.68-1.52S246.37,202.71,245.81,201.33Z"/><path class="cls-24" d="M287.18,228.74c-.1-2.78,2.73-3,2.1-.86S287.24,230.23,287.18,228.74Z"/><path class="cls-24" d="M229.65,157.83c-1.05-2.59,1.53-3.77,1.67-1.53S230.21,159.21,229.65,157.83Z"/><path class="cls-24" d="M261.91,205.78c3.29-1.82,6.81-.84,5.31,4s-6.9,5-7,2.51S259.87,206.91,261.91,205.78Z"/><path class="cls-24" d="M287.29,223.79c-.58-4,3.31-8.3,5.83-6.34s1.62,4.19-.05,5.69C291.7,224.37,287.57,225.78,287.29,223.79Z"/><path class="cls-24" d="M309.53,171.63c-.58-4,0-6.72,2.52-4.76s1.82,4.48,0,4.76S309.82,173.62,309.53,171.63Z"/><path class="cls-24" d="M187.3,213.91c-2.49-3.36,2.8-5.24,4.2-4.49a2.14,2.14,0,0,1,0,3.55C190.38,213.53,188,214.86,187.3,213.91Z"/><path class="cls-24" d="M228.12,167c-2.49-3.37,2.8-5.24,4.2-4.49a2.13,2.13,0,0,1,0,3.54C231.2,166.6,228.82,167.94,228.12,167Z"/></g><path class="cls-78" d="M277.82,186.11s40.35,4.25,45.3,4.17S336,187.16,336,187.16l-5.25,5.34Z"/><g class="cls-52"><path class="cls-21" d="M237.59,258.91s-1.06,5.22,3.47,6.48l.89,4.09-3,1.5h3.08l-.83-12.13Z"/><path class="cls-21" d="M244.89,258.77s1.81,5.24-2.61,6.61l-.33,4.1,3.2,1.49h-3.1l-.83-12.13Z"/><path class="cls-21" d="M233.29,256.23l2.2,16.23h13.42V255.89Zm15,15.63-12.32,0-1.86-14.76,14-.28Z"/></g><g class="cls-52"><path class="cls-21" d="M253.44,263.57s-.48-5.87,4.26-6.28c5-.42,4.53,5.45,4.53,5.45A25.84,25.84,0,0,0,253.44,263.57Z"/><path class="cls-21" d="M253.69,268s.95,2.46,2.84,1.5.7-8.32.7-8.32l1.53-.1s.93,6.63-1.58,8.62S253.69,268,253.69,268Z"/><path class="cls-21" d="M249.81,255.73v16.66h16.11V254.15Zm15.24,15.78-14.56.11V256.46l14.56-1.33Z"/></g><polygon class="cls-79" points="204.34 279.18 292.23 279.69 325.91 278.16 274.42 278.16 207.29 278.16 204.34 279.18"/><polygon class="cls-6" points="463.13 256.63 441.27 277.95 382.92 301.6 309.18 287.97 375.01 254.85 463.13 256.63"/><polygon class="cls-4" points="376.92 283.84 455.31 288.15 448.97 355.6 374.1 355.6 376.92 283.84"/><polygon class="cls-80" points="309.18 287.97 319.61 297.37 371.07 273.33 375.01 254.85 309.18 287.97"/><polygon class="cls-4" points="375.01 254.85 463.13 256.63 458.55 281.62 380.44 273.43 375.01 254.85"/><polygon class="cls-81" points="458.55 281.62 456.41 281.93 378.27 274.48 375.26 255.71 380.44 273.43 458.55 281.62"/><polygon class="cls-81" points="371.07 273.33 373.23 274.43 375.01 254.85 371.07 273.33"/><polygon class="cls-5" points="319.61 297.37 322.67 296.73 373.23 274.43 371.07 273.33 319.61 297.37"/><polygon class="cls-82" points="378.27 274.48 380.44 273.43 375.01 254.85 378.27 274.48"/><polygon class="cls-3" points="309.18 287.97 376.92 283.84 374.1 355.6 309.72 355.6 309.18 287.97"/><polygon class="cls-72" points="392.01 284.67 410.38 277.34 432.2 279.62 417.84 286.09 392.01 284.67"/><path class="cls-83" d="M309.77,353s.36.93,20,2.08S374.15,353,374.15,353s43.65,2,56,2.33,19-1.17,19-1.17L449,355.6H309.72Z"/><path class="cls-50" d="M349.7,355.6s20.38-2.74,24.48-4l30.3,4Z"/><path class="cls-50" d="M376.92,283.84l-2.74,67.75S377.87,306.44,376.92,283.84Z"/><path class="cls-84" d="M376.92,283.84s5.05,33.72-2.74,67.75C374.18,351.59,378.56,312.86,376.92,283.84Z"/><path class="cls-85" d="M375,254.85s8.8,15.64,39.82,20.52c31.52,5,45.41-3,45.41-3l-1.69,9.23-78.11-8.19Z"/><path class="cls-16" d="M312.24,354.27s-2-39.64,6.27-46.72c8.13-6.93,55.59,48.05,55.59,48.05Z"/><path class="cls-16" d="M377.09,355.6s23-39.74,49.24-54c25.14-13.66,25.76,20.81,25.76,20.81L449,355.6Z"/><path class="cls-18" d="M314.47,289.55c-2.61,5.73,40.22,42.39,49.76,50.94,9.79,8.77,12.49-49.26,10-52.82S314.47,289.55,314.47,289.55Z"/><path class="cls-25" d="M376.92,283.84l.06,29.42s.93-2.48,1-12.32A142.07,142.07,0,0,0,376.92,283.84Z"/><path class="cls-18" d="M452.09,322.41s-23.77,5.16-18.68,33.19H449Z"/><path class="cls-17" d="M312.91,286.09s23.74.48,39.19-5.85C367.24,274,375,254.85,375,254.85Z"/><polygon class="cls-26" points="409.6 255.55 410.36 276.57 432.15 278.85 434.12 256.04 409.6 255.55"/><polygon class="cls-26" points="411.42 285.74 410.45 328.01 418.06 328.01 419.89 323.78 420.1 328.01 426.93 328.01 427.96 323.61 430.95 322.41 430.87 286.81 411.42 285.74"/><path class="cls-17" d="M310.53,354.27s3.66-9,3.28-14.15-3.13-7.1-3.13-7.1Z"/><g class="cls-23"><path class="cls-24" d="M347.11,300.71c-3.91,3.11,2.91,7.5,5.56,5.61S351,297.64,347.11,300.71Z"/><path class="cls-24" d="M336.67,303.33c-1-2.86,2.17-4.16,2.15-1.69S337.22,304.87,336.67,303.33Z"/><path class="cls-24" d="M441.37,268.6c-.36-2.76,2.83-3,2.31-.85S441.56,270.09,441.37,268.6Z"/><path class="cls-24" d="M397.1,263.65c-1.21-2.52,1.67-3.66,1.87-1.49S397.75,265,397.1,263.65Z"/><path class="cls-24" d="M355.79,308.32c4.08-2.06,8.29-.95,6.26,4.56s-8.74,5.83-8.7,2.9S353.25,309.59,355.79,308.32Z"/><path class="cls-24" d="M444.78,269.88c-1-3.94,3-8.19,6-6.28s2.26,4.14.53,5.63C449.87,270.46,445.29,271.87,444.78,269.88Z"/><path class="cls-24" d="M383,293.17c-2.9-3.6,3.33-5.59,5-4.8a2.17,2.17,0,0,1,0,3.79C386.62,292.76,383.79,294.2,383,293.17Z"/></g><g class="cls-20"><polygon class="cls-21" points="342.66 340.26 345.09 340.26 346.56 317.07 344.19 317.44 342.66 340.26"/><polygon class="cls-21" points="340.7 340.26 341.87 340.26 343.42 317.56 342.27 317.74 340.7 340.26"/><polygon class="cls-21" points="333.81 340.26 337.05 340.26 338.7 318.3 335.53 318.8 333.81 340.26"/><polygon class="cls-21" points="324.8 340.26 327.62 340.26 329.44 319.75 326.67 320.18 324.8 340.26"/><polygon class="cls-21" points="338.41 340.26 339.54 340.26 341.14 317.92 340.03 318.09 338.41 340.26"/><polygon class="cls-21" points="329.73 340.26 330.73 340.26 332.5 319.27 331.52 319.42 329.73 340.26"/><polygon class="cls-21" points="332.71 340.26 333.23 340.26 334.96 318.88 334.45 318.96 332.71 340.26"/><polygon class="cls-21" points="331.62 340.26 332.13 340.26 333.88 319.05 333.38 319.13 331.62 340.26"/><polygon class="cls-21" points="321.91 340.26 322.35 340.26 324.26 320.56 323.83 320.63 321.91 340.26"/></g><path class="cls-86" d="M376.92,283.84s62.7,4.79,78.39,4.31Z"/><path class="cls-79" d="M195.91,349.75l-.3,2.19s.26,1.48.81,3.48a20.88,20.88,0,0,0,2.31,6,63.31,63.31,0,0,0,6.88,7.59h-1.42l-16.46,5.63,24.92,1c3.46,3.15,6.38,5.67,7.19,6.37l.08,3.52c-5.45.07-11.88.32-19.23.89l3.14,50.88h34.56l.37-5.66h0l2.88-45.22a147.92,147.92,0,0,0-18.55-.91l-.25-4.91c.89-1.28,1.94-2.8,3-4.44L279,378.3l3.67,9.22.1-9.48,95.81-2.27,33.49-6.66.22-2.2-46.17,2.2-79.88,1.32.05-1.32-55.8,0c.6-1,1.19-1.91,1.73-2.82,4.61-7.78,18.38-34,18.38-34A90.38,90.38,0,0,0,236.78,341h0l-.92.71h0a65.79,65.79,0,0,0-7,6.3h0l-.05.06c-.6.63-1.19,1.28-1.75,1.94h0a40.44,40.44,0,0,0-3.52,4.8c-.09.14-.17.29-.25.44a166,166,0,0,1,2.39-17.57c1.66-2.42,5.29-7.6,9.07-12.38,4.52,2.51,7.64,4.65,7.64,4.65a21.65,21.65,0,0,0-4.68-8.25,31.53,31.53,0,0,1,6.22-6,111.48,111.48,0,0,1,14.48-6.84s-18.83-.73-26.16,1.63c-2.43.77-4.07,4.17-5.18,8.35h-5.89l2.36-19.49s8-13.49,9.77-18.56c.82-2.38.35-11.28-.37-20.07q0-.19,0-.36c-.67-8-1.54-15.79-1.84-18.45l-.11-1s-9.59,26.62-9.92,35.58c-.27,7.3,1.55,17.84,2.24,21.5-.57,5.71-1.36,12.9-1.94,15.71.34-8.64.51-18.37.51-18.37-2.33,2.6-2.86,7.1-2.86,7.1l.08,4.76c-.59-1.61-1.26-3.37-2-5.08v0h0l-.63-1.51c0-.8-.07-1.27-.07-1.27h-.49l-.3-.66c-2.94-9.55-5.91-17.9-5.91-17.9s-.3,3.94-.6,9.47c-1.54-1.32-3.27-2.7-4.87-3.94h0c-3.05-2.36-5.65-4.21-5.65-4.21s4.63,14.25,10,21.27c-.2,8.65,0,17.24,1.13,20.57,1.91,5.39,6.67,17,9.33,23.42l.26,11.47c-.7-2.07-1.33-4.06-1.33-4.06h0c-2-6.66-8-24.65-14.61-29.24h0l-.29-.18-.28-.19c-.38-.22-.79-.43-1.21-.64a31.25,31.25,0,0,0-5.34-2.13h0Zm25.9-11.87c.84-2.26,2.15-5.7,3.6-9.28-.61,5.67-.65,10.47-.65,10.47-.75,4.62-1.58,10.73-2.12,17.79a25.5,25.5,0,0,0-.84,3.18l-.57-11.23C221.43,346.23,221.69,342.29,221.81,337.88Zm-4.09,17.69,0,.17-.09-.28Z"/><path class="cls-87" d="M171.54,373.2S152.62,357,147.78,350.07s-7.6-41.73-7.6-41.73,17.54,12.39,25.94,28.56S171.54,373.2,171.54,373.2Z"/><path class="cls-88" d="M140.18,308.34s17.43,25.54,20.76,33.4,10.6,31.46,10.6,31.46,2.17-20-4.82-35.09S140.18,308.34,140.18,308.34Z"/><path class="cls-89" d="M172.52,339.47s-9.46-22.6-12.49-31.13,0-48.06,0-48.06,10.52,29.61,12.62,43.64S172.52,339.47,172.52,339.47Z"/><path class="cls-88" d="M160,260.28s6.66,39.72,7.56,46.17,4.93,33,4.93,33,2-20.52,0-33.27S160,260.28,160,260.28Z"/><polygon class="cls-90" points="153.46 434.54 149.96 377.89 195.56 377.89 191.94 434.54 153.46 434.54"/><path class="cls-91" d="M150,377.89s25.87,3.57,45.6,0C195.56,377.89,179.37,375.6,150,377.89Z"/><path class="cls-92" d="M155.12,377.89s22.76,2.21,36.22,0C191.34,377.88,176.82,376.37,155.12,377.89Z"/><path class="cls-93" d="M171.42,378.82,170,317.54s1.71-4.08.69-12.09l-.36-21,3.18-7.92s-.34,19.86-1,29.69,0,23.68,0,23.68l2.48,49Z"/><path class="cls-94" d="M174.25,364s-.3-27.44,5.44-48.42l-1-.57a221.23,221.23,0,0,0-4.88,40.82Z"/><path class="cls-95" d="M176.76,325.14s14.73-22,21.38-26a123.13,123.13,0,0,1,16.13-7.63s-21-.8-29.14,1.82S176.76,325.14,176.76,325.14Z"/><path class="cls-96" d="M176.76,325.14s8-23,11.2-25.84,26.31-7.77,26.31-7.77-22.18,4.94-26,8.12S176.76,325.14,176.76,325.14Z"/><path class="cls-97" d="M188.56,300.36h7.36s10.24-6.76,18.35-8.83C214.27,291.53,191.87,297,188.56,300.36Z"/><path class="cls-98" d="M110.32,300.36s11.38-2.59,25.4,3.74S160,326.77,160,326.77,129.86,304.19,110.32,300.36Z"/><path class="cls-99" d="M170,345.44s-8.73-15.92-17.68-23.12-42-22-42-22,29.86,2.36,42,9.32C161.65,315,170,345.44,170,345.44Z"/><path class="cls-100" d="M168.93,343.5l1.94,11.15s2.27-1.49,1.65-2.55-3.3-9.44-3.3-9.44Z"/><path class="cls-101" d="M170,317.54,166.48,281h1s1.4,30.12,3.42,32.35C170.91,313.3,171.37,316.23,170,317.54Z"/><path class="cls-102" d="M172.65,303.92l4.11-34-.77.78s-2.29,25.41-3.34,27.45Z"/><path class="cls-103" d="M175.43,281s8.94-15,10.89-20.67-2.62-44.36-2.62-44.36-10.68,29.64-11,39.62S175.43,281,175.43,281Z"/><path class="cls-104" d="M183.82,217s-6.15,38.53-8.39,64Z"/><path class="cls-105" d="M171.55,375.77s-.32-26.32,3.88-33.11c9.28-15,30.15-25.12,30.15-25.12s-15.33,29.19-20.47,37.86S171.55,375.77,171.55,375.77Z"/><path class="cls-104" d="M205.58,317.54l-34,58.23S196.38,330.7,205.58,317.54Z"/><path class="cls-106" d="M173.55,276.51s-.5,7.59-3.18,7.92C170.37,284.43,171,279.42,173.55,276.51Z"/><path class="cls-107" d="M171.86,302.66s-3.15,16.36.53,24.11c0,0,7.06-19.72,11.43-26.94l-4.46,2.83Z"/><path class="cls-108" d="M150.44,323.83a196.38,196.38,0,0,1,9.24,17.38c3.26,7.44,9.25,23.67,9.25,23.67s-7.06-21.53-8.57-24.4S150.44,323.83,150.44,323.83Z"/><path class="cls-109" d="M171.86,302.66h7.5l4.46-2.83A28,28,0,0,1,196.43,315S183.79,306.32,171.86,302.66Z"/><path class="cls-97" d="M179.36,302.66s11.78,2.42,17.07,12.31c0,0-2.26-9.33-12.61-15.14Z"/><path class="cls-110" d="M173,297a46.16,46.16,0,0,1-13-10c-6.5-7.05-12.4-25.2-12.4-25.2s12.4,8.82,16,13.26S173,297,173,297Z"/><path class="cls-104" d="M147.63,261.74s8.42,15.53,12,20.87C162.76,287.32,173,297,173,297s-10.39-9.63-13.66-14.22S147.63,261.74,147.63,261.74Z"/><path class="cls-111" d="M145,306.59l3.77,13.24,2.88,2L153,310.09A32,32,0,0,0,145,306.59Z"/><polygon class="cls-111" points="183.38 354.64 179.36 337.31 181.37 335.09 184.75 352.22 183.38 354.64"/><polygon class="cls-111" points="189.12 328.07 191.34 340.77 192.41 338.93 190.14 327.28 189.12 328.07"/><path class="cls-111" d="M177.6,264.44l9.19-8.89s-.5-13.19-.93-18.15l-5.12,3.07Z"/><path class="cls-111" d="M158.55,281l1.48-9.54-6.1-5-.67,5.47S156.89,278.91,158.55,281Z"/><polygon class="cls-111" points="166.12 290.16 168.27 284.05 168.94 285.71 166.72 290.93 166.12 290.16"/><path class="cls-111" d="M147.78,350.07l17,3.93L162,346.66l-17.64-7.19A41,41,0,0,0,147.78,350.07Z"/><polygon class="cls-111" points="143.08 332.75 158.23 338.1 158.23 336.77 142.7 330.36 143.08 332.75"/><path class="cls-56" d="M153,426.92s4.69,6.36,20.07,7,19.29-5.67,19.29-5.67l-.4,6.3H153.46Z"/><path class="cls-18" d="M150,377.89s7.21,44.24,22.56,42.88,20.77-41.9,20.77-41.9S165.72,383.55,150,377.89Z"/><text class="cls-112"/><g class="cls-112"><path class="cls-21" d="M305.93,442.31a1,1,0,0,1-.29-1.95c.27-.09,28.14-8.5,57.36-6.67a1,1,0,0,1,.94,1.06,1,1,0,0,1-1.06.94c-28.87-1.82-56.38,6.5-56.66,6.58A1,1,0,0,1,305.93,442.31Z"/></g><g class="cls-112"><path class="cls-21" d="M249.72,239.57a1,1,0,0,1-.47-.12c-25.49-13.68-54-17.57-54.25-17.61a1,1,0,1,1,.26-2c.29,0,29.13,4,54.94,17.83a1,1,0,0,1,.41,1.35A1,1,0,0,1,249.72,239.57Z"/></g><polygon class="cls-33" points="379.08 386.97 392.72 382.5 419.33 453.64 404.2 460.73 379.08 386.97"/><polygon class="cls-4" points="392.72 382.5 457.87 382.34 495.85 453.69 419.33 453.64 392.72 382.5"/><polygon class="cls-113" points="404.2 460.73 480.03 460.4 495.85 453.69 419.33 453.64 404.2 460.73"/><path class="cls-33" d="M392.72,382.5s18,43.7,26.61,71.14A347.71,347.71,0,0,0,392.72,382.5Z"/><polygon class="cls-79" points="419.33 453.64 439.08 456.06 432.75 459.94 404.2 460.73 432.74 460.21 439.64 455.73 419.33 453.64"/><polygon class="cls-79" points="495.85 453.69 471.16 456.34 467.04 459.45 480.03 460.4 466.24 460.05 470.66 456.09 495.85 453.69"/><polygon class="cls-79" points="392.72 382.5 399.31 386.14 457.07 387.09 457.87 382.34 457.79 387.78 399.76 387.1 392.72 382.5"/><path class="cls-15" d="M404.54,389.17c-4,2.62,10.85,52.86,29.7,57.4,19.08,4.6,48.2,7.75,50.79-.26s-21.11-46.5-38.72-52.72C428.88,387.44,404.54,389.17,404.54,389.17Z"/><path class="cls-18" d="M382.25,386.61c-1.44,2.12,17.34,63.75,23.62,67.06s1-26.9-3.27-42.11S395.82,388,391.93,386,382.25,386.61,382.25,386.61Z"/><g class="cls-23"><path class="cls-24" d="M393.56,398.94c-3.3,3.41,2.92,7.9,5.18,5.88S396.89,395.5,393.56,398.94Z"/><path class="cls-24" d="M384.47,402c-1.13-3,1.61-4.52,1.77-1.85S385.07,403.58,384.47,402Z"/><path class="cls-24" d="M398.76,443.08c-.08-2.89,2.76-3.15,2.11-.9S398.81,444.62,398.76,443.08Z"/><path class="cls-24" d="M398.91,437.93c-.55-4.18,3.44-8.85,6-6.78s1.57,4.45-.15,6C403.34,438.5,399.18,440,398.91,437.93Z"/></g><polygon class="cls-26" points="392.72 427.01 407.35 421.61 477.7 419.59 483.58 430.64 412.46 432 397.38 440.68 392.72 427.01"/><polygon class="cls-26" points="447.7 460.73 454.55 453.93 445.78 441.31 463.06 441.31 472.49 453.64 460.84 460.4 447.7 460.73"/><path class="cls-2" d="M500.56,462.92s95.72,3.23,173.29-1.72C673.85,461.2,587.2,456.1,500.56,462.92Z"/><path class="cls-114" d="M653.41,27.59c-4.79-7.95,2.4-15.2,2.27-17.65s-4-7.39-4-7.39.71,4.71,0,7.39-1.93,2.9-2,9.79Z"/><path class="cls-115" d="M610.59,423.93s-1.69,8.59-6.5,8.13-10-5.91-10.67-7.48,1.17-.78,1.69-3.38-1.69-11.51-1.69-11.51l13.27-4.1s.78,5.85,2.47,7c1.19.82,0,2.1-.67,3.42a2.5,2.5,0,0,0-.37,1.66,19.68,19.68,0,0,0,1,3C609.84,422.35,610.59,423.93,610.59,423.93Z"/><path class="cls-116" d="M622.29,457.63c-8.59,1.95-23.4,1.43-23.4,1.43a6.83,6.83,0,0,0-4.3-2.87c-2.74-.39-13.92,3.52-13.92,3.52-5.72-.31-13.73-1.94-19.21-3.19-3.64-.83-6.16-1.49-6.16-1.49s1.17-4.17,3.36-5.47,19.14-4.69,25.4-10.5,8.85-13.72,9.87-13.64c4.67.3,8.85,8.92,13.28,4a15.84,15.84,0,0,0,3.38-5.46s8.85,20.05,9.71,23.32c.27,1.06.54,2.27.79,3.46C621.79,454.19,622.29,457.63,622.29,457.63Z"/><path class="cls-117" d="M622.29,457.63c-8.59,1.95-23.4,1.43-23.4,1.43a6.83,6.83,0,0,0-4.3-2.87c-2.74-.39-13.92,3.52-13.92,3.52-5.72-.31-13.73-1.94-19.21-3.19,1.12-.11,2.31-.18,3.59-.19,24-.26,56-5.62,56-5.62C621.79,454.19,622.29,457.63,622.29,457.63Z"/><path class="cls-118" d="M595,418s7.63,1.7,14.13-5.39a4.51,4.51,0,0,1-.95-1.29,54.81,54.81,0,0,1-13.91,2.34S594.9,416.63,595,418Z"/><path class="cls-119" d="M615.48,435.2s-7.49,8.05-6.32,17.29l11.93-1.78S618.17,441.45,615.48,435.2Z"/><path class="cls-120" d="M581,455.57s24.74-2.52,29.56-4.91,9.32-4.55,9.32-4.55l1.17,4.6S597,454.82,581,455.57Z"/><path class="cls-121" d="M566.23,226.2s5.07,77.71,8.71,91.33,13.85,96.12,13.85,96.12,23.68,1.57,29.77-10.14c0,0-4.91-49.7-19.25-83s-6-85.63-6-85.63L587.7,220S575.72,213.9,566.23,226.2Z"/><path class="cls-122" d="M568.83,187c-1.74,2.65-7.4,6.36-13.41,5.94a12,12,0,0,1-2.2-.35s-.73,2.08-2.28,1.16-.39,3.53-3.65,3.2a5.17,5.17,0,0,1-2.76-1.32,12.56,12.56,0,0,1-2.74-3.56l1.79-1.44s3.13-17.69-3.45-31.81c0,0-.71-2.27,0-3.19s2.58,1.67,3.78,1.67a.68.68,0,0,0,.32-.07c1.18-.56-.14-2.9.78-3.55s1.83.59,4.69-2.24a44.81,44.81,0,0,0,3.25-4c4.64-6.14,12.63-17,20.17-22.23C583,118.34,570.78,184,568.83,187Z"/><path class="cls-123" d="M568.83,187c-1.74,2.65-7.4,6.36-13.41,5.94h0c5.38-.18,10.81-37-2.47-45.53,4.64-6.14,12.63-17,20.17-22.23C583,118.34,570.78,184,568.83,187Z"/><path class="cls-124" d="M617,218.15a3.27,3.27,0,0,1,.13,2.53c-.84,1.77-4.23,1-4.23,1a6.13,6.13,0,0,1-2.35,6.24s-3.12-9.3-18.08-9.81-26.28,8.11-26.28,8.11a11.19,11.19,0,0,1-.91-6.68s-2.18-.39-2.46-1.05.88-1.93,1-2.07a0,0,0,0,1,0,0s-5.64,1.43-5.23-2.34,9.13-11.71,6.13-31.1-5.2-31.88.14-46.45c5.27-14.41,24.16-20.56,30.12-24.72l.19-.13c5.09-3.7,4.47-7.93,6-11.09h0a6.92,6.92,0,0,1,.68-1.13c2.44-3.26,7.62-3,7.62-3l-.88,3s9.46,1.58,17.53-3.62a3.48,3.48,0,0,1,3,1.27c.25.36.17.81,0,1.39h0c-.68,1.75-2.72,4.56-1.52,8.82a9.19,9.19,0,0,0,1.41,2.77c3.52,5.08,12,11.25,16.21,21.43,0,0-24,35.91-28.13,57.19S615.28,213.27,617,218.15Z"/><path class="cls-125" d="M471,130.77s-5.5,7.45-5.4,15.75c0,0,1.28,3,4.88,1.27l1.17-1.08a6,6,0,0,0,5.17-.19c3.12-1.37,7.81-10,14.35-12.2s-14.54-8-14.54-8Z"/><path class="cls-126" d="M634,75.08s-5.69,8.46-8,22c0,0-8.33,4.82-17.7,3.12,0,0,3.42-9.32,4.18-15.52S634,75.08,634,75.08Z"/><path class="cls-127" d="M639,69.51c-.38.51-.76,1-1.14,1.46l-.06.06c-8.29,10-18.51,13.34-26.51,13.71-8.39.39-12.78-1.07-13.86-2.63a11.92,11.92,0,0,1-1.13-3.46A81.48,81.48,0,0,1,594.88,62c.11-10.34,3-14.92,5.28-20.68s5-15,5-15c5.2-1.17,10.06-7.61,10.06-7.61,16.64-7.42,38.44,3.9,39,12S647.48,58.3,639,69.51Z"/><path class="cls-128" d="M614.5,23s9.11-1.37,13.27,3.45L648.57,34s-1.33-10.27-14-14.83a24.36,24.36,0,0,0-22,2.43Z"/><path class="cls-129" d="M608.25,147.62s-3.75,4.49-5,4.62-2.45-2.31-2.45-2.31a11.53,11.53,0,0,1-4.43,5.94c-3.31,2.1-9.39,2.72-9.39,2.72l4.87,4,8.62-.49,9.11-10.47Z"/><path class="cls-130" d="M641.92,59.37s10.35-6.15,14-1.85,0,13.95-8.59,15.71-9.76-3.81-9.76-3.81A30.18,30.18,0,0,1,641.92,59.37Z"/><path class="cls-131" d="M649.87,56.22S655.23,45.41,662,40.86c0,0-.39-6.38-8.32-15.09S647.4,6,647.4,6,642-1.43,632.2,3.78L633,4.92S642.8,3.16,644,9.5c0,0-5.17-1.88-13-7.58s-10.73,2.9-12.88,4.65-6.62,4-5.51,15l1.9-1.13v3.22S623.12,18.47,636,22c0,0-5.79-1.85-8.23,4.43,0,0,19.42,1.1,21.86,10.28,0,0,.63,7.52-4.73,7.33,0,0,1.74,3.86-5.42,13.36l1.82,2.88S646.72,56.37,649.87,56.22Z"/><path class="cls-132" d="M625.3,30.13s-1.95-.2-1.92,3.83Z"/><path class="cls-133" d="M641.12,63.49s5.08-4.14,9.91-3.32,3,9.47-2.34,11.52c0,0,4.48-2.89,4.16-6.25s-2-3.85-2.8-3.36-.19,4.44-3,7-6.93,1.4-6-.25,3.76-1.12,3.81-3.8S641.12,63.49,641.12,63.49Z"/><path class="cls-134" d="M641.8,63s3.52-.08,3.13,2-2.82,2.52-3.13,3.31,4.94,1.42,6.38-1.87-1.6-5.35-1.6-5.35S643.28,61.62,641.8,63Z"/><path class="cls-135" d="M543.58,191.27a4.28,4.28,0,0,1-1.79.79,23.41,23.41,0,0,1-3,.52c-5.87-5.66-12.78-17.25-18.4-27.86v0c-5.23-9.86-9.35-18.87-10.47-21.5-2.35-5.46-4.6-4.89-4.6-4.89a34.09,34.09,0,0,1-9.07,6s-.33-.05-.91-.11a48.32,48.32,0,0,0-9.14-.28,10.34,10.34,0,0,0-1.39.2h0a16.27,16.27,0,0,0-7.27,3.8,5.3,5.3,0,0,1-4.49-3.81,9.26,9.26,0,0,1,8.89-6,14.11,14.11,0,0,0,2.88.14h.17a20.75,20.75,0,0,0,6.8-1.61,4.45,4.45,0,0,0-.38-.58c-3.27-4.63-13-6.15-13-6.15s-5.18,5.86-11.23,7.71-6.54-4.2-6.54-4.2c7.32-2.14,14.15-10.63,14.15-10.63,12.11,4.58,31.62,2.34,32.79,2.86s1.69,1.82,7.67,9.62c.66.86,1.48,1.82,2.42,2.85,7.52,8.25,22.5,20.77,22.5,20.77C547.62,168.37,544.5,190.37,543.58,191.27Z"/><path class="cls-129" d="M565.08,185.12c7.46-7.18,15.64,18.39,29.8,24s19.62,0,19.62,0,.18-9.53,1.13-12.22-23.24-18.16-23.24-18.16l-30.46-38.65-2.8,4.34s.86,11,2.87,21.85C564.15,177.94,565.08,185.12,565.08,185.12Z"/><path class="cls-128" d="M544.53,195.62a12.56,12.56,0,0,1-2.74-3.56,23.41,23.41,0,0,1-3,.52c-5.87-5.66-12.78-17.25-18.4-27.86v0c2.54,2.51-1.89-22.1-2.73-26.66,7.52,8.25,22.5,20.77,22.5,20.77s-.71-2.27,0-3.19,2.58,1.67,3.78,1.67C546.33,169.2,549.51,189.44,544.53,195.62Z"/><path class="cls-136" d="M517.5,68.06s14-4.24,37-4.33l5.72,98.79s-24.72,2.08-35.91-1.82Z"/><polygon class="cls-137" points="560.17 63.73 554.45 63.73 560.17 162.52 562.97 162.52 560.17 63.73"/><path class="cls-129" d="M533.78,129.14a87.9,87.9,0,0,0,3.84,15.34c2.52,6.62,22.13,10.64,22.13,10.64l3-.14V142.9l-9.06-7.18Z"/><path class="cls-138" d="M596.68,199.74c-1.31,1-4.69,1.69-4.69,1.69-17.44-16.66-24.72-53.84-28-57.55s-17-4.78-17-4.78c-2.44-2.34-11.32-5.66-11.32-5.66-.88-5-5.56-7.91-5.56-7.91a29.31,29.31,0,0,1-.2-3.12l-1.27-.88a7.86,7.86,0,0,1,.58-4.29l-2.14-2a6,6,0,0,1,0-5.37c1-.65,3.63.55,3.88.67l-2.42-2.42c.4-3.42,3-4,3-4a24.28,24.28,0,0,1,11.06,10.16c6.38,6.24,20.82,7.8,20.82,7.8,1.43-2.21-1.72-4.39-1.72-4.39L561.23,101c1.31,6.51,11.6,19,11.6,19s-2.05,12.53-1.92,15.91,10.67,18.6,17.57,23.81,8,8.37,9.49,11.84C601.07,178.66,598,198.69,596.68,199.74Z"/><path class="cls-139" d="M610.59,198.31s-.19,5.2-4.48,4.32-3.16,3.41-6.8,2.54a6.29,6.29,0,0,1-4.44-4.53s3.33-6.31,2.65-19.29-5.63-18.74-5.63-18.74.23-3.21,1-4,2.74,2.31,3.52,2,.12-3.69.9-4.47,4.42,1,9.64-5.73,21.66-28.37,38.21-18.93C645.17,131.49,648.07,194.66,610.59,198.31Z"/><path class="cls-140" d="M439.74,159.45l5.36-7,43-27.8s3.9.87,4.08,6l-43.6,26.73Z"/><path class="cls-141" d="M445.1,152.46a3.83,3.83,0,0,0,3.45,4.91l-8.81,2.08Z"/><path class="cls-137" d="M441.34,157.37a1.34,1.34,0,0,0,.35,1.62l-1.95.46Z"/><path class="cls-142" d="M479.76,130a5.37,5.37,0,0,0,2.23,6.83l2.77-1.7s-3.56-2.39-3.62-6Z"/><path class="cls-143" d="M492.15,130.64l-7.39,4.53s-4.29-2-3.62-6l6.93-4.48S491.66,125,492.15,130.64Z"/><path class="cls-144" d="M488.07,124.66a8.51,8.51,0,0,0,4.08,6S491.93,125.42,488.07,124.66Z"/><path class="cls-145" d="M635.68,41s-5.7-10.81-12.3-7a157.57,157.57,0,0,0-3.74,16c-1.36,8,9.3,8.51,13.47,7.47S635.68,41,635.68,41Zm-4.47,12.68A12.26,12.26,0,0,0,623,44.05s2.56-5.27,4.79-5.2S634.35,46.52,631.21,53.68Z"/><path class="cls-146" d="M580,432.06l-.18.08a4.52,4.52,0,0,0-1.81,2,12.81,12.81,0,0,0-1.13,3.08s-2.73,3.38-5.85,1-7.29-11.32-7.29-11.32-3-4.82,0-5.47,2.73-9.89,2.73-9.89l12.1,4.17a95.26,95.26,0,0,0-.52,9.58C578.06,430.35,582.23,431.22,580,432.06Z"/><path class="cls-147" d="M610.59,242.54c-.57,4.88-3.31,5.27-4.87,10s-10.55,45.58-10.84,81.84c0,.22,0,.44,0,.65-.39,35.6-10.48,82.36-10.8,83.82v0s-21.48-.1-33.57-9.14c0,0,16.63-45.26,21.37-68.67a52.58,52.58,0,0,0,1.26-9.58c0-16.68-2.34-13.56-2.34-20.07s10.67-64,8.85-67.78-6.77-4.82-7.81-8.47-3.14-10.53-3.14-10.53,12.25-8.5,25.52-8.35a16.8,16.8,0,0,1,16.39,11.66S611.18,237.67,610.59,242.54Z"/><path class="cls-148" d="M621.12,48.15s.28-2.61,4.18-1,5.59,7.48,5.59,7.48-1.27-7.41-6.32-9.43S621.12,48.15,621.12,48.15Z"/><path class="cls-149" d="M609,46.46s-3.62-8-6.33-7.87-1.41,4.92-1.41,4.92.52-3.15,2.86-2.39S609,46.46,609,46.46Z"/><path class="cls-150" d="M601,41.94s-1.27,8.67,7,5.58l1-1.06s-2.55-5.25-5.29-5.44S601,41.94,601,41.94Z"/><path class="cls-150" d="M621.12,48.15s-.62,1.07.65,4.34,9.12,2.16,9.12,2.16-2-6.94-5.59-8.36S621.12,48.15,621.12,48.15Z"/><path class="cls-151" d="M621,49.13s4.65-4.2,7.06,5.7C628,54.83,620.41,55.83,621,49.13Z"/><path class="cls-152" d="M600.89,44.59s2.52-4.46,6.32,3C607.21,47.62,602.08,50.89,600.89,44.59Z"/><path class="cls-153" d="M621,50.78s3.1-3.66,5.69,4.1C626.7,54.88,621.52,54.92,621,50.78Z"/><path class="cls-153" d="M601.35,45.87s3.14-1.25,4.18,2.45C605.53,48.32,602.66,49.36,601.35,45.87Z"/><path class="cls-154" d="M603.15,61.7s-3.74-5-2.64-9.24,6-3.11,8.36-5.35,2.77-11.35,2.77-11.35-.7,10.06-3.83,11.6-6.83.66-9.12,5.72S603.15,61.7,603.15,61.7Z"/><path class="cls-134" d="M606.1,59.76s3.46-.88,4.17,2.46A7.61,7.61,0,0,0,606.1,59.76Z"/><path class="cls-155" d="M610.12,62.71s5.49-.67,3.76-7C613.88,55.76,614.05,60.69,610.12,62.71Z"/><path class="cls-134" d="M599.43,52.45c-1.29,4.16,7.67,6.09,10.12,6.06s1.62,1.57,1.92,2.27,1.95-.94,2.18-3c0,0,.55,3.06-3,6.12s-8.72.26-10.39-3-2.12-2.71-2.12-2.71S596.64,54.05,599.43,52.45Z"/><path class="cls-156" d="M598.79,66.79s2.84-.56,6.15,2.37c0,0-1.32-3.36-4-4.13S598.79,66.79,598.79,66.79Z"/><path class="cls-157" d="M611.63,34a7.41,7.41,0,0,0-6.7-5.6s-2,5.05-2.92,7.77-3.09,8.16-2.86,9.79,3.9,4.3,8.66,1.43S611.63,34,611.63,34Zm-2.06,11.3s-2.84-6-6.13-7.46c0,0,1.69-3.48,4-3.84S610.64,41.86,609.57,45.27Z"/><path class="cls-158" d="M637.79,71c-8.29,10-18.51,13.34-26.51,13.71-8.39.39-12.78-1.07-13.86-2.63a11.92,11.92,0,0,1-1.13-3.46s7.58,6.58,20.06,4.82C627.54,81.91,636.12,72.89,637.79,71Z"/><path class="cls-159" d="M605.13,26.29s5-6.64,6.51,7.67c0,0-2.86-5.35-7.12-5.63Z"/><path class="cls-160" d="M623.38,34s1.58-4.18,4.78-3.83c5.82.65,7.52,11.28,7.52,11.28S630.31,34.52,623.38,34Z"/><path class="cls-161" d="M628.23,52.4a.93.93,0,1,1-.93-.93A.93.93,0,0,1,628.23,52.4Z"/><path class="cls-161" d="M607.28,45.94a.93.93,0,1,1-.93-.93A.93.93,0,0,1,607.28,45.94Z"/><path class="cls-134" d="M610.12,94.55S614,101.89,628,88.44c0,0,3-9.51,6-13.36,0,0-9.41,9.07-21.55,9.59A74.26,74.26,0,0,1,610.12,94.55Z"/><path class="cls-162" d="M614.5,23.65s4.29-9.59,13.73-12.33S650,24.75,650,24.75A37.26,37.26,0,0,0,636,22S624.07,18.93,614.5,23.65Z"/><path class="cls-163" d="M614.5,20.43s.37-10.3,3.06-13.42C617.56,7,611,11.55,614.5,20.43Z"/><path class="cls-164" d="M627.77,26.42s12.1-4.28,16.49-1.67,4.91,10.68,4.91,10.68S640.56,26.55,627.77,26.42Z"/><path class="cls-165" d="M662,40.86s-7-4.61-9.76-8.81C652.23,32.05,648.2,44.11,662,40.86Z"/><path class="cls-166" d="M634.56,4.39s4.61-3,9.21-1.31,2.1,6.86,2.1,6.86L644,9.5s-1.36-5.95-9-4.78Z"/><path class="cls-167" d="M640.44,61.7s-12.19,0-15.88,1S614.5,83,614.5,83s9-.71,16-5.1S640.44,61.7,640.44,61.7Z"/><path class="cls-168" d="M627.55,107.29a9.19,9.19,0,0,0,1.41,2.77s-13,11.34-27.74,12.65c0,0,9.25-2.22,13.28-7,0,0-11.54,3.25-16.76,2.6-2.6-.32-3-3.44-2.69-6.5l.19-.13c5.09-3.7,4.47-7.93,6-11.09,0,.21-.32,3,11.2,2.76s16.35-4.58,16.64-4.85C628.39,100.22,626.35,103,627.55,107.29Z"/><path class="cls-134" d="M531,110.51s4.79,4.88,6,8.88c0,0,7.91,3.61,11,6.24,0,0-8.88-4.55-11.29-5.4A39.77,39.77,0,0,0,531,110.51Z"/><path class="cls-134" d="M529.21,117.24a22.92,22.92,0,0,1,6.89,7.42s7.81,2.79,11.26,6.11A62.51,62.51,0,0,0,536,125.63S533.11,120.3,529.21,117.24Z"/><path class="cls-134" d="M529.89,122.41a33.29,33.29,0,0,1,7.32,8.88s5.27.59,8.13,2.74a24.11,24.11,0,0,0-8.29-2.51A43.39,43.39,0,0,0,529.89,122.41Z"/><path class="cls-169" d="M528.87,108.41s3.33,3.49,5.61,3.49-1.13-6.76-2.81-7.35S528.87,108.41,528.87,108.41Z"/><path class="cls-169" d="M527.06,115.19s3.06,3,5.33,2.38-1.72-6.38-3.52-7.06S526.67,112.75,527.06,115.19Z"/><path class="cls-169" d="M528.62,121.53s3.12,2,4,1.71-1.71-4.39-3-5.17S528.62,121.53,528.62,121.53Z"/><path class="cls-169" d="M530.09,125.53s2.42,2.3,3,2-2.85-4.88-2.85-4.88A10.1,10.1,0,0,0,530.09,125.53Z"/><path class="cls-169" d="M474.23,143.52s4-2.87,6.51-1.46-2.56,5.22-2.56,5.22A9,9,0,0,1,474.23,143.52Z"/><path class="cls-169" d="M460.72,134s6.21.37,6.41-4.11l-6.53,3.42Z"/><path class="cls-170" d="M536,125.63a7.64,7.64,0,0,0,1.07,5.89s-1.26.16-1.39,1.92c-.88-5-5.56-7.91-5.56-7.91a29.31,29.31,0,0,1-.2-3.12l-1.27-.88a7.86,7.86,0,0,1,.58-4.29l-2.14-2a6,6,0,0,1,0-5.37c1-.65,3.63.55,3.88.67l-2.42-2.42c.4-3.42,3-4,3-4a24.28,24.28,0,0,1,11.06,10.16s-5.72,2.08-5.79,6C536.75,120.24,535.35,121.05,536,125.63Z"/><path class="cls-171" d="M592,201.43s.84-8.27-4.23-13.54-7.09-6-7.09-6S583.34,193.3,592,201.43Z"/><path class="cls-172" d="M591.89,161.85s1.66-2.84,5,2.49,4.22,28.08-2,36.29C594.88,200.63,601.42,175.36,591.89,161.85Z"/><path class="cls-173" d="M596.41,160.62s10.52,9.16,12.94,20.24c2.67,12.24-3.18,18.87-3.18,18.87s6.57-7,3.74-21.5S596.41,160.62,596.41,160.62Z"/><path class="cls-174" d="M596.86,158.75a12.66,12.66,0,0,1,8.79,1.87c4.43,2.81,3.64,8,3.64,8S601.86,160.56,596.86,158.75Z"/><path class="cls-175" d="M598.85,155.83s2.21-14,11.27-20.11c0,0-6.73,10.22-7,18.52C603.1,154.24,600.78,156.17,598.85,155.83Z"/><path class="cls-176" d="M603.1,153c1.78-.26,15.27-19.87,26-23.48s16.11,2,16.11,2-5.6-4.59-17.8,1.17-22.91,21.2-25.1,22.16a10.37,10.37,0,0,1-3.43,1Z"/><path class="cls-177" d="M643.39,144.48s-15.56,26.24-22.52,37.36-8.7,13.78-8.7,13.78,14,.26,22.82-15.44S643.39,144.48,643.39,144.48Z"/><path class="cls-178" d="M606.11,202.63c-4.29-.88-3.16,3.41-6.8,2.54,0,0,5.88-1.37,7.77-14.41S608.16,197.45,606.11,202.63Z"/><path class="cls-179" d="M581.17,211.71c-1.41.25-12.86,2.29-17.28,4.68,0,0-5.64,1.43-5.23-2.34C559.69,216.25,563.83,213.91,581.17,211.71Z"/><path class="cls-180" d="M617.17,220.68c-.84,1.77-4.23,1-4.23,1a24.26,24.26,0,0,0-19.81-9.17c-12.63.38-27,6.68-27.77,7,.81-.45,14.07-7.52,27.33-7.81,13.69-.31,24.44,9,24.44,9Z"/><path class="cls-181" d="M586.36,118.07a28.21,28.21,0,0,0-6.31,12.57c-1.31,7.16,18.27,7.4,18.27,7.4s-12.71-3-15.31-7.4S586.36,118.07,586.36,118.07Z"/><path class="cls-182" d="M579.63,243.59s4.21-7.88,11.64-9.44c0,0-13.44-3-14.33,5.82l-7-1.35s4.89,3.92,7,7.63a16.92,16.92,0,0,1,2.27,7A95.56,95.56,0,0,0,579.63,243.59Z"/><path class="cls-183" d="M596.41,219.51s-3.84,15.13,7.32,22.35l2.08-4.59s-2,1.28-5-.48S596.38,225.27,596.41,219.51Z"/><path class="cls-184" d="M580.59,328.55,571.87,341h0a52.58,52.58,0,0,0,1.26-9.58c0-16.68-2.34-13.56-2.34-20.07l5.47,11.46C578.84,328.3,580.59,328.55,580.59,328.55Z"/><path class="cls-185" d="M605.81,246.33s-11,40.58-14.54,51.25-3.88,23.95-3.88,23.95Z"/><path class="cls-186" d="M594.87,335c-.39,35.6-10.48,82.36-10.8,83.82v0s2.37-17.12,4.73-33.22c.78-5.32,2.81-53.93,4.5-54.19Z"/><path class="cls-187" d="M588.41,408.05s22.32-8.07,23.91-43.75c0,0-6.55-31.19-16.34-52.08,0,0-1.22,14.29-1.11,28.81s-7.48,61.48-7.48,61.48Z"/><path class="cls-188" d="M580.59,332.72s-7.26,42-8.56,59.13,8.64,24.63,8.64,24.63S584.06,408.05,580.59,332.72Z"/><path class="cls-189" d="M579.37,455.11c-.07,3.55-.3,5.94-.3,5.94l-16.65.39a5.44,5.44,0,0,0-4.32-4.3c-3.81-.78-12.89,4.49-12.89,4.49-15,1.66-34.84,0-34.84,0s.2-6.44,1.75-7.32,19.13-7.12,28.8-13.76,19.71-18.74,21.5-17.07c4.24,3.12,6.5,12.59,9.63,13.66a5,5,0,0,0,5.2-1.2C579.18,442.21,579.46,449.91,579.37,455.11Z"/><path class="cls-190" d="M579.37,455.11c-.07,3.55-.3,5.94-.3,5.94l-16.65.39a5.44,5.44,0,0,0-4.32-4.3c-3.81-.78-12.89,4.49-12.89,4.49-15,1.66-34.84,0-34.84,0s.2-6.44,1.75-7.32c0,0,20.67,1.11,44,1.24C571.52,455.63,577.26,455.33,579.37,455.11Z"/><path class="cls-118" d="M565.73,418.83a18.46,18.46,0,0,0,12.35,5.1l.26-5.43a107.51,107.51,0,0,1-12.22-2Z"/><path class="cls-191" d="M531.06,446.12s7.32-.74,10.64,9.09c0,0-18.36-.12-29.58-.9C516.52,451.58,531.06,446.12,531.06,446.12Z"/><path class="cls-191" d="M578.34,440.46s-9.51,3.14-10.88,15l11.91-.38S580.14,447.11,578.34,440.46Z"/><path class="cls-120" d="M579.46,453.82s-9.79,1.39-27.94,1.39c-17.5,0-39.4-.9-39.4-.9s39,2.19,67.25.8Z"/><path class="cls-192" d="M526.91,452.54s12.9-.68,21.62-4.56S560,439.07,560,439.07,538,450.63,526.91,452.54Z"/><path class="cls-193" d="M550.49,409.69s17.82,2.69,20.29-11.78c6.44-37.77,4.9-62.34,4.9-62.34s-.55.81-2.18,3.13S562.79,379.31,550.49,409.69Z"/><path class="cls-193" d="M570.78,313.31a14.7,14.7,0,0,0,10.39,1c5.74-1.62,17.05-45.56,18.69-57.81S585.32,237,585.32,237s-6,5.16-5.69,6.59S570.78,313.31,570.78,313.31Z"/><path class="cls-170" d="M484.76,138.17h0Z"/><path class="cls-170" d="M495.31,144.16a48.32,48.32,0,0,0-9.14-.28,10.34,10.34,0,0,0-1.39.2h0s2.44-5.91.18-5.91a20.75,20.75,0,0,0,6.8-1.61C491.38,138.11,494.05,142.29,495.31,144.16Z"/><path class="cls-170" d="M491.73,136.56a4.45,4.45,0,0,0-.38-.58A.42.42,0,0,1,491.73,136.56Z"/><path class="cls-194" d="M639.05,22.09s6.78-3.27,11,2.66C650,24.75,642.71,22.34,639.05,22.09Z"/><path class="cls-128" d="M637.79,71s7.4,2.48,11.38,1.66C649.17,72.69,642.34,75.56,637.79,71Z"/><path class="cls-195" d="M595.72,161.09s3.75,5.63,5.61,15.48,5.75,8.3,5.75,8.3,2.09-5.2-1.46-13.05A22.34,22.34,0,0,0,595.72,161.09Z"/><path class="cls-196" d="M571.55,307.49c4.56-12.77,8.86-1.2,9.12,3.88s-8.34,4.61-9.12,2.31S571.55,307.49,571.55,307.49Z"/><path class="cls-197" d="M569.91,238.62a36.21,36.21,0,0,1,6,17.87c.84,11-1.4,28.35-1.4,28.35s5-38.21,5.22-40.25-2.82-4.62-2.82-4.62Z"/><path class="cls-128" d="M505.29,138.31s2.06-1.41,3.62-1S511,145.8,511,145.8,508.71,139.19,505.29,138.31Z"/><path class="cls-198" d="M583,439.92s10,5.79,10.25,16.31a68.92,68.92,0,0,0-12.61,3.48l-1.49-.11a141.39,141.39,0,0,0-.46-16.75Z"/><path class="cls-199" d="M602.28,154.82s7,1.05,18.59-2.36A20.89,20.89,0,0,0,635,138.18s-12.77.19-19.33,8.4S602.28,154.82,602.28,154.82Z"/><path class="cls-129" d="M628.29,99.09s-2.67,2.34-9.24,4.75-10.34,12.29-10.34,12.29,6.16.33,9.85-1.88,8.75-8,8.75-8A14.49,14.49,0,0,1,628.29,99.09Z"/><path class="cls-129" d="M610.59,198.31s7.2-3.69,14.9-8.79a40.46,40.46,0,0,0,11.79-12.33S629.15,197.14,610.59,198.31Z"/><path class="cls-196" d="M570.78,227.06c.43,6-.19,11.24,4.06,9.94s6.88-4.41,14.29-4.87-8-2.76-12.19-1.44S570.78,227.06,570.78,227.06Z"/><path class="cls-195" d="M560.91,209c-2.18,6.11-.68,6.35,13.05,3.76s19.85-2.47,19.85-2.47-11-12.62-19-10.54S560.91,209,560.91,209Z"/><path class="cls-200" d="M602.28,127.6c-13.49,1.07-15.08,6.85-5.42,7.57,27.63,2.07,22.71-7.45,35.21-7.52s4.87-10.88-3-11.5S616.8,126.45,602.28,127.6Z"/><path class="cls-201" d="M517.3,451.72s4.57,3.55,22.78-1.06,21-11.28,22.34-18.6-5.79-5-5.79-5a177.55,177.55,0,0,1-18,15A64.3,64.3,0,0,1,517.3,451.72Z"/><path class="cls-202" d="M594.2,216.24s-2.58,18.3,8.08,28.26c0,0-12.88,61.92-13.12,69.8s-1.68,49.45-3.78,69.36a103.4,103.4,0,0,1-10,34.52l2.91.32s3.83-11,8-35.82,3.34-65.33,4.8-76.64,12.9-60.89,12.9-60.89,4.26-13.07,4.68-20.17l-1-2.36s-2.22,14.85-4,19.24c0,0-10.68-7.42-8-25.62Z"/><path class="cls-197" d="M565.36,223.53c.87,2.67,15.61-10.3,31.5-8.12s14.57,11.77,14.57,11.77l-.83.73.1,2.17s-2.55-11.57-16.89-11.84-27.5,9.28-27.5,9.28l-.08-1.86A6.13,6.13,0,0,1,565.36,223.53Z"/><path class="cls-201" d="M597.06,429s5.34,4.23,8.46,4.14,4.49-5,4.49-5-3.09,3.8-6.47,3.22A22.49,22.49,0,0,1,597.06,429Z"/><path class="cls-201" d="M566.23,430.65s2.5,5.71,5.31,7.92,5.36-1.37,5.36-1.37a5.3,5.3,0,0,1-4.56.33C569.66,436.58,566.23,430.65,566.23,430.65Z"/><polygon class="cls-203" points="524.94 73.12 541.35 71.22 541.35 75.92 525.54 75.92 524.94 73.12"/><path class="cls-203" d="M554.45,63.73l3,51.44a142.06,142.06,0,0,0,2.74-27.35c.22-16.39-2.86-24.09-2.86-24.09Z"/><path class="cls-203" d="M560.17,162.52l-.84-17.3s2.73,1.32,3.64,16.63Z"/><path class="cls-204" d="M605.42,65.88s2.18,4.87,6.22,5.15,6.92-6,6.92-6l-4.88-2.81S613.25,66.69,605.42,65.88Z"/><path class="cls-204" d="M617.56,53.68s1.65,7,7,8,14.49-.77,14.49-.77-4.84-2-6.79-2.54S617.56,53.68,617.56,53.68Z"/><path class="cls-204" d="M607.31,55.43c-.26,1,1,1.25,2.82,1.28s1.23-2.23.35-2.5S607.54,54.51,607.31,55.43Z"/><path class="cls-205" d="M620.14,4S601.86,7.21,610,24.75l1-.84S606.46,10.84,620.14,4Z"/><path class="cls-134" d="M461.93,136.56a14.21,14.21,0,0,0,7.31-.29c4-1.22,9.13-6.44,9.13-6.44a20.35,20.35,0,0,1-6.84,6.73C467.14,139.05,463.46,138.17,461.93,136.56Z"/><path class="cls-204" d="M447.49,152.9,478.58,133S459.11,149.73,447.49,152.9Z"/><path class="cls-206" d="M572.83,120.07a27.59,27.59,0,0,0-3.29,7.58c-.9,3.46,1.56,9.22,1.56,9.22A106,106,0,0,1,572.83,120.07Z"/><path class="cls-207" d="M568.13,425.9l.75.73A7.67,7.67,0,0,1,568.13,425.9Z"/><path class="cls-208" d="M579.83,432.14a4.52,4.52,0,0,0-1.81,2c-2.87-1.63-6.9-5.35-8.85-7.23a22.69,22.69,0,0,0,6.25,3.75A23.46,23.46,0,0,0,579.83,432.14Z"/><path class="cls-209" d="M609.16,420.68c-2.34,2.75-12.24,3.4-8.1,1.79a10,10,0,0,0,7.42-6.44h0a2.5,2.5,0,0,0-.37,1.66A19.68,19.68,0,0,0,609.16,420.68Z"/></g></g></g></svg>