<?xml version="1.0" standalone="no"?>
<!DOCTYPE svg PUBLIC "-//W3C//DTD SVG 20010904//EN"
 "http://www.w3.org/TR/2001/REC-SVG-20010904/DTD/svg10.dtd">
<svg version="1.0" xmlns="http://www.w3.org/2000/svg"
 width="169.000000pt" height="110.000000pt" viewBox="0 0 169.000000 110.000000"
 preserveAspectRatio="xMidYMid meet">

<g transform="translate(0.000000,110.000000) scale(0.100000,-0.100000)"
fill="#000000" stroke="none">
<path d="M729 603 c-1 -5 -1 -47 1 -95 1 -48 -1 -105 -5 -127 -6 -38 -9 -41
-40 -41 -36 0 -45 -12 -45 -62 0 -30 -1 -31 -19 -14 -30 28 -50 19 -78 -33 -3
-5 -113 -27 -253 -51 -218 -36 -230 -39 -230 -61 0 -18 10 -19 244 -19 l245 0
3 -48 c3 -44 5 -47 32 -50 35 -4 46 10 46 61 l0 37 229 0 230 0 3 -47 c3 -48
3 -48 38 -48 35 0 35 0 38 47 l3 48 245 0 c212 0 244 2 244 15 0 23 -28 31
-230 66 -102 18 -200 35 -218 38 -21 4 -37 15 -45 31 -15 29 -48 37 -67 15
-21 -25 -30 -17 -30 29 0 44 0 45 -37 48 l-38 3 -8 109 c-5 80 -4 111 4 117 7
4 9 14 6 23 -5 14 -26 16 -137 16 -71 0 -131 -3 -131 -7z m225 -94 c9 -94 8
-167 -4 -149 -5 8 -10 25 -10 38 0 26 -33 42 -86 42 -51 0 -71 -14 -78 -56
-17 -90 -26 42 -10 149 l6 37 87 0 88 0 7 -61z m-22 -188 c4 -35 5 -68 2 -73
-7 -11 -141 -10 -149 2 -3 5 -3 39 1 75 l7 66 66 -3 66 -3 7 -64z m-72 -114
c49 -1 90 1 90 6 0 4 5 7 10 7 6 0 10 -7 10 -15 0 -12 -19 -15 -110 -15 -93 0
-110 2 -110 16 0 8 4 12 10 9 5 -3 50 -7 100 -8z m-310 -23 c0 -17 -22 -14
-28 4 -2 7 3 12 12 12 9 0 16 -7 16 -16z m650 12 c0 -2 -7 -9 -15 -16 -12 -10
-15 -10 -15 4 0 9 7 16 15 16 8 0 15 -2 15 -4z m-726 -31 c-20 -30 -26 -31
-48 -6 -17 18 -17 19 1 24 10 3 28 5 41 6 22 1 22 0 6 -24z m814 19 c22 -6 22
-8 6 -25 -22 -25 -28 -24 -48 6 -15 23 -15 25 1 25 10 0 28 -3 41 -6z m-748
-51 c0 -8 -12 -13 -35 -13 -39 0 -42 6 -19 38 15 22 17 22 35 6 10 -9 19 -23
19 -31z m694 22 c22 -33 21 -35 -17 -35 -44 0 -50 7 -29 36 22 30 26 30 46 -1z
m-864 6 c0 -5 -7 -14 -15 -21 -12 -10 -18 -10 -30 0 -8 7 -12 16 -9 21 7 12
54 12 54 0z m1024 3 c13 -5 14 -9 5 -20 -16 -20 -32 -17 -47 6 -11 17 -10 20
7 20 11 0 27 -3 35 -6z m-989 -42 c-34 -4 -42 3 -25 23 12 14 15 14 33 -2 19
-18 19 -18 -8 -21z m935 18 c10 -18 8 -20 -20 -20 -32 0 -38 8 -18 28 17 17
26 15 38 -8z m-1090 0 c0 -5 -7 -10 -15 -10 -8 0 -15 5 -15 10 0 6 7 10 15 10
8 0 15 -4 15 -10z m50 -5 c11 -13 8 -15 -15 -15 -23 0 -26 2 -15 15 7 8 14 15
15 15 1 0 8 -7 15 -15z m1148 -3 c2 -7 -6 -12 -17 -12 -21 0 -27 11 -14 24 9
9 26 2 31 -12z m42 8 c0 -5 -4 -10 -10 -10 -5 0 -10 5 -10 10 0 6 5 10 10 10
6 0 10 -4 10 -10z m-1285 -10 c3 -5 -3 -10 -15 -10 -12 0 -18 5 -15 10 3 6 10
10 15 10 5 0 12 -4 15 -10z m468 3 c-7 -2 -21 -2 -30 0 -10 3 -4 5 12 5 17 0
24 -2 18 -5z m155 0 c-10 -2 -28 -2 -40 0 -13 2 -5 4 17 4 22 1 32 -1 23 -4z
m110 0 c-10 -2 -28 -2 -40 0 -13 2 -5 4 17 4 22 1 32 -1 23 -4z m140 0 c-10
-2 -26 -2 -35 0 -10 3 -2 5 17 5 19 0 27 -2 18 -5z m467 -3 c3 -5 -3 -10 -15
-10 -12 0 -18 5 -15 10 3 6 10 10 15 10 5 0 12 -4 15 -10z"/>
</g>
</svg>
